<?xml version="1.0" encoding="utf-8"?>
<!-- Generator: Adobe Illustrator 19.0.0, SVG Export Plug-In . SVG Version: 6.00 Build 0)  -->
<svg version="1.1" id="Layer_1" xmlns="http://www.w3.org/2000/svg" xmlns:xlink="http://www.w3.org/1999/xlink" x="0px" y="0px"
	 width="550px" height="400px" viewBox="117.5 56.2 550 400" enable-background="new 117.5 56.2 550 400" xml:space="preserve">
<g id="XMLID_27_" opacity="0.15">
	<polygon id="XMLID_66_" opacity="0.25" fill="#1899D4" points="193.7,121.9 198,128.6 202.3,121.9 	"/>
	<polygon id="XMLID_65_" opacity="0.5" fill="#1899D4" points="193.7,87.1 198,93.9 202.3,87.1 	"/>
	<polygon id="XMLID_31_" opacity="0.15" fill="#062638" points="193.7,203.5 198,210.2 202.3,203.5 	"/>
	<polygon id="XMLID_30_" opacity="0.25" fill="#1899D4" points="193.7,168.8 198,175.5 202.3,168.8 	"/>
	<polygon id="XMLID_24_" opacity="0.15" fill="#1899D4" points="193.7,154.1 198,160.8 202.3,154.1 	"/>
	<polygon id="XMLID_87_" opacity="0.25" fill="#1899D4" points="193.7,262.9 198,269.6 202.3,262.9 	"/>
	<polygon id="XMLID_85_" opacity="0.15" fill="#062638" points="193.7,228.2 198,234.9 202.3,228.2 	"/>
	<polygon id="XMLID_84_" opacity="0.15" fill="#062638" points="193.7,344.5 198,351.2 202.3,344.5 	"/>
	<polygon id="XMLID_83_" opacity="0.25" fill="#1899D4" points="193.7,309.8 198,316.5 202.3,309.8 	"/>
	<polygon id="XMLID_73_" opacity="0.15" fill="#1899D4" points="193.7,295.1 198,301.8 202.3,295.1 	"/>
</g>
<g id="XMLID_72_" opacity="0.3">
	<polygon id="XMLID_17_" opacity="0.25" fill="#1899D4" points="146.5,203.9 150.7,210.6 155,203.9 	"/>
	<polygon id="XMLID_16_" opacity="0.15" fill="#062638" points="146.5,169.2 150.7,175.9 155,169.2 	"/>
	<polygon id="XMLID_15_" opacity="0.25" fill="#1899D4" points="146.5,285.5 150.7,292.2 155,285.5 	"/>
	<polygon id="XMLID_14_" opacity="0.15" fill="#062638" points="146.5,250.8 150.7,257.5 155,250.8 	"/>
	<polygon id="XMLID_3_" opacity="0.15" fill="#1899D4" points="146.5,236.1 150.7,242.8 155,236.1 	"/>
	<polygon id="XMLID_124_" opacity="0.15" fill="#062638" points="146.5,344.4 150.7,351.1 155,344.4 	"/>
	<polygon id="XMLID_121_" opacity="0.5" fill="#1899D4" points="146.5,309.7 150.7,316.4 155,309.7 	"/>
	<polygon id="XMLID_118_" opacity="0.25" fill="#1899D4" points="146.5,426.1 150.7,432.8 155,426.1 	"/>
	<polygon id="XMLID_115_" opacity="0.5" fill="#1899D4" points="146.5,391.4 150.7,398.1 155,391.4 	"/>
	<polygon id="XMLID_99_" opacity="0.25" fill="#1899D4" points="146.5,376.7 150.7,383.4 155,376.7 	"/>
</g>
<g id="XMLID_23_" opacity="0.2">
	<polygon id="XMLID_140_" opacity="0.15" fill="#1899D4" points="231.3,99.3 235.6,106 239.8,99.3 	"/>
	<polygon id="XMLID_139_" opacity="0.25" fill="#1899D4" points="231.3,64.6 235.6,71.3 239.8,64.6 	"/>
	<polygon id="XMLID_137_" opacity="0.25" fill="#1899D4" points="231.3,180.9 235.6,187.7 239.8,180.9 	"/>
	<polygon id="XMLID_134_" opacity="0.15" fill="#1899D4" points="231.3,146.2 235.6,152.9 239.8,146.2 	"/>
	<polygon id="XMLID_133_" opacity="0.5" fill="#1899D4" points="231.3,131.5 235.6,138.2 239.8,131.5 	"/>
	<polygon id="XMLID_131_" opacity="0.25" fill="#1899D4" points="231.3,239.8 235.6,246.5 239.8,239.8 	"/>
	<polygon id="XMLID_130_" opacity="0.15" fill="#062638" points="231.3,205.1 235.6,211.8 239.8,205.1 	"/>
	<polygon id="XMLID_129_" opacity="0.25" fill="#1899D4" points="231.3,321.5 235.6,328.2 239.8,321.5 	"/>
	<polygon id="XMLID_128_" opacity="0.15" fill="#1899D4" points="231.3,286.8 235.6,293.5 239.8,286.8 	"/>
	<polygon id="XMLID_127_" opacity="0.5" fill="#1899D4" points="231.3,272.1 235.6,278.8 239.8,272.1 	"/>
</g>
<g id="XMLID_21_" opacity="0.14">
	<polygon id="XMLID_148_" opacity="0.25" fill="#1899D4" points="273.8,164.8 278,171.5 282.3,164.8 	"/>
	<polygon id="XMLID_147_" opacity="0.15" fill="#1899D4" points="273.8,130.1 278,136.8 282.3,130.1 	"/>
	<polygon id="XMLID_146_" fill="#1899D4" points="273.8,246.4 278,253.2 282.3,246.4 	"/>
	<polygon id="XMLID_145_" opacity="0.25" fill="#1899D4" points="273.8,211.7 278,218.4 282.3,211.7 	"/>
	<polygon id="XMLID_144_" opacity="0.5" fill="#1899D4" points="273.8,197 278,203.7 282.3,197 	"/>
	<polygon id="XMLID_143_" opacity="0.15" fill="#1899D4" points="273.8,305.8 278,312.5 282.3,305.8 	"/>
	<polygon id="XMLID_142_" opacity="0.25" fill="#1899D4" points="273.8,271.1 278,277.8 282.3,271.1 	"/>
	<polygon id="XMLID_141_" opacity="0.25" fill="#1899D4" points="273.8,387.4 278,394.2 282.3,387.4 	"/>
	<polygon id="XMLID_138_" opacity="0.15" fill="#1899D4" points="273.8,352.7 278,359.4 282.3,352.7 	"/>
	<polygon id="XMLID_136_" opacity="0.5" fill="#1899D4" points="273.8,338 278,344.7 282.3,338 	"/>
</g>
<g id="XMLID_1_" opacity="0.15">
	<polygon id="XMLID_132_" opacity="0.15" fill="#062638" points="311.4,142.2 315.6,148.9 319.9,142.2 	"/>
	<polygon id="XMLID_126_" opacity="0.25" fill="#1899D4" points="311.4,107.5 315.6,114.2 319.9,107.5 	"/>
	<polygon id="XMLID_125_" opacity="0.25" fill="#1899D4" points="311.4,223.9 315.6,230.6 319.9,223.9 	"/>
	<polygon id="XMLID_123_" opacity="0.15" fill="#062638" points="311.4,189.1 315.6,195.9 319.9,189.1 	"/>
	<polygon id="XMLID_119_" opacity="0.25" fill="#1899D4" points="311.4,174.4 315.6,181.2 319.9,174.4 	"/>
	<polygon id="XMLID_113_" opacity="0.25" fill="#1899D4" points="311.4,282.7 315.6,289.5 319.9,282.7 	"/>
	<polygon id="XMLID_111_" opacity="0.5" fill="#1899D4" points="311.4,248 315.6,254.7 319.9,248 	"/>
	<polygon id="XMLID_106_" opacity="0.15" fill="#062638" points="311.4,364.4 315.6,371.1 319.9,364.4 	"/>
	<polygon id="XMLID_104_" opacity="0.25" fill="#1899D4" points="311.4,329.7 315.6,336.4 319.9,329.7 	"/>
	<polygon id="XMLID_98_" opacity="0.15" fill="#1899D4" points="311.4,315 315.6,321.7 319.9,315 	"/>
</g>
</svg>
