<?xml version="1.0" encoding="utf-8"?>
<!-- Generator: Adobe Illustrator 19.0.0, SVG Export Plug-In . SVG Version: 6.00 Build 0)  -->
<svg version="1.1" id="Layer_1" xmlns="http://www.w3.org/2000/svg" xmlns:xlink="http://www.w3.org/1999/xlink" x="0px" y="0px"
	 width="1366px" height="520.5px" viewBox="-6 -140.8 1366 520.5" style="enable-background:new -6 -140.8 1366 520.5;"
	 xml:space="preserve">
<style type="text/css">
	.st0{opacity:7.500000e-002;}
	.st1{fill:#1899D4;stroke:#1899D4;stroke-miterlimit:10;}
</style>
<g class="st0">
	<circle id="XMLID_174_" class="st1" cx="1228.4" cy="326.8" r="1.1"/>
	<circle id="XMLID_173_" class="st1" cx="1228.4" cy="346.4" r="1.1"/>
	<circle id="XMLID_172_" class="st1" cx="1211.7" cy="326.8" r="1.1"/>
	<circle id="XMLID_171_" class="st1" cx="1211.7" cy="346.4" r="1.1"/>
	<circle id="XMLID_170_" class="st1" cx="1195.1" cy="326.8" r="1.1"/>
	<circle id="XMLID_169_" class="st1" cx="1195.1" cy="346.4" r="1.1"/>
	<circle id="XMLID_168_" class="st1" cx="1178.4" cy="326.8" r="1.1"/>
	<circle id="XMLID_167_" class="st1" cx="1178.4" cy="346.4" r="1.1"/>
	<circle id="XMLID_166_" class="st1" cx="1161.8" cy="326.8" r="1.1"/>
	<circle id="XMLID_165_" class="st1" cx="1161.8" cy="346.4" r="1.1"/>
	<circle id="XMLID_164_" class="st1" cx="1311.7" cy="111.8" r="1.1"/>
	<circle id="XMLID_163_" class="st1" cx="1311.7" cy="131.4" r="1.1"/>
	<circle id="XMLID_162_" class="st1" cx="1311.7" cy="150.9" r="1.1"/>
	<circle id="XMLID_161_" class="st1" cx="1311.7" cy="170.5" r="1.1"/>
	<circle id="XMLID_160_" class="st1" cx="1311.7" cy="190" r="1.1"/>
	<circle id="XMLID_159_" class="st1" cx="1311.7" cy="209.6" r="1.1"/>
	<circle id="XMLID_158_" class="st1" cx="1311.7" cy="229.1" r="1.1"/>
	<circle id="XMLID_157_" class="st1" cx="1311.7" cy="248.6" r="1.1"/>
	<circle id="XMLID_156_" class="st1" cx="1311.7" cy="268.2" r="1.1"/>
	<circle id="XMLID_155_" class="st1" cx="1311.7" cy="287.7" r="1.1"/>
	<circle id="XMLID_154_" class="st1" cx="1311.7" cy="307.3" r="1.1"/>
	<circle id="XMLID_153_" class="st1" cx="1311.7" cy="326.8" r="1.1"/>
	<circle id="XMLID_152_" class="st1" cx="1311.7" cy="346.4" r="1.1"/>
	<circle id="XMLID_151_" class="st1" cx="1295" cy="111.8" r="1.1"/>
	<circle id="XMLID_150_" class="st1" cx="1295" cy="131.4" r="1.1"/>
	<circle id="XMLID_149_" class="st1" cx="1295" cy="150.9" r="1.1"/>
	<circle id="XMLID_148_" class="st1" cx="1295" cy="170.5" r="1.1"/>
	<circle id="XMLID_147_" class="st1" cx="1295" cy="190" r="1.1"/>
	<circle id="XMLID_146_" class="st1" cx="1295" cy="209.6" r="1.1"/>
	<circle id="XMLID_145_" class="st1" cx="1295" cy="229.1" r="1.1"/>
	<circle id="XMLID_144_" class="st1" cx="1295" cy="248.6" r="1.1"/>
	<circle id="XMLID_143_" class="st1" cx="1295" cy="268.2" r="1.1"/>
	<circle id="XMLID_142_" class="st1" cx="1295" cy="287.7" r="1.1"/>
	<circle id="XMLID_141_" class="st1" cx="1295" cy="307.3" r="1.1"/>
	<circle id="XMLID_140_" class="st1" cx="1295" cy="326.8" r="1.1"/>
	<circle id="XMLID_139_" class="st1" cx="1295" cy="346.4" r="1.1"/>
	<circle id="XMLID_123_" class="st1" cx="1278.3" cy="326.8" r="1.1"/>
	<circle id="XMLID_122_" class="st1" cx="1278.3" cy="346.4" r="1.1"/>
	<circle id="XMLID_121_" class="st1" cx="1261.7" cy="326.8" r="1.1"/>
	<circle id="XMLID_120_" class="st1" cx="1261.7" cy="346.4" r="1.1"/>
	<circle id="XMLID_119_" class="st1" cx="1245" cy="326.8" r="1.1"/>
	<circle id="XMLID_118_" class="st1" cx="1245" cy="346.4" r="1.1"/>
	<circle id="XMLID_197_" class="st1" cx="1295" cy="80.9" r="1.1"/>
	<circle id="XMLID_196_" class="st1" cx="1314.5" cy="80.9" r="1.1"/>
	<circle id="XMLID_184_" class="st1" cx="1295" cy="97.6" r="1.1"/>
	<circle id="XMLID_183_" class="st1" cx="1314.5" cy="97.6" r="1.1"/>
</g>
<g class="st0">
	<circle class="st1" cx="20" cy="-113.1" r="2.5"/>
	<circle class="st1" cx="47.1" cy="-113.1" r="2.5"/>
	<circle class="st1" cx="74.2" cy="-113.1" r="2.5"/>
	<circle class="st1" cx="101.3" cy="-113.1" r="2.5"/>
	<circle class="st1" cx="128.3" cy="-113.1" r="2.5"/>
	<circle class="st1" cx="155.4" cy="-113.1" r="2.5"/>
	<circle class="st1" cx="182.5" cy="-113.1" r="2.5"/>
	<circle class="st1" cx="209.6" cy="-113.1" r="2.5"/>
	<circle class="st1" cx="236.6" cy="-113.1" r="2.5"/>
	<circle class="st1" cx="263.7" cy="-113.1" r="2.5"/>
	<circle class="st1" cx="290.8" cy="-113.1" r="2.5"/>
	<circle class="st1" cx="317.9" cy="-113.1" r="2.5"/>
	<circle class="st1" cx="344.9" cy="-113.1" r="2.5"/>
	<circle class="st1" cx="20" cy="-90" r="2.5"/>
	<circle class="st1" cx="47.1" cy="-90" r="2.5"/>
	<circle class="st1" cx="74.2" cy="-90" r="2.5"/>
	<circle class="st1" cx="101.3" cy="-90" r="2.5"/>
	<circle class="st1" cx="128.3" cy="-90" r="2.5"/>
	<circle class="st1" cx="155.4" cy="-90" r="2.5"/>
	<circle class="st1" cx="182.5" cy="-90" r="2.5"/>
	<circle class="st1" cx="209.6" cy="-90" r="2.5"/>
	<circle class="st1" cx="236.6" cy="-90" r="2.5"/>
	<circle class="st1" cx="263.7" cy="-90" r="2.5"/>
	<circle class="st1" cx="290.8" cy="-90" r="2.5"/>
	<circle class="st1" cx="317.9" cy="-90" r="2.5"/>
	<circle class="st1" cx="344.9" cy="-90" r="2.5"/>
	<circle class="st1" cx="20" cy="-66.9" r="2.5"/>
	<circle class="st1" cx="47.1" cy="-66.9" r="2.5"/>
	<circle class="st1" cx="74.2" cy="-66.9" r="2.5"/>
	<circle class="st1" cx="101.3" cy="-66.9" r="2.5"/>
	<circle class="st1" cx="128.3" cy="-66.9" r="2.5"/>
	<circle class="st1" cx="155.4" cy="-66.9" r="2.5"/>
	<circle class="st1" cx="182.5" cy="-66.9" r="2.5"/>
	<circle class="st1" cx="209.6" cy="-66.9" r="2.5"/>
	<circle class="st1" cx="236.6" cy="-66.9" r="2.5"/>
	<circle class="st1" cx="263.7" cy="-66.9" r="2.5"/>
	<circle class="st1" cx="290.8" cy="-66.9" r="2.5"/>
	<circle class="st1" cx="317.9" cy="-66.9" r="2.5"/>
	<circle class="st1" cx="344.9" cy="-66.9" r="2.5"/>
	<circle class="st1" cx="20" cy="-43.9" r="2.5"/>
	<circle class="st1" cx="47.1" cy="-43.9" r="2.5"/>
	<circle class="st1" cx="74.2" cy="-43.9" r="2.5"/>
	<circle class="st1" cx="101.3" cy="-43.9" r="2.5"/>
	<circle class="st1" cx="128.3" cy="-43.9" r="2.5"/>
	<circle class="st1" cx="155.4" cy="-43.9" r="2.5"/>
	<circle class="st1" cx="182.5" cy="-43.9" r="2.5"/>
	<circle class="st1" cx="209.6" cy="-43.9" r="2.5"/>
	<circle class="st1" cx="236.6" cy="-43.9" r="2.5"/>
	<circle class="st1" cx="263.7" cy="-43.9" r="2.5"/>
	<circle class="st1" cx="290.8" cy="-43.9" r="2.5"/>
	<circle class="st1" cx="317.9" cy="-43.9" r="2.5"/>
	<circle class="st1" cx="344.9" cy="-43.9" r="2.5"/>
	<circle class="st1" cx="20" cy="-20.8" r="2.5"/>
	<circle class="st1" cx="47.1" cy="-20.8" r="2.5"/>
	<circle class="st1" cx="74.2" cy="-20.8" r="2.5"/>
	<circle class="st1" cx="101.3" cy="-20.8" r="2.5"/>
	<circle class="st1" cx="128.3" cy="-20.8" r="2.5"/>
	<circle class="st1" cx="155.4" cy="-20.8" r="2.5"/>
	<circle class="st1" cx="182.5" cy="-20.8" r="2.5"/>
	<circle class="st1" cx="209.6" cy="-20.8" r="2.5"/>
	<circle class="st1" cx="236.6" cy="-20.8" r="2.5"/>
	<circle class="st1" cx="263.7" cy="-20.8" r="2.5"/>
	<circle class="st1" cx="290.8" cy="-20.8" r="2.5"/>
	<circle class="st1" cx="317.9" cy="-20.8" r="2.5"/>
	<circle class="st1" cx="344.9" cy="-20.8" r="2.5"/>
	<circle class="st1" cx="20" cy="2.3" r="2.5"/>
	<circle class="st1" cx="47.1" cy="2.3" r="2.5"/>
	<circle class="st1" cx="74.2" cy="2.3" r="2.5"/>
	<circle class="st1" cx="101.3" cy="2.3" r="2.5"/>
	<circle class="st1" cx="128.3" cy="2.3" r="2.5"/>
	<circle class="st1" cx="155.4" cy="2.3" r="2.5"/>
	<circle class="st1" cx="182.5" cy="2.3" r="2.5"/>
	<circle class="st1" cx="209.6" cy="2.3" r="2.5"/>
	<circle class="st1" cx="236.6" cy="2.3" r="2.5"/>
	<circle class="st1" cx="263.7" cy="2.3" r="2.5"/>
	<circle class="st1" cx="290.8" cy="2.3" r="2.5"/>
	<circle class="st1" cx="317.9" cy="2.3" r="2.5"/>
	<circle class="st1" cx="344.9" cy="2.3" r="2.5"/>
</g>
</svg>
