<?xml version="1.0" encoding="utf-8"?>
<!-- Generator: Adobe Illustrator 19.0.0, SVG Export Plug-In . SVG Version: 6.00 Build 0)  -->
<svg version="1.1" id="Layer_1" xmlns="http://www.w3.org/2000/svg" xmlns:xlink="http://www.w3.org/1999/xlink" x="0px" y="0px"
	 width="295.8px" height="257px" viewBox="87.5 73 295.8 257" enable-background="new 87.5 73 295.8 257" xml:space="preserve">
<g id="XMLID_253_">
	<path id="XMLID_270_" fill="#FDF400" d="M367.1,85.7c-0.4-0.3-0.8-0.6-1.1-0.9l-64.1,64.1c0.3,0.4,0.6,0.8,0.9,1.1L367.1,85.7z"/>
	<path id="XMLID_269_" fill="#FDF400" d="M351.5,77.4c-0.5-0.2-1.1-0.3-1.6-0.4l-55.7,55.7c0.1,0.5,0.3,1.1,0.4,1.6L351.5,77.4z"/>
	<path id="XMLID_268_" fill="#FDF400" d="M362.5,82.4c-0.4-0.3-0.8-0.5-1.3-0.8L298.8,144c0.2,0.4,0.5,0.9,0.8,1.3L362.5,82.4z"/>
	<path id="XMLID_267_" fill="#FDF400" d="M357.3,79.6c-0.5-0.2-0.9-0.4-1.4-0.6l-59.7,59.7c0.2,0.5,0.4,1,0.6,1.4L357.3,79.6z"/>
	<path id="XMLID_266_" fill="#FDF400" d="M345,76c-0.6-0.1-1.2-0.2-1.8-0.2L293,126c0.1,0.6,0.1,1.2,0.2,1.8L345,76z"/>
	<path id="XMLID_265_" fill="#FDF400" d="M370.8,89c-0.2-0.2-0.3-0.3-0.5-0.5l-64.7,64.7c0.2,0.2,0.3,0.3,0.5,0.5
		c0.2,0.2,0.3,0.3,0.5,0.5l64.7-64.7C371.1,89.3,371,89.1,370.8,89z"/>
	<path id="XMLID_264_" fill="#FDF400" d="M337.5,75.6c-0.7,0-1.4,0-2.1,0.1l-42.5,42.5c0,0.7-0.1,1.4-0.1,2.1L337.5,75.6z"/>
	<path id="XMLID_263_" fill="#FDF400" d="M293.8,111.2l34.6-34.6c-0.9,0.2-1.8,0.4-2.7,0.7l-31.1,31.1
		C294.3,109.4,294,110.3,293.8,111.2z"/>
	<path id="XMLID_262_" fill="#FDF400" d="M384.1,124.4c0-0.7,0.1-1.4,0.1-2.1L339.5,167c0.7,0,1.4,0,2.1-0.1L384.1,124.4z"/>
	<path id="XMLID_261_" fill="#FDF400" d="M383.9,116.6c-0.1-0.6-0.1-1.2-0.2-1.8l-51.8,51.8c0.6,0.1,1.2,0.2,1.8,0.2L383.9,116.6z"
		/>
	<path id="XMLID_260_" fill="#FDF400" d="M315.2,81.9c-3.3,1.9-6.3,4.3-9.1,7.1c-2.8,2.8-5.1,5.9-7.1,9.1L315.2,81.9z"/>
	<path id="XMLID_259_" fill="#FDF400" d="M382.4,134.1c0.3-0.9,0.5-1.8,0.7-2.7l-34.6,34.6c0.9-0.2,1.8-0.4,2.7-0.7L382.4,134.1z"/>
	<path id="XMLID_258_" fill="#FDF400" d="M361.7,160.7c3.3-1.9,6.3-4.3,9.1-7.1c2.8-2.8,5.2-5.9,7.1-9.1L361.7,160.7z"/>
	<path id="XMLID_257_" fill="#FDF400" d="M378.1,98.5c-0.2-0.4-0.5-0.9-0.8-1.3l-63,63c0.4,0.3,0.8,0.5,1.3,0.8L378.1,98.5z"/>
	<path id="XMLID_256_" fill="#FDF400" d="M375,93.8c-0.3-0.4-0.6-0.8-0.9-1.1l-64.3,64.3c0.4,0.3,0.8,0.6,1.1,0.9L375,93.8z"/>
	<path id="XMLID_255_" fill="#FDF400" d="M382.7,109.9c-0.1-0.5-0.3-1.1-0.4-1.6l-56.9,56.9c0.5,0.2,1.1,0.3,1.6,0.4L382.7,109.9z"
		/>
	<path id="XMLID_254_" fill="#FDF400" d="M380.8,103.9c-0.2-0.5-0.4-1-0.6-1.4L319.6,163c0.5,0.2,0.9,0.4,1.4,0.6L380.8,103.9z"/>
</g>
<g id="XMLID_79_">
	<g id="XMLID_80_">
		<circle id="XMLID_78_" fill="#1899D4" cx="182.9" cy="78.4" r="1.9"/>
		<circle id="XMLID_77_" fill="#1899D4" cx="182.9" cy="98.9" r="1.9"/>
		<circle id="XMLID_76_" fill="#1899D4" cx="182.9" cy="119.4" r="1.9"/>
		<circle id="XMLID_75_" fill="#1899D4" cx="182.9" cy="140" r="1.9"/>
		<circle id="XMLID_74_" fill="#1899D4" cx="182.9" cy="160.5" r="1.9"/>
		<circle id="XMLID_73_" fill="#1899D4" cx="182.9" cy="181" r="1.9"/>
		<circle id="XMLID_72_" fill="#1899D4" cx="182.9" cy="201.5" r="1.9"/>
		<circle id="XMLID_71_" fill="#1899D4" cx="182.9" cy="222" r="1.9"/>
		<circle id="XMLID_70_" fill="#1899D4" cx="182.9" cy="242.6" r="1.9"/>
		<circle id="XMLID_69_" fill="#1899D4" cx="182.9" cy="263.1" r="1.9"/>
		<circle id="XMLID_68_" fill="#1899D4" cx="182.9" cy="283.6" r="1.9"/>
		<circle id="XMLID_67_" fill="#1899D4" cx="182.9" cy="304.1" r="1.9"/>
		<circle id="XMLID_66_" fill="#1899D4" cx="182.9" cy="324.7" r="1.9"/>
		<circle id="XMLID_65_" fill="#1899D4" cx="165.4" cy="78.4" r="1.9"/>
		<circle id="XMLID_64_" fill="#1899D4" cx="165.4" cy="98.9" r="1.9"/>
		<circle id="XMLID_63_" fill="#1899D4" cx="165.4" cy="119.4" r="1.9"/>
		<circle id="XMLID_62_" fill="#1899D4" cx="165.4" cy="140" r="1.9"/>
		<circle id="XMLID_61_" fill="#1899D4" cx="165.4" cy="160.5" r="1.9"/>
		<circle id="XMLID_60_" fill="#1899D4" cx="165.4" cy="181" r="1.9"/>
		<circle id="XMLID_59_" fill="#1899D4" cx="165.4" cy="201.5" r="1.9"/>
		<circle id="XMLID_58_" fill="#1899D4" cx="165.4" cy="222" r="1.9"/>
		<circle id="XMLID_57_" fill="#1899D4" cx="165.4" cy="242.6" r="1.9"/>
		<circle id="XMLID_56_" fill="#1899D4" cx="165.4" cy="263.1" r="1.9"/>
		<circle id="XMLID_55_" fill="#1899D4" cx="165.4" cy="283.6" r="1.9"/>
		<circle id="XMLID_54_" fill="#1899D4" cx="165.4" cy="304.1" r="1.9"/>
		<circle id="XMLID_53_" fill="#1899D4" cx="165.4" cy="324.7" r="1.9"/>
		<circle id="XMLID_52_" fill="#1899D4" cx="148" cy="78.4" r="1.9"/>
		<circle id="XMLID_51_" fill="#1899D4" cx="148" cy="98.9" r="1.9"/>
		<circle id="XMLID_50_" fill="#1899D4" cx="148" cy="119.4" r="1.9"/>
		<circle id="XMLID_49_" fill="#1899D4" cx="148" cy="140" r="1.9"/>
		<circle id="XMLID_48_" fill="#1899D4" cx="148" cy="160.5" r="1.9"/>
		<circle id="XMLID_47_" fill="#1899D4" cx="148" cy="181" r="1.9"/>
		<circle id="XMLID_46_" fill="#1899D4" cx="148" cy="201.5" r="1.9"/>
		<circle id="XMLID_45_" fill="#1899D4" cx="148" cy="222" r="1.9"/>
		<circle id="XMLID_44_" fill="#1899D4" cx="148" cy="242.6" r="1.9"/>
		<circle id="XMLID_43_" fill="#1899D4" cx="148" cy="263.1" r="1.9"/>
		<circle id="XMLID_42_" fill="#1899D4" cx="148" cy="283.6" r="1.9"/>
		<circle id="XMLID_41_" fill="#1899D4" cx="148" cy="304.1" r="1.9"/>
		<circle id="XMLID_40_" fill="#1899D4" cx="148" cy="324.7" r="1.9"/>
		<circle id="XMLID_39_" fill="#1899D4" cx="130.5" cy="78.4" r="1.9"/>
		<circle id="XMLID_38_" fill="#1899D4" cx="130.5" cy="98.9" r="1.9"/>
		<circle id="XMLID_37_" fill="#1899D4" cx="130.5" cy="119.4" r="1.9"/>
		<circle id="XMLID_36_" fill="#1899D4" cx="130.5" cy="140" r="1.9"/>
		<circle id="XMLID_35_" fill="#1899D4" cx="130.5" cy="160.5" r="1.9"/>
		<circle id="XMLID_34_" fill="#1899D4" cx="130.5" cy="181" r="1.9"/>
		<circle id="XMLID_33_" fill="#1899D4" cx="130.5" cy="201.5" r="1.9"/>
		<circle id="XMLID_32_" fill="#1899D4" cx="130.5" cy="222" r="1.9"/>
		<circle id="XMLID_31_" fill="#1899D4" cx="130.5" cy="242.6" r="1.9"/>
		<circle id="XMLID_30_" fill="#1899D4" cx="130.5" cy="263.1" r="1.9"/>
		<circle id="XMLID_29_" fill="#1899D4" cx="130.5" cy="283.6" r="1.9"/>
		<circle id="XMLID_28_" fill="#1899D4" cx="130.5" cy="304.1" r="1.9"/>
		<circle id="XMLID_27_" fill="#1899D4" cx="130.5" cy="324.7" r="1.9"/>
		<circle id="XMLID_26_" fill="#1899D4" cx="113" cy="78.4" r="1.9"/>
		<circle id="XMLID_25_" fill="#1899D4" cx="113" cy="98.9" r="1.9"/>
		<circle id="XMLID_24_" fill="#1899D4" cx="113" cy="119.4" r="1.9"/>
		<circle id="XMLID_23_" fill="#1899D4" cx="113" cy="140" r="1.9"/>
		<circle id="XMLID_22_" fill="#1899D4" cx="113" cy="160.5" r="1.9"/>
		<circle id="XMLID_21_" fill="#1899D4" cx="113" cy="181" r="1.9"/>
		<circle id="XMLID_20_" fill="#1899D4" cx="113" cy="201.5" r="1.9"/>
		<circle id="XMLID_19_" fill="#1899D4" cx="113" cy="222" r="1.9"/>
		<circle id="XMLID_18_" fill="#1899D4" cx="113" cy="242.6" r="1.9"/>
		<circle id="XMLID_17_" fill="#1899D4" cx="113" cy="263.1" r="1.9"/>
		<circle id="XMLID_16_" fill="#1899D4" cx="113" cy="283.6" r="1.9"/>
		<circle id="XMLID_15_" fill="#1899D4" cx="113" cy="304.1" r="1.9"/>
		<circle id="XMLID_14_" fill="#1899D4" cx="113" cy="324.7" r="1.9"/>
		<circle id="XMLID_13_" fill="#1899D4" cx="95.5" cy="78.4" r="1.9"/>
		<circle id="XMLID_12_" fill="#1899D4" cx="95.5" cy="98.9" r="1.9"/>
		<circle id="XMLID_11_" fill="#1899D4" cx="95.5" cy="119.4" r="1.9"/>
		<circle id="XMLID_10_" fill="#1899D4" cx="95.5" cy="140" r="1.9"/>
		<circle id="XMLID_9_" fill="#1899D4" cx="95.5" cy="160.5" r="1.9"/>
		<circle id="XMLID_8_" fill="#1899D4" cx="95.5" cy="181" r="1.9"/>
		<circle id="XMLID_7_" fill="#1899D4" cx="95.5" cy="201.5" r="1.9"/>
		<circle id="XMLID_6_" fill="#1899D4" cx="95.5" cy="222" r="1.9"/>
		<circle id="XMLID_5_" fill="#1899D4" cx="95.5" cy="242.6" r="1.9"/>
		<circle id="XMLID_4_" fill="#1899D4" cx="95.5" cy="263.1" r="1.9"/>
		<circle id="XMLID_3_" fill="#1899D4" cx="95.5" cy="283.6" r="1.9"/>
		<circle id="XMLID_2_" fill="#1899D4" cx="95.5" cy="304.1" r="1.9"/>
		<circle id="XMLID_1_" fill="#1899D4" cx="95.5" cy="324.7" r="1.9"/>
	</g>
	<g id="XMLID_81_">
		<circle id="XMLID_159_" fill="#1899D4" cx="270.4" cy="78.4" r="1.9"/>
		<circle id="XMLID_158_" fill="#1899D4" cx="270.4" cy="98.9" r="1.9"/>
		<circle id="XMLID_157_" fill="#1899D4" cx="270.4" cy="119.4" r="1.9"/>
		<circle id="XMLID_156_" fill="#1899D4" cx="270.4" cy="140" r="1.9"/>
		<circle id="XMLID_155_" fill="#1899D4" cx="270.4" cy="160.5" r="1.9"/>
		<circle id="XMLID_154_" fill="#1899D4" cx="270.4" cy="181" r="1.9"/>
		<circle id="XMLID_153_" fill="#1899D4" cx="270.4" cy="201.5" r="1.9"/>
		<circle id="XMLID_152_" fill="#1899D4" cx="270.4" cy="222" r="1.9"/>
		<circle id="XMLID_151_" fill="#1899D4" cx="270.4" cy="242.6" r="1.9"/>
		<circle id="XMLID_150_" fill="#1899D4" cx="270.4" cy="263.1" r="1.9"/>
		<circle id="XMLID_149_" fill="#1899D4" cx="270.4" cy="283.6" r="1.9"/>
		<circle id="XMLID_148_" fill="#1899D4" cx="270.4" cy="304.1" r="1.9"/>
		<circle id="XMLID_147_" fill="#1899D4" cx="270.4" cy="324.7" r="1.9"/>
		<circle id="XMLID_146_" fill="#1899D4" cx="252.9" cy="78.4" r="1.9"/>
		<circle id="XMLID_145_" fill="#1899D4" cx="252.9" cy="98.9" r="1.9"/>
		<circle id="XMLID_144_" fill="#1899D4" cx="252.9" cy="119.4" r="1.9"/>
		<circle id="XMLID_143_" fill="#1899D4" cx="252.9" cy="140" r="1.9"/>
		<circle id="XMLID_142_" fill="#1899D4" cx="252.9" cy="160.5" r="1.9"/>
		<circle id="XMLID_141_" fill="#1899D4" cx="252.9" cy="181" r="1.9"/>
		<circle id="XMLID_140_" fill="#1899D4" cx="252.9" cy="201.5" r="1.9"/>
		<circle id="XMLID_139_" fill="#1899D4" cx="252.9" cy="222" r="1.9"/>
		<circle id="XMLID_138_" fill="#1899D4" cx="252.9" cy="242.6" r="1.9"/>
		<circle id="XMLID_137_" fill="#1899D4" cx="252.9" cy="263.1" r="1.9"/>
		<circle id="XMLID_136_" fill="#1899D4" cx="252.9" cy="283.6" r="1.9"/>
		<circle id="XMLID_135_" fill="#1899D4" cx="252.9" cy="304.1" r="1.9"/>
		<circle id="XMLID_134_" fill="#1899D4" cx="252.9" cy="324.7" r="1.9"/>
		<circle id="XMLID_133_" fill="#1899D4" cx="235.4" cy="78.4" r="1.9"/>
		<circle id="XMLID_132_" fill="#1899D4" cx="235.4" cy="98.9" r="1.9"/>
		<circle id="XMLID_131_" fill="#1899D4" cx="235.4" cy="119.4" r="1.9"/>
		<circle id="XMLID_130_" fill="#1899D4" cx="235.4" cy="140" r="1.9"/>
		<circle id="XMLID_129_" fill="#1899D4" cx="235.4" cy="160.5" r="1.9"/>
		<circle id="XMLID_128_" fill="#1899D4" cx="235.4" cy="181" r="1.9"/>
		<circle id="XMLID_127_" fill="#1899D4" cx="235.4" cy="201.5" r="1.9"/>
		<circle id="XMLID_126_" fill="#1899D4" cx="235.4" cy="222" r="1.9"/>
		<circle id="XMLID_125_" fill="#1899D4" cx="235.4" cy="242.6" r="1.9"/>
		<circle id="XMLID_124_" fill="#1899D4" cx="235.4" cy="263.1" r="1.9"/>
		<circle id="XMLID_123_" fill="#1899D4" cx="235.4" cy="283.6" r="1.9"/>
		<circle id="XMLID_122_" fill="#1899D4" cx="235.4" cy="304.1" r="1.9"/>
		<circle id="XMLID_121_" fill="#1899D4" cx="235.4" cy="324.7" r="1.9"/>
		<circle id="XMLID_120_" fill="#1899D4" cx="217.9" cy="78.4" r="1.9"/>
		<circle id="XMLID_119_" fill="#1899D4" cx="217.9" cy="98.9" r="1.9"/>
		<circle id="XMLID_118_" fill="#1899D4" cx="217.9" cy="119.4" r="1.9"/>
		<circle id="XMLID_117_" fill="#1899D4" cx="217.9" cy="140" r="1.9"/>
		<circle id="XMLID_116_" fill="#1899D4" cx="217.9" cy="160.5" r="1.9"/>
		<circle id="XMLID_115_" fill="#1899D4" cx="217.9" cy="181" r="1.9"/>
		<circle id="XMLID_114_" fill="#1899D4" cx="217.9" cy="201.5" r="1.9"/>
		<circle id="XMLID_113_" fill="#1899D4" cx="217.9" cy="222" r="1.9"/>
		<circle id="XMLID_112_" fill="#1899D4" cx="217.9" cy="242.6" r="1.9"/>
		<circle id="XMLID_111_" fill="#1899D4" cx="217.9" cy="263.1" r="1.9"/>
		<circle id="XMLID_110_" fill="#1899D4" cx="217.9" cy="283.6" r="1.9"/>
		<circle id="XMLID_109_" fill="#1899D4" cx="217.9" cy="304.1" r="1.9"/>
		<circle id="XMLID_108_" fill="#1899D4" cx="217.9" cy="324.7" r="1.9"/>
		<circle id="XMLID_107_" fill="#1899D4" cx="200.4" cy="78.4" r="1.9"/>
		<circle id="XMLID_106_" fill="#1899D4" cx="200.4" cy="98.9" r="1.9"/>
		<circle id="XMLID_105_" fill="#1899D4" cx="200.4" cy="119.4" r="1.9"/>
		<circle id="XMLID_104_" fill="#1899D4" cx="200.4" cy="140" r="1.9"/>
		<circle id="XMLID_103_" fill="#1899D4" cx="200.4" cy="160.5" r="1.9"/>
		<circle id="XMLID_102_" fill="#1899D4" cx="200.4" cy="181" r="1.9"/>
		<circle id="XMLID_101_" fill="#1899D4" cx="200.4" cy="201.5" r="1.9"/>
		<circle id="XMLID_100_" fill="#1899D4" cx="200.4" cy="222" r="1.9"/>
		<circle id="XMLID_99_" fill="#1899D4" cx="200.4" cy="242.6" r="1.9"/>
		<circle id="XMLID_98_" fill="#1899D4" cx="200.4" cy="263.1" r="1.9"/>
		<circle id="XMLID_97_" fill="#1899D4" cx="200.4" cy="283.6" r="1.9"/>
		<circle id="XMLID_96_" fill="#1899D4" cx="200.4" cy="304.1" r="1.9"/>
		<circle id="XMLID_95_" fill="#1899D4" cx="200.4" cy="324.7" r="1.9"/>
		<circle id="XMLID_94_" fill="#1899D4" cx="182.9" cy="78.4" r="1.9"/>
		<circle id="XMLID_93_" fill="#1899D4" cx="182.9" cy="98.9" r="1.9"/>
		<circle id="XMLID_92_" fill="#1899D4" cx="182.9" cy="119.4" r="1.9"/>
		<circle id="XMLID_91_" fill="#1899D4" cx="182.9" cy="140" r="1.9"/>
		<circle id="XMLID_90_" fill="#1899D4" cx="182.9" cy="160.5" r="1.9"/>
		<circle id="XMLID_89_" fill="#1899D4" cx="182.9" cy="181" r="1.9"/>
		<circle id="XMLID_88_" fill="#1899D4" cx="182.9" cy="201.5" r="1.9"/>
		<circle id="XMLID_87_" fill="#1899D4" cx="182.9" cy="222" r="1.9"/>
		<circle id="XMLID_86_" fill="#1899D4" cx="182.9" cy="242.6" r="1.9"/>
		<circle id="XMLID_85_" fill="#1899D4" cx="182.9" cy="263.1" r="1.9"/>
		<circle id="XMLID_84_" fill="#1899D4" cx="182.9" cy="283.6" r="1.9"/>
		<circle id="XMLID_83_" fill="#1899D4" cx="182.9" cy="304.1" r="1.9"/>
		<circle id="XMLID_82_" fill="#1899D4" cx="182.9" cy="324.7" r="1.9"/>
	</g>
	<g id="XMLID_160_">
		<circle id="XMLID_238_" fill="#1899D4" cx="357.8" cy="78.4" r="1.9"/>
		<circle id="XMLID_237_" fill="#1899D4" cx="357.8" cy="98.9" r="1.9"/>
		<circle id="XMLID_236_" fill="#1899D4" cx="357.8" cy="119.4" r="1.9"/>
		<circle id="XMLID_235_" fill="#1899D4" cx="357.8" cy="140" r="1.9"/>
		<circle id="XMLID_234_" fill="#1899D4" cx="357.8" cy="160.5" r="1.9"/>
		<circle id="XMLID_233_" fill="#1899D4" cx="357.8" cy="181" r="1.9"/>
		<circle id="XMLID_232_" fill="#1899D4" cx="357.8" cy="201.5" r="1.9"/>
		<circle id="XMLID_231_" fill="#1899D4" cx="357.8" cy="222" r="1.9"/>
		<circle id="XMLID_230_" fill="#1899D4" cx="357.8" cy="242.6" r="1.9"/>
		<circle id="XMLID_229_" fill="#1899D4" cx="357.8" cy="263.1" r="1.9"/>
		<circle id="XMLID_228_" fill="#1899D4" cx="357.8" cy="283.6" r="1.9"/>
		<circle id="XMLID_227_" fill="#1899D4" cx="357.8" cy="304.1" r="1.9"/>
		<circle id="XMLID_226_" fill="#1899D4" cx="357.8" cy="324.7" r="1.9"/>
		<circle id="XMLID_252_" fill="#1899D4" cx="376.9" cy="78.4" r="1.9"/>
		<circle id="XMLID_251_" fill="#1899D4" cx="376.9" cy="98.9" r="1.9"/>
		<circle id="XMLID_250_" fill="#1899D4" cx="376.9" cy="119.4" r="1.9"/>
		<circle id="XMLID_249_" fill="#1899D4" cx="376.9" cy="140" r="1.9"/>
		<circle id="XMLID_248_" fill="#1899D4" cx="376.9" cy="160.5" r="1.9"/>
		<circle id="XMLID_247_" fill="#1899D4" cx="376.9" cy="181" r="1.9"/>
		<circle id="XMLID_246_" fill="#1899D4" cx="376.9" cy="201.5" r="1.9"/>
		<circle id="XMLID_245_" fill="#1899D4" cx="376.9" cy="222" r="1.9"/>
		<circle id="XMLID_244_" fill="#1899D4" cx="376.9" cy="242.6" r="1.9"/>
		<circle id="XMLID_243_" fill="#1899D4" cx="376.9" cy="263.1" r="1.9"/>
		<circle id="XMLID_242_" fill="#1899D4" cx="376.9" cy="283.6" r="1.9"/>
		<circle id="XMLID_241_" fill="#1899D4" cx="376.9" cy="304.1" r="1.9"/>
		<circle id="XMLID_240_" fill="#1899D4" cx="376.9" cy="324.7" r="1.9"/>
		<circle id="XMLID_225_" fill="#1899D4" cx="340.3" cy="78.4" r="1.9"/>
		<circle id="XMLID_224_" fill="#1899D4" cx="340.3" cy="98.9" r="1.9"/>
		<circle id="XMLID_223_" fill="#1899D4" cx="340.3" cy="119.4" r="1.9"/>
		<circle id="XMLID_222_" fill="#1899D4" cx="340.3" cy="140" r="1.9"/>
		<circle id="XMLID_221_" fill="#1899D4" cx="340.3" cy="160.5" r="1.9"/>
		<circle id="XMLID_220_" fill="#1899D4" cx="340.3" cy="181" r="1.9"/>
		<circle id="XMLID_219_" fill="#1899D4" cx="340.3" cy="201.5" r="1.9"/>
		<circle id="XMLID_218_" fill="#1899D4" cx="340.3" cy="222" r="1.9"/>
		<circle id="XMLID_217_" fill="#1899D4" cx="340.3" cy="242.6" r="1.9"/>
		<circle id="XMLID_216_" fill="#1899D4" cx="340.3" cy="263.1" r="1.9"/>
		<circle id="XMLID_215_" fill="#1899D4" cx="340.3" cy="283.6" r="1.9"/>
		<circle id="XMLID_214_" fill="#1899D4" cx="340.3" cy="304.1" r="1.9"/>
		<circle id="XMLID_213_" fill="#1899D4" cx="340.3" cy="324.7" r="1.9"/>
		<circle id="XMLID_212_" fill="#1899D4" cx="322.8" cy="78.4" r="1.9"/>
		<circle id="XMLID_211_" fill="#1899D4" cx="322.8" cy="98.9" r="1.9"/>
		<circle id="XMLID_210_" fill="#1899D4" cx="322.8" cy="119.4" r="1.9"/>
		<circle id="XMLID_209_" fill="#1899D4" cx="322.8" cy="140" r="1.9"/>
		<circle id="XMLID_208_" fill="#1899D4" cx="322.8" cy="160.5" r="1.9"/>
		<circle id="XMLID_207_" fill="#1899D4" cx="322.8" cy="181" r="1.9"/>
		<circle id="XMLID_206_" fill="#1899D4" cx="322.8" cy="201.5" r="1.9"/>
		<circle id="XMLID_205_" fill="#1899D4" cx="322.8" cy="222" r="1.9"/>
		<circle id="XMLID_204_" fill="#1899D4" cx="322.8" cy="242.6" r="1.9"/>
		<circle id="XMLID_203_" fill="#1899D4" cx="322.8" cy="263.1" r="1.9"/>
		<circle id="XMLID_202_" fill="#1899D4" cx="322.8" cy="283.6" r="1.9"/>
		<circle id="XMLID_201_" fill="#1899D4" cx="322.8" cy="304.1" r="1.9"/>
		<circle id="XMLID_200_" fill="#1899D4" cx="322.8" cy="324.7" r="1.9"/>
		<circle id="XMLID_199_" fill="#1899D4" cx="305.3" cy="78.4" r="1.9"/>
		<circle id="XMLID_198_" fill="#1899D4" cx="305.3" cy="98.9" r="1.9"/>
		<circle id="XMLID_197_" fill="#1899D4" cx="305.3" cy="119.4" r="1.9"/>
		<circle id="XMLID_196_" fill="#1899D4" cx="305.3" cy="140" r="1.9"/>
		<circle id="XMLID_195_" fill="#1899D4" cx="305.3" cy="160.5" r="1.9"/>
		<circle id="XMLID_194_" fill="#1899D4" cx="305.3" cy="181" r="1.9"/>
		<circle id="XMLID_193_" fill="#1899D4" cx="305.3" cy="201.5" r="1.9"/>
		<circle id="XMLID_192_" fill="#1899D4" cx="305.3" cy="222" r="1.9"/>
		<circle id="XMLID_191_" fill="#1899D4" cx="305.3" cy="242.6" r="1.9"/>
		<circle id="XMLID_190_" fill="#1899D4" cx="305.3" cy="263.1" r="1.9"/>
		<circle id="XMLID_189_" fill="#1899D4" cx="305.3" cy="283.6" r="1.9"/>
		<circle id="XMLID_188_" fill="#1899D4" cx="305.3" cy="304.1" r="1.9"/>
		<circle id="XMLID_187_" fill="#1899D4" cx="305.3" cy="324.7" r="1.9"/>
		<circle id="XMLID_186_" fill="#1899D4" cx="287.9" cy="78.4" r="1.9"/>
		<circle id="XMLID_185_" fill="#1899D4" cx="287.9" cy="98.9" r="1.9"/>
		<circle id="XMLID_184_" fill="#1899D4" cx="287.9" cy="119.4" r="1.9"/>
		<circle id="XMLID_183_" fill="#1899D4" cx="287.9" cy="140" r="1.9"/>
		<circle id="XMLID_182_" fill="#1899D4" cx="287.9" cy="160.5" r="1.9"/>
		<circle id="XMLID_181_" fill="#1899D4" cx="287.9" cy="181" r="1.9"/>
		<circle id="XMLID_180_" fill="#1899D4" cx="287.9" cy="201.5" r="1.9"/>
		<circle id="XMLID_179_" fill="#1899D4" cx="287.9" cy="222" r="1.9"/>
		<circle id="XMLID_178_" fill="#1899D4" cx="287.9" cy="242.6" r="1.9"/>
		<circle id="XMLID_177_" fill="#1899D4" cx="287.9" cy="263.1" r="1.9"/>
		<circle id="XMLID_176_" fill="#1899D4" cx="287.9" cy="283.6" r="1.9"/>
		<circle id="XMLID_175_" fill="#1899D4" cx="287.9" cy="304.1" r="1.9"/>
		<circle id="XMLID_174_" fill="#1899D4" cx="287.9" cy="324.7" r="1.9"/>
		<circle id="XMLID_173_" fill="#1899D4" cx="270.4" cy="78.4" r="1.9"/>
		<circle id="XMLID_172_" fill="#1899D4" cx="270.4" cy="98.9" r="1.9"/>
		<circle id="XMLID_171_" fill="#1899D4" cx="270.4" cy="119.4" r="1.9"/>
		<circle id="XMLID_170_" fill="#1899D4" cx="270.4" cy="140" r="1.9"/>
		<circle id="XMLID_169_" fill="#1899D4" cx="270.4" cy="160.5" r="1.9"/>
		<circle id="XMLID_168_" fill="#1899D4" cx="270.4" cy="181" r="1.9"/>
		<circle id="XMLID_167_" fill="#1899D4" cx="270.4" cy="201.5" r="1.9"/>
		<circle id="XMLID_166_" fill="#1899D4" cx="270.4" cy="222" r="1.9"/>
		<circle id="XMLID_165_" fill="#1899D4" cx="270.4" cy="242.6" r="1.9"/>
		<circle id="XMLID_164_" fill="#1899D4" cx="270.4" cy="263.1" r="1.9"/>
		<circle id="XMLID_163_" fill="#1899D4" cx="270.4" cy="283.6" r="1.9"/>
		<circle id="XMLID_162_" fill="#1899D4" cx="270.4" cy="304.1" r="1.9"/>
		<circle id="XMLID_161_" fill="#1899D4" cx="270.4" cy="324.7" r="1.9"/>
	</g>
</g>
</svg>
