<?xml version="1.0" encoding="utf-8"?>
<!-- Generator: Adobe Illustrator 19.0.0, SVG Export Plug-In . SVG Version: 6.00 Build 0)  -->
<svg version="1.1" id="Layer_1" xmlns="http://www.w3.org/2000/svg" xmlns:xlink="http://www.w3.org/1999/xlink" x="0px" y="0px"
	 width="195px" height="28.5px" viewBox="0 0 195 28.5" enable-background="new 0 0 195 28.5" xml:space="preserve">
<g id="XMLID_12_">
	<path id="XMLID_16_" fill="#062638" stroke="#062638" stroke-width="0.5" stroke-miterlimit="10" d="M43.8,5.9v4.9h10v3.2h-10v8
		h-3.5V2.7h14.6v3.2H43.8z"/>
	<path id="XMLID_18_" fill="#062638" stroke="#062638" stroke-width="0.5" stroke-miterlimit="10" d="M71.3,13.3v8.8h-3.4v-1.8
		c-1.1,1.4-2.9,2.1-4.6,2.1c-3.1,0-5.5-1.8-5.5-4.7c0-2.9,2.7-4.9,6-4.9c1.3,0,2.8,0.3,4.1,0.8v-0.4c0-1.7-0.9-3.3-3.6-3.3
		c-1.4,0-2.7,0.5-4,1.1l-1.2-2.4c2.1-1,4-1.5,5.8-1.5C68.9,7.2,71.3,9.6,71.3,13.3z M67.9,17.5v-1.6c-1.1-0.4-2.3-0.6-3.6-0.6
		c-1.7,0-3.1,1-3.1,2.3s1.2,2.3,2.9,2.3C65.7,19.9,67.5,19.1,67.9,17.5z"/>
	<path id="XMLID_21_" fill="#062638" stroke="#062638" stroke-width="0.5" stroke-miterlimit="10" d="M75.1,14.8
		c0-4.2,3.6-7.6,7.9-7.6c2.2,0,4.2,0.9,5.5,2.4l-2.3,2c-0.8-0.9-2-1.5-3.2-1.5c-2.4,0-4.4,2.1-4.4,4.7c0,2.6,2,4.7,4.4,4.7
		c1.3,0,2.5-0.6,3.3-1.5l2.3,2c-1.4,1.5-3.4,2.5-5.7,2.5C78.7,22.4,75.1,18.9,75.1,14.8z"/>
	<path id="XMLID_24_" fill="#062638" stroke="#062638" stroke-width="0.5" stroke-miterlimit="10" d="M91.9,3.3c0-1,0.9-1.9,2-1.9
		c1.1,0,1.9,0.9,1.9,1.9s-0.9,2-1.9,2C92.8,5.3,91.9,4.4,91.9,3.3z M92.1,7.5h3.4v14.6h-3.4V7.5z"/>
	<path id="XMLID_28_" fill="#062638" stroke="#062638" stroke-width="0.5" stroke-miterlimit="10" d="M100.2,2.4h3.4v19.7h-3.4V2.4z
		"/>
	<path id="XMLID_30_" fill="#062638" stroke="#062638" stroke-width="0.5" stroke-miterlimit="10" d="M108.1,3.3c0-1,0.9-1.9,2-1.9
		c1.1,0,1.9,0.9,1.9,1.9s-0.9,2-1.9,2C109,5.3,108.1,4.4,108.1,3.3z M108.3,7.5h3.4v14.6h-3.4V7.5z"/>
	<path id="XMLID_33_" fill="#062638" stroke="#062638" stroke-width="0.5" stroke-miterlimit="10" d="M124.7,21.3
		c-0.8,0.7-2,1.2-3.1,1.2c-2.4,0-4.1-1.8-4.1-4.2v-7.9h-2.1V7.5h2.1v-4h3.4v4h3.3v2.9h-3.3v7.5c0,1,0.6,1.7,1.4,1.7
		c0.6,0,1.1-0.2,1.4-0.5L124.7,21.3z"/>
	<path id="XMLID_35_" fill="#062638" stroke="#062638" stroke-width="0.5" stroke-miterlimit="10" d="M128,26.4l0.7-2.5
		c0.6,0.3,1.3,0.5,1.9,0.5c0.8,0,1.4-0.3,1.9-1l0.6-1.3l-6.2-14.7h3.6l4.3,10.9l4-10.9h3.6l-6.2,15.6c-1.1,2.8-2.8,4-5,4.1
		C130.1,27.2,128.9,26.9,128,26.4z"/>
	<path id="XMLID_37_" fill="#062638" stroke="#062638" stroke-width="0.5" stroke-miterlimit="10" d="M161.3,14.8
		c0,4.5-2.8,7.7-6.7,7.7c-2.2,0-3.9-1-5.1-2.7V27h-3.4V7.5h3.4v2.3c1.2-1.7,2.9-2.7,5.1-2.7C158.5,7.2,161.3,10.3,161.3,14.8z
		 M157.9,14.8c0-2.7-1.8-4.7-4.2-4.7c-2.4,0-4.1,1.9-4.1,4.7c0,2.7,1.7,4.7,4.1,4.7C156.1,19.5,157.9,17.5,157.9,14.8z"/>
	<path id="XMLID_40_" fill="#062638" stroke="#062638" stroke-width="0.5" stroke-miterlimit="10" d="M177.9,13.3v8.8h-3.4v-1.8
		c-1.1,1.4-2.9,2.1-4.6,2.1c-3.1,0-5.5-1.8-5.5-4.7c0-2.9,2.7-4.9,6-4.9c1.3,0,2.8,0.3,4.1,0.8v-0.4c0-1.7-0.9-3.3-3.6-3.3
		c-1.4,0-2.7,0.5-4,1.1l-1.2-2.4c2.1-1,4-1.5,5.8-1.5C175.5,7.2,177.9,9.6,177.9,13.3z M174.5,17.5v-1.6c-1.1-0.4-2.3-0.6-3.6-0.6
		c-1.7,0-3.1,1-3.1,2.3s1.2,2.3,2.9,2.3C172.3,19.9,174.1,19.1,174.5,17.5z"/>
	<path id="XMLID_43_" fill="#062638" stroke="#062638" stroke-width="0.5" stroke-miterlimit="10" d="M182.4,2.4h3.4v19.7h-3.4V2.4z
		"/>
</g>
<path id="XMLID_48_" fill="#062638" d="M8.3,3.4v10.5c0,0.6,0.4,1,1,1h2.2c0.6,0,1-0.4,1-1V7.5c0-0.6,0.4-1,1-1h9.6c0.6,0,1,0.4,1,1
	v9.6c0,0.6-0.4,1-1,1h-6.3c-0.6,0-1,0.4-1,1v2.2c0,0.6,0.4,1,1,1h10.5c0.6,0,1-0.4,1-1v-18c0-0.6-0.4-1-1-1h-18
	C8.8,2.4,8.3,2.8,8.3,3.4z"/>
<path id="XMLID_25_" fill="#1899D4" d="M22.1,9.9c0.4,0.4,0.4,0.9,0,1.3L11.6,21.8l-2,2c-0.4,0.4-1,0.4-1.4,0l-2-2l-3.8-3.8
	c-0.4-0.4-0.4-0.9,0-1.3l1.4-1.4c0.4-0.4,0.9-0.4,1.3,0l3.6,3.6c0.1,0.1,0.3,0.1,0.4,0L19.4,8.5c0.4-0.4,0.9-0.4,1.3,0L22.1,9.9z"/>
<g id="XMLID_15_">
</g>
<g id="XMLID_45_">
</g>
<g id="XMLID_46_">
</g>
<g id="XMLID_47_">
</g>
<g id="XMLID_49_">
</g>
<g id="XMLID_50_">
</g>
</svg>
