<?xml version="1.0" encoding="utf-8"?>
<!-- Generator: Adobe Illustrator 19.0.0, SVG Export Plug-In . SVG Version: 6.00 Build 0)  -->
<svg version="1.1" id="Layer_1" xmlns="http://www.w3.org/2000/svg" xmlns:xlink="http://www.w3.org/1999/xlink" x="0px" y="0px"
	 width="400px" height="300px" viewBox="-299 351 400 300" style="enable-background:new -299 351 400 300;" xml:space="preserve">
<style type="text/css">
	.st0{fill:none;stroke:#ECECEC;stroke-linecap:round;stroke-miterlimit:10;}
	.st1{fill:none;stroke:#ECECEC;stroke-linecap:round;stroke-miterlimit:10;stroke-dasharray:4.0083,5.0104;}
	.st2{fill:#ECECEC;}
	.st3{fill:#DCDCDC;}
	.st4{fill:#002136;}
	.st5{fill:#1A2E35;}
	.st6{fill:none;}
	.st7{fill:#ED776A;stroke:#2D2929;stroke-miterlimit:10;}
	.st8{fill:#1899D4;stroke:#2D2929;stroke-miterlimit:10;}
	.st9{fill:#FFFFFF;stroke:#2D2929;stroke-miterlimit:10;}
	.st10{fill:#ECECEC;stroke:#2D2929;stroke-miterlimit:10;}
	.st11{fill:#1A2E35;stroke:#2D2929;stroke-miterlimit:10;}
	.st12{fill:#FFEE17;stroke:#2D2929;stroke-miterlimit:10;}
	.st13{fill:none;stroke:#2D2929;stroke-miterlimit:10;}
	.st14{fill:#ED776A;}
	.st15{fill:#FFEE17;}
	.st16{fill:#0099D6;}
	.st17{opacity:0.1;}
	.st18{fill:#375A64;}
</style>
<g>
	<g>
		<path class="st0" d="M-196.7,646.7c-0.5-0.4-1-0.8-1.6-1.2"/>
		<path class="st1" d="M-202.2,642.3C-219.8,628-260.4,589.7-264,534c-5.7-86.6,80.4-177.2,178.7-170C-7.5,369.7,57.5,435.3,66,512
			c7.8,70.1-34.7,121.5-48.2,136.1"/>
		<path class="st0" d="M16.1,649.9c-0.6,0.6-1,1.1-1.4,1.4"/>
	</g>
</g>
<path class="st2" d="M11.4,418.3l8.4-13.5l-4.1-2.6c-1.2-0.8-1.9-2.1-1.8-3.6c0.1-0.8,0.1-1.6,0.1-2.4c0-1.4,0.7-2.8,2-3.4l4.3-2.3
	l-7.5-14.1l-4.3,2.3c-1.3,0.7-2.8,0.6-4-0.3c-0.7-0.5-1.3-0.9-2-1.3c-1.3-0.7-2-2-2-3.4l0.2-4.9l-15.9-0.5l-0.1,4.9
	c0,1.4-0.9,2.7-2.2,3.3c-0.4,0.2-0.7,0.3-1,0.5c-0.3,0.2-0.7,0.4-1,0.6c-1.2,0.7-2.7,0.8-4,0l-4.2-2.6l-8.4,13.5l4.2,2.6
	c1.2,0.8,1.9,2.1,1.8,3.6c-0.1,0.8-0.1,1.6-0.1,2.4c0,1.4-0.7,2.8-2,3.4l-4.3,2.3l7.5,14.1l4.3-2.3c1.3-0.7,2.8-0.6,4,0.3
	c0.7,0.5,1.3,0.9,2,1.2c1.3,0.7,2,2,2,3.4l-0.2,4.9l15.9,0.5l0.2-4.9c0-1.4,0.9-2.7,2.2-3.3c0.4-0.2,0.7-0.3,1.1-0.5
	c0.3-0.2,0.7-0.4,1-0.6c1.2-0.7,2.8-0.8,4,0L11.4,418.3z M-2,408.3c-6.4,3.4-14.3,1-17.7-5.3c-3.4-6.4-1-14.3,5.3-17.7
	c6.4-3.4,14.3-1,17.7,5.3C6.7,396.9,4.3,404.9-2,408.3z"/>
<path class="st2" d="M-44,369.1l-5.6-9.7l-3,1.7c-0.9,0.5-1.9,0.5-2.8-0.1c-0.5-0.3-0.9-0.6-1.4-0.8c-0.9-0.5-1.5-1.4-1.5-2.4v-3.4
	h-11.2v3.4c0,1-0.6,1.9-1.5,2.4c-0.5,0.3-1,0.5-1.4,0.8c-0.8,0.5-1.9,0.6-2.8,0.1l-3-1.7l-5.6,9.7l3,1.7c0.9,0.5,1.4,1.5,1.3,2.5
	c0,0.3,0,0.5,0,0.8c0,0.3,0,0.5,0,0.8c0.1,1-0.4,2-1.3,2.5l-3,1.7l5.6,9.7l3-1.7c0.9-0.5,1.9-0.5,2.8,0.1c0.5,0.3,0.9,0.6,1.4,0.8
	c0.9,0.5,1.5,1.4,1.5,2.4v3.4h11.2v-3.4c0-1,0.6-1.9,1.5-2.4c0.5-0.3,1-0.5,1.4-0.8c0.8-0.6,1.9-0.6,2.8-0.1l3,1.7l5.6-9.7l-3-1.7
	c-0.9-0.5-1.3-1.5-1.3-2.5c0-0.3,0-0.5,0-0.8c0-0.3,0-0.5,0-0.8c-0.1-1,0.4-2,1.3-2.5L-44,369.1z M-54.7,374.1
	c0,5.1-4.1,9.1-9.1,9.1c-5.1,0-9.2-4.1-9.2-9.1s4.1-9.2,9.2-9.2C-58.8,364.9-54.7,369-54.7,374.1z"/>
<g>
	<g id="aiZGp2_2_">
		<g>
			<path class="st2" d="M36.9,508.8c-1.9,4.9-3,10-3.4,15.3c-0.1,0-0.1,0-0.2,0c-4.4,0-8.8,0-13.2,0c-0.1,0-0.1,0-0.2,0v-0.4
				c0-0.3,0.1-0.7,0.1-1c0.2-1.8,0.5-3.6,0.9-5.3c0.7-2.9,1.7-5.7,3-8.4c0.1-0.2,0.2-0.2,0.3-0.2c4.1,0,8.2,0,12.3,0H36.9z"/>
			<path class="st2" d="M36.5,543h-0.2c-4.1,0-8.2,0-12.2,0c-0.2,0-0.2-0.1-0.3-0.2c-1.4-3-2.5-6.1-3.1-9.4
				c-0.3-1.6-0.5-3.2-0.6-4.8c0-0.1,0-0.1,0-0.2v-0.4c0.1,0,0.1,0,0.2,0c4.4,0,8.8,0,13.1,0c0.2,0,0.2,0,0.2,0.2
				c0.1,1.1,0.2,2.2,0.3,3.3c0.2,1.7,0.5,3.4,0.8,5.1c0.5,2.1,1,4.1,1.8,6.1C36.5,542.9,36.5,542.9,36.5,543z"/>
			<path class="st2" d="M88.9,547c0,0.1-0.1,0.1-0.1,0.2c-1,1.6-2.3,3.1-3.5,4.6c-1.6,1.8-3.3,3.3-5.2,4.8c-1.9,1.4-3.8,2.6-5.9,3.7
				c-2,1-4.1,1.8-6.2,2.4c-1.7,0.5-3.4,0.9-5.2,1.1c-0.2,0-0.3,0.1-0.5,0.1H62c-0.1-0.1-0.2-0.1-0.3-0.2c0.1-0.1,0.2-0.2,0.3-0.2
				c3.8-2.6,7.1-5.8,9.8-9.5c1.5-2.1,2.9-4.3,4-6.7c0.1-0.1,0.1-0.2,0.3-0.2c4.2,0,8.4,0,12.5,0H88.9z"/>
			<path class="st2" d="M76.5,524.1H59v-15.3c0.1,0,0.1,0,0.2,0c4.5,0,9,0,13.5,0c0.2,0,0.2,0,0.3,0.2c1.3,2.9,2.2,5.9,2.8,9
				c0.3,1.6,0.5,3.2,0.7,4.9C76.4,523.2,76.4,523.7,76.5,524.1z"/>
			<path class="st2" d="M76.4,528.2c0,0.4,0,0.7-0.1,1.1c-0.1,0.9-0.1,1.7-0.3,2.6c-0.2,1.2-0.3,2.3-0.6,3.5c-0.5,2.6-1.3,5-2.3,7.5
				c-0.1,0.2-0.1,0.2-0.3,0.2c-4.6,0-9.2,0-13.8,0h-0.2v-14.8H76.4z"/>
			<path class="st2" d="M55,508.9v15.3H37.9c0-0.4,0-0.8,0.1-1.1c0.1-0.9,0.2-1.7,0.3-2.6c0.2-1.3,0.4-2.6,0.7-3.9
				c0.6-2.6,1.4-5.1,2.5-7.5c0.1-0.1,0.1-0.2,0.3-0.2c4.3,0,8.7,0,13,0H55z"/>
			<path class="st2" d="M55,528.4c0,4.8,0,9.6,0,14.4v0.2h-0.2c-4.5,0-9,0-13.4,0c-0.2,0-0.2-0.1-0.3-0.2c-1-2.5-1.8-5.1-2.3-7.7
				c-0.3-1.4-0.5-2.7-0.6-4.1c-0.1-0.9-0.1-1.8-0.2-2.7c0,0,0,0,0-0.1c0.1,0,0.1,0,0.2,0c5.6,0,11.1,0,16.7,0
				C55,528.2,55,528.2,55,528.4z"/>
			<path class="st2" d="M95,524.2H80.7c-0.3-5.3-1.4-10.4-3.3-15.4h0.2c4.4,0,8.8,0,13.1,0c0.2,0,0.2,0,0.3,0.2
				c1.5,3,2.6,6.2,3.3,9.6c0.4,1.8,0.6,3.6,0.7,5.4C95,524,95,524.1,95,524.2z"/>
			<path class="st2" d="M95,528.1c0,0.3,0,0.7,0,1c-0.1,1.3-0.2,2.6-0.5,3.9c-0.5,3-1.4,5.8-2.6,8.6c-0.2,0.4-0.4,0.9-0.6,1.3
				c0,0.1-0.1,0.1-0.2,0.1c-4.4,0-8.8,0-13.2,0c0,0-0.1,0-0.1,0c0.2-0.5,0.3-0.9,0.5-1.4c0.8-2.3,1.4-4.6,1.8-7
				c0.3-1.7,0.5-3.5,0.6-5.2c0-0.4,0.1-0.8,0.1-1.2c0-0.1,0-0.2,0.2-0.2c0,0,0.1,0,0.1,0H95z"/>
			<path class="st2" d="M88.5,504.9C88.5,504.9,88.5,504.9,88.5,504.9l-0.2,0.1c-4.2,0-8.4,0-12.5,0c-0.1,0-0.2,0-0.3-0.2
				c-1.7-3.3-3.7-6.4-6.2-9.2c-1.4-1.6-3.1-3.1-4.8-4.4c-0.9-0.7-1.7-1.3-2.6-1.9c0,0-0.1-0.1-0.1-0.1c0.1,0,0.1-0.1,0.2-0.1
				c0-0.1,0-0.2-0.1-0.3c4.5,0.5,8.7,1.8,12.7,3.8C80.2,495.5,85,499.5,88.5,504.9z"/>
			<path class="st2" d="M52.6,563.6c-0.2,0-0.3,0.1-0.4,0.1c-1.4-0.2-2.7-0.5-4.1-0.8c-2.5-0.6-5-1.5-7.3-2.7
				c-2.7-1.3-5.1-3-7.4-4.9c-1.6-1.4-3.1-2.8-4.5-4.5c-1-1.2-1.9-2.5-2.8-3.9c0,0,0-0.1-0.1-0.1h0.2c3.9,0,7.8,0,11.7,0
				c0.2,0,0.2,0.1,0.3,0.2c1.2,2.5,2.6,4.8,4.3,7c1.5,2,3.2,3.8,5,5.6c1.5,1.4,3.1,2.7,4.8,3.9C52.5,563.5,52.5,563.5,52.6,563.6z"
				/>
			<path class="st2" d="M52.4,489.1c-0.5,0.4-1.2,0.8-1.8,1.3c-2.1,1.6-3.9,3.4-5.7,5.3c-2.3,2.6-4.3,5.4-5.9,8.5
				c-0.1,0.2-0.2,0.4-0.3,0.6c0,0.1-0.1,0.1-0.2,0.1c-0.2,0-0.4,0-0.6,0H26.5c6.4-9,14.9-14.4,25.8-16c0,0,0,0.1-0.1,0.1
				C52.3,489,52.4,489.1,52.4,489.1z"/>
			<path class="st2" d="M71.2,547c-1.6,2.9-3.6,5.5-5.8,7.8c-2,2.1-4.2,4-6.6,5.6V547H71.2z"/>
			<path class="st2" d="M55,547v13.2c-5-3.5-8.9-7.9-11.9-13.2H55z"/>
			<path class="st2" d="M70.8,504.8H59v-12.5c2.5,1.6,4.7,3.5,6.7,5.6C67.6,500,69.3,502.3,70.8,504.8z"/>
			<path class="st2" d="M55,492.7v12.3H43.6C46.5,500,50.2,495.9,55,492.7z"/>
		</g>
	</g>
</g>
<g>
	<g>
		<g>
			<path class="st3" d="M-181.4,440.1c-2.3,15.5-15.6,27.4-31.8,27.4c-17.7,0-32.1-14.4-32.1-32.1c0-17.7,14.4-32.1,32.1-32.1v32.1
				L-181.4,440.1z"/>
			<path class="st2" d="M-174.5,428.9c0,1.6-0.1,3.2-0.3,4.7l-31.8-4.7v-32.1c11.9,0,22.3,6.5,27.9,16.1
				C-176,417.6-174.5,423.1-174.5,428.9z"/>
		</g>
	</g>
</g>
<g>
	<g>
		<rect x="-276.5" y="539.7" class="st2" width="8.1" height="57.4"/>
	</g>
	<g>
		<rect x="-262.6" y="553.6" class="st2" width="8.1" height="43.5"/>
	</g>
	<g>
		<rect x="-248.8" y="575.3" class="st2" width="8.1" height="21.7"/>
	</g>
	<g>
		<rect x="-234.9" y="562.9" class="st2" width="8.1" height="34.2"/>
	</g>
	<g>
		<rect x="-221.1" y="549.9" class="st2" width="8.1" height="47.2"/>
	</g>
	<g>
		<rect x="-207.2" y="542.2" class="st2" width="8.1" height="54.9"/>
	</g>
	<g>
		<path class="st2" d="M-281.2,532.4l0.1,16.2l0,16.2l0.1,32.3l-0.2-0.2c7.4,0,14.8,0,22.2,0l22.2,0l22.2,0l22.2,0.1l-22.2,0.1
			l-22.2,0l-22.2,0c-7.4,0-14.8,0-22.2,0l-0.2,0l0-0.2l0.1-32.3l0-16.2L-281.2,532.4z"/>
		<path class="st2" d="M-282.9,535.6c0.6-0.2,1.2-0.2,1.8-0.2c0.6,0,1.2,0,1.8,0.2c-0.6,0.2-1.2,0.2-1.8,0.2
			C-281.8,535.9-282.4,535.8-282.9,535.6z"/>
		<path class="st2" d="M-282.9,540.6c0.6-0.2,1.2-0.2,1.8-0.2c0.6,0,1.2,0,1.8,0.2c-0.6,0.2-1.2,0.2-1.8,0.2
			C-281.8,540.8-282.4,540.7-282.9,540.6z"/>
		<path class="st2" d="M-282.9,545.5c0.6-0.2,1.2-0.2,1.8-0.2c0.6,0,1.2,0,1.8,0.2c-0.6,0.2-1.2,0.2-1.8,0.2
			C-281.8,545.7-282.4,545.6-282.9,545.5z"/>
		<path class="st2" d="M-282.9,550.4c0.6-0.2,1.2-0.2,1.8-0.2c0.6,0,1.2,0,1.8,0.2c-0.6,0.2-1.2,0.2-1.8,0.2
			C-281.8,550.6-282.4,550.6-282.9,550.4z"/>
		<path class="st2" d="M-282.9,555.3c0.6-0.2,1.2-0.2,1.8-0.2c0.6,0,1.2,0,1.8,0.2c-0.6,0.2-1.2,0.2-1.8,0.2
			C-281.8,555.5-282.4,555.5-282.9,555.3z"/>
		<path class="st2" d="M-282.9,560.2c0.6-0.2,1.2-0.2,1.8-0.2c0.6,0,1.2,0,1.8,0.2c-0.6,0.2-1.2,0.2-1.8,0.2
			C-281.8,560.4-282.4,560.4-282.9,560.2z"/>
		<path class="st2" d="M-282.9,565.1c0.6-0.2,1.2-0.2,1.8-0.2c0.6,0,1.2,0,1.8,0.2c-0.6,0.2-1.2,0.2-1.8,0.2
			C-281.8,565.3-282.4,565.3-282.9,565.1z"/>
		<path class="st2" d="M-282.9,570c0.6-0.2,1.2-0.2,1.8-0.2c0.6,0,1.2,0,1.8,0.2c-0.6,0.2-1.2,0.2-1.8,0.2
			C-281.8,570.3-282.4,570.2-282.9,570z"/>
		<path class="st2" d="M-282.9,575c0.6-0.2,1.2-0.2,1.8-0.2c0.6,0,1.2,0,1.8,0.2c-0.6,0.2-1.2,0.2-1.8,0.2
			C-281.8,575.2-282.4,575.1-282.9,575z"/>
		<path class="st2" d="M-282.9,579.9c0.6-0.2,1.2-0.2,1.8-0.2c0.6,0,1.2,0,1.8,0.2c-0.6,0.2-1.2,0.2-1.8,0.2
			C-281.8,580.1-282.4,580.1-282.9,579.9z"/>
		<path class="st2" d="M-282.9,584.8c0.6-0.2,1.2-0.2,1.8-0.2c0.6,0,1.2,0,1.8,0.2c-0.6,0.2-1.2,0.2-1.8,0.2
			C-281.8,585-282.4,585-282.9,584.8z"/>
		<path class="st2" d="M-282.9,589.7c0.6-0.2,1.2-0.2,1.8-0.2c0.6,0,1.2,0,1.8,0.2c-0.6,0.2-1.2,0.2-1.8,0.2
			C-281.8,589.9-282.4,589.9-282.9,589.7z"/>
	</g>
</g>
<g>
	<g>
		<g>
			<g>
				<g>
					<g>
						<path class="st4" d="M-95.2,594.3c-0.4,0.5-0.8,1.1-1.2,1.6c-0.1,0.1-0.3,0-0.2-0.1c0.2-0.5,0.4-1,0.7-1.5H-95.2z"/>
						<path class="st4" d="M-73.5,607.5c-0.1,0.4-0.1,0.7-0.2,1.1c0,0,0,0,0,0.1c0,0,0,0,0,0s0,0,0,0c-0.1,0.3-0.1,0.6-0.2,0.9
							c-0.1,0.3-0.1,0.7-0.2,1c0,0,0,0,0,0c-0.1,0.2-0.1,0.4-0.1,0.6c0,0,0,0,0,0v0c-0.3,1.7-0.6,3.5-1,5.3
							c-0.1,0.6-0.2,1.3-0.3,1.9c-0.2,1.3-0.5,2.6-0.7,3.9c-0.1,0.3-0.1,0.6-0.2,0.9c-0.3,1.4-0.5,2.8-0.8,4.2
							c-0.1,0.6-0.2,1.2-0.3,1.8c0,0.2-0.1,0.4-0.1,0.6c-0.2,1-0.4,2-0.5,3c0,0.1,0,0.2-0.1,0.2c-0.1,0.5-0.2,1-0.3,1.4
							c-0.4,1.9-0.7,3.9-1.1,5.9c-0.1,0.5-0.2,1-0.3,1.5c-0.2,1-0.4,2-0.6,3.1c-0.2,1.3-0.5,2.6-0.7,3.9c-0.2,1.2-0.4,2.4-0.7,3.6
							h-67.8c3.2-13.3,6.2-25.5,8.6-35.2c4.3-0.5,9.2-1.5,14.5-2.7c1.1-0.2,2.2-0.5,3.2-0.8c0.5-0.1,1-0.3,1.6-0.4
							c0.2,0,0.3-0.1,0.5-0.1c2.1-0.5,4.3-1.1,6.4-1.6c0.4-0.1,0.7-0.2,1.1-0.3c9.6-2.6,19.2-5.4,26.4-7.7c-1.7-0.6-3.5-1.3-5.2-1.9
							c-0.3-0.1-0.6-0.2-0.9-0.3c-1-0.4-2.1-0.8-3.2-1.2c-5.3-1.9-11.8-4.3-11.7-4.5c0.3-0.5,0.5-1,0.8-1.5h1.2
							c-0.2,0.3-0.4,0.7-0.6,1c3.8,1.5,7.6,3,11.5,4.5c1.6,0.6,3.2,1.2,4.8,1.7c1.6,0.6,3.2,1.2,4.8,1.7c1.1,0.4,2.2,0.8,3.3,1.2
							c0.1,0,0.2,0.1,0.3,0.1c0.5,0.2,1,0.4,1.5,0.5c1.5,0.5,3,1,4.4,1.5c0.4,0.2,0.9,0.3,1.3,0.5c0.1,0,0.1,0,0.2,0.1
							C-74.1,607.3-73.8,607.4-73.5,607.5C-73.5,607.5-73.5,607.5-73.5,607.5z"/>
						<g>
							<path class="st4" d="M-81.9,604.5C-81.9,604.6-81.9,604.6-81.9,604.5c-0.1,0.4-0.1,0.8-0.2,1.1c-2.9,15.6-5.8,31.3-8.8,47
								h-0.9c3.1-15.7,6.3-31.4,9.4-47.1c0.1-0.3,0.1-0.7,0.2-1c0,0,0-0.1,0-0.1C-82,604.5-82,604.5-81.9,604.5z"/>
						</g>
					</g>
					<path class="st5" d="M-95.2,594.3c-0.4,0.5-0.8,1.1-1.2,1.6c-0.1,0.1-0.3,0-0.2-0.1c0.2-0.5,0.4-1,0.7-1.5H-95.2z"/>
					<path class="st5" d="M-73.5,607.5c-0.1,0.3-0.1,0.7-0.2,1.1c0,0,0,0,0,0.1v0c0,0,0,0,0,0c-0.1,0.3-0.1,0.6-0.2,0.9
						c-0.1,0.3-0.1,0.7-0.2,1c0,0,0,0,0,0c-0.1,0.2-0.1,0.4-0.1,0.6c0,0,0,0,0,0v0c-0.3,1.7-0.6,3.5-1,5.3c-0.1,0.6-0.2,1.3-0.3,1.9
						c-0.2,1.3-0.5,2.6-0.7,3.9c-0.1,0.3-0.1,0.6-0.2,0.9c-0.3,1.4-0.5,2.8-0.8,4.2c-0.1,0.6-0.2,1.2-0.3,1.8c0,0.2-0.1,0.4-0.1,0.6
						c-0.2,1-0.4,2-0.5,3c0,0.1,0,0.2-0.1,0.2c-0.1,0.5-0.2,1-0.3,1.4c-0.4,1.9-0.7,3.9-1.1,5.9c-0.1,0.5-0.2,1-0.3,1.5
						c-0.2,1-0.4,2-0.6,3.1c-0.2,1.3-0.5,2.6-0.7,3.9c-0.2,1.2-0.4,2.4-0.7,3.6h-35.5l-2.3-23.2v0l-0.1-1l-0.1-1.1v0l-0.5-5.5v0
						l-0.5-4.7c0,0,0,0,0-0.1l-0.4-3.6c2.1-0.5,4.3-1.1,6.4-1.6c0.4-0.1,0.7-0.2,1.1-0.3c9.6-2.6,19.2-5.4,26.4-7.7
						c-1.7-0.6-3.5-1.3-5.2-1.9c-0.3-0.1-0.6-0.2-0.9-0.3c-1-0.4-2.1-0.8-3.2-1.2c-5.3-1.9-11.8-4.3-11.7-4.5c0.3-0.5,0.5-1,0.8-1.5
						h1.2c-0.2,0.3-0.4,0.7-0.6,1c3.8,1.5,7.6,3,11.5,4.5c1.6,0.6,3.2,1.2,4.8,1.7c1.6,0.6,3.2,1.2,4.8,1.7c1.1,0.4,2.2,0.8,3.3,1.2
						c0.1,0,0.2,0.1,0.3,0.1c0.5,0.2,1,0.4,1.5,0.5c1.5,0.5,3,1,4.4,1.5c0.4,0.2,0.9,0.3,1.3,0.5c0.1,0,0.1,0,0.2,0.1
						C-74.1,607.3-73.8,607.4-73.5,607.5z"/>
				</g>
				<g>
					<g>
						<path class="st4" d="M-95.2,594.3c-0.4,0.5-0.8,1.1-1.2,1.6c-0.1,0.1-0.3,0-0.2-0.1c0.2-0.5,0.4-1,0.7-1.5H-95.2z"/>
						<path class="st4" d="M-31.8,652.6H-106c-0.1-5.1-0.2-10-0.3-14.7v0c0-0.2,0-0.3,0-0.5c0,0-8.6-5.1-13.2-9.1
							c-0.9-0.8-1.7-1.5-2.2-2.1c0,0,0,0,0,0l0,0c-1.4-1.8-2.8-6.1-4.6-11.5c1.1-0.2,2.2-0.5,3.2-0.8c0.5-0.1,1-0.3,1.6-0.4
							c0.2,0,0.3-0.1,0.5-0.1c2.1-0.5,4.3-1.1,6.4-1.6c0.4-0.1,0.7-0.2,1.1-0.3c9.6-2.6,19.2-5.4,26.4-7.7c-1.7-0.6-3.5-1.3-5.2-1.9
							c-0.3-0.1-0.6-0.2-0.9-0.3c-1-0.4-2.1-0.8-3.2-1.2c-5.3-1.9-11.8-4.3-11.7-4.5c0.3-0.5,0.5-1,0.8-1.5h1.2
							c-0.2,0.3-0.4,0.7-0.6,1c3.8,1.5,7.6,3,11.5,4.5c1.6,0.6,3.2,1.2,4.8,1.7c1.6,0.6,3.2,1.2,4.8,1.7c1.1,0.4,2.2,0.8,3.3,1.2
							c0.1,0,0.2,0.1,0.3,0.1c0.5,0.2,1,0.4,1.5,0.5c1.5,0.5,3,1,4.4,1.5c0.4,0.2,0.9,0.3,1.3,0.5c0.1,0,0.1,0,0.2,0.1
							c0.3,0.1,0.6,0.2,0.9,0.3c0,0,0,0,0,0c0.2,0.1,0.3,0.1,0.5,0.2c3.7,1.2,7.4,2.5,11,3.6c0.1,0,0.2,0,0.3,0.1
							c2.8,0.9,5.5,1.7,8.3,2.5c5.1,1.5,10.2,3.1,15.3,4.4c0.1,0,0.2,0.1,0.2,0.1c1.7,0.4,3.1,0.7,4.3,0.9
							C-31.1,633.3-30.9,644.5-31.8,652.6z"/>
						<g>
							<g>
								<path class="st5" d="M-123.8,625.3c4.4,1.8,8.3,4.5,12.2,7.2c4,2.8,7.7,5.9,11.6,8.9c0.1,0.1,0,0.4-0.2,0.3
									c-4.1-2.6-8.4-4.9-12.4-7.6c-3.9-2.6-8-5.2-11.4-8.4C-124.2,625.5-124,625.2-123.8,625.3z"/>
								<path class="st5" d="M-110.1,633.6c0,0.2,0,0.4-0.1,0.6c0,0.2-0.3,0.2-0.4,0c0,0,0,0,0,0c-0.2-0.4-0.4-0.9-0.5-1.3v0
									c-0.1-0.4-0.2-0.7-0.2-1.1c-0.2-0.8-0.4-1.6-0.5-2.4c0-0.3-0.1-0.6-0.1-0.9c-1.1-0.7-2.1-1.5-3.1-2.3
									c-1.1-0.8-2.2-1.6-3.3-2.5c-0.7-0.6-1.3-1.3-1.9-2v0c-1-1.3-1.6-2.7-2.1-4.3c-0.3-1.2-0.6-2.4-0.8-3.6
									c0.5-0.1,1-0.3,1.6-0.4c0.2,0.9,0.4,1.8,0.6,2.7c0.1,0.3,0.1,0.5,0.2,0.8c0,0,0,0,0,0.1c0.7,2.2,1.7,4.1,3.4,5.7
									c1,0.9,2.2,1.8,3.2,2.7c0.6,0.5,1.2,0.9,1.8,1.4c-0.1-0.4-0.1-0.7-0.2-1.1c-0.2-1.1-0.4-2.1-0.5-3.2
									c-0.4-2.4-0.8-4.7-1.1-7.1c-0.2-1.2-0.4-2.4-0.6-3.7c0.4-0.1,0.7-0.2,1.1-0.3c0.3,1.2,0.6,2.4,0.8,3.6
									c0.5,2.3,2.3,13.4,2.3,14.2c0.1,0.8,0.1,1.6,0.2,2.4C-110.1,632.3-110,633-110.1,633.6z"/>
							</g>
							<path class="st5" d="M-49.5,620.1c-1,1-8.2,1.2-10.1,1.1c-3.2-0.2-6.9-0.6-9.5-2.6c-2.4-1.8-3.9-4.7-5.1-7.4
								c0-0.1-0.1-0.2-0.1-0.3c-0.4-1-0.8-2-1.2-3c-0.2-0.4-0.3-0.8-0.4-1.3l0,0c0,0,0,0,0,0c0.4,0.2,0.9,0.3,1.3,0.5
								c0.1,0,0.1,0,0.2,0.1c0.2,0.5,0.5,0.9,0.7,1.4c0,0,0,0,0.1,0.1v0c0,0,0,0,0,0c0,0,0,0,0,0c0,0,0,0,0,0
								c0.2,0.4,0.4,0.7,0.6,1.1c1.3,2.4,2.9,5.3,5.1,7c1.3,1.1,2.9,1.5,4.5,1.8c8.3,1.4,12.8,0.3,14,1
								C-49.4,619.6-49.3,619.9-49.5,620.1z"/>
						</g>
					</g>
				</g>
			</g>
			<g>
				<g>
					<g>
						<g>
							<g>
								<path class="st6" d="M-56.1,559.5c-0.1-0.3-0.2-0.5-0.3-0.8 M-62.8,541.3c-0.1-0.3-0.2-0.6-0.3-0.9 M-93.2,601.6h2.4h0.5
									 M-127.5,556.1C-127.6,556.1-127.6,556.1-127.5,556.1l0.2,0c0,0,0,0,0,0L-127.5,556.1z M-77.3,562.4
									c-1.5,2.1-2.8,4.3-4.1,6.6c-0.3,0.6-0.7,1.2-1,1.9c-1.3,2.3-2.6,4.6-4,6.8v0c-0.3,0.5-0.5,0.9-0.8,1.4c-1.2,2-2.3,4-3.5,6
									c-0.2,0.4-0.5,0.8-0.7,1.2c-0.2,0.4-0.5,0.8-0.7,1.2c-0.4,0.7-0.8,1.4-1.2,2c-0.9,1.6-1.8,3.2-2.6,4.8
									c-0.2,0.5-0.5,1-0.7,1.5c-0.1,0.1,0.1,0.2,0.2,0.1c0.4-0.5,0.8-1,1.2-1.6c1-1.4,1.9-2.8,2.8-4.2c0.5-0.8,1-1.6,1.5-2.4
									c0,0,0-0.1,0.1-0.1c0.2-0.4,0.5-0.8,0.7-1.2c1.4-2.3,2.7-4.6,4-6.9c0.1-0.2,0.2-0.4,0.3-0.5c1.5-2.7,3-5.3,4.4-8
									c0.2-0.4,0.5-0.8,0.7-1.3C-79.4,567.3-78.2,564.9-77.3,562.4C-77.2,562.4-77.3,562.3-77.3,562.4z M-76.6,485.7
									c0.2-0.5,0.4-0.8,0.5-1.1c-0.2-0.3-0.4-0.5-0.6-0.7c-0.3-0.4-0.7-0.7-1-1c-1.1-1-2.4-1.8-3.8-2.4c-0.4-0.2-0.9-0.4-1.3-0.5
									l-15.8,19.6l-6.5-12.4l-0.4-0.8c0-0.1,0-0.2,0-0.3c0.3-0.1,0.6-0.1,0.9-0.2c7.1-1.5,11.8-4.1,15.1-7.2c-1.5-0.1-3-0.1-4.5,0
									c0,0,0,0,0,0c-2.3,0.8-4.6,1.2-6.9,1.3c0,0,0,0,0,0c0,0,0,0,0,0c0,0,0,0,0,0c-1.3,0.5-2.3,1-2.7,1.6
									c-0.3,0.4-0.6,0.8-0.8,1.3c-0.4,0.7-0.9,1.4-1.3,2.1c-0.1,0.2-0.2,0.3-0.3,0.5c-0.1,0.1-0.1,0.2-0.2,0.3l0,0
									c-0.7,1.3-1.5,2.7-2.2,4.2c0,0,0,0,0,0.1c-0.1,0.1-0.1,0.3-0.2,0.4c0,1.5,0,3,0.1,4.5c0,0.3,0,0.5,0,0.8
									c0.1,1.9,0.2,3.8,0.2,5.6c0.1,3.8,0.4,8.6,1,12.3c0.1,0.6,7.3-8.8,8.4-10.5c0.9,2.1,7.6,13.1,7.8,13.1
									c0.1,0,1.2-2.1,2.7-5.2c0.3-0.5,0.5-1.1,0.8-1.6v0c2.4-4.8,5.6-11.3,8-16.4c1.5-3.1,2.6-5.7,3.1-7
									C-76.4,485.8-76.5,485.7-76.6,485.7z M-127.5,556.1C-127.6,556.1-127.6,556.1-127.5,556.1l0.2,0c0,0,0,0,0,0L-127.5,556.1z
									 M-77.3,562.4c-1.5,2.1-2.8,4.3-4.1,6.6c-0.3,0.6-0.7,1.2-1,1.9c-1.3,2.3-2.6,4.6-4,6.8v0c-0.3,0.5-0.5,0.9-0.8,1.4
									c-1.2,2-2.3,4-3.5,6c-0.2,0.4-0.5,0.8-0.7,1.2c-0.2,0.4-0.5,0.8-0.7,1.2c-0.4,0.7-0.8,1.4-1.2,2c-0.9,1.6-1.8,3.2-2.6,4.8
									c-0.2,0.5-0.5,1-0.7,1.5c-0.1,0.1,0.1,0.2,0.2,0.1c0.4-0.5,0.8-1,1.2-1.6c1-1.4,1.9-2.8,2.8-4.2c0.5-0.8,1-1.6,1.5-2.4
									c0,0,0-0.1,0.1-0.1c0.2-0.4,0.5-0.8,0.7-1.2c1.4-2.3,2.7-4.6,4-6.9c0.1-0.2,0.2-0.4,0.3-0.5c1.5-2.7,3-5.3,4.4-8
									c0.2-0.4,0.5-0.8,0.7-1.3C-79.4,567.3-78.2,564.9-77.3,562.4C-77.2,562.4-77.3,562.3-77.3,562.4z M-127.5,556.1
									C-127.6,556.1-127.6,556.1-127.5,556.1l0.2,0c0,0,0,0,0,0L-127.5,556.1z"/>
							</g>
						</g>
						<g>
							<path class="st7" d="M-81.4,569c-0.3,0.6-0.7,1.2-1,1.9c-1.3,2.3-2.6,4.6-4,6.8v0c-0.3,0.5-0.5,0.9-0.8,1.4
								c-1.2,2-2.3,4-3.5,6c-0.2,0.4-0.5,0.8-0.7,1.2c-0.2,0.4-0.5,0.8-0.7,1.2c-0.4,0.7-0.8,1.4-1.2,2c-0.9,1.6-1.8,3.2-2.6,4.8
								c-0.2,0.5-0.5,1-0.7,1.5c-0.1,0.1,0.1,0.2,0.2,0.1c0.4-0.5,0.8-1,1.2-1.6c1-1.4,1.9-2.8,2.8-4.2c0.5-0.8,1-1.6,1.5-2.4
								c0,0,0-0.1,0.1-0.1c0.2-0.4,0.5-0.8,0.7-1.2c1.4-2.3,2.7-4.6,4-6.9c0.1-0.2,0.2-0.4,0.3-0.5c1.5-2.7,3-5.3,4.4-8
								c0.2-0.4,0.5-0.8,0.7-1.3C-80.9,569.4-81.2,569.2-81.4,569z M-105.8,484.8c-0.1-0.1-0.2-0.2-0.3-0.3c0,0,0,0,0,0
								c0,0.2,0,0.3-0.1,0.5l-0.1-0.1l-2.3,4.7l0,0.1c-0.1,0-0.2,0-0.2,0.1v0.4c0,1.5,0,3,0.1,4.5c0.1-0.3,0.3-0.7,0.4-1
								c0.1-0.3,0.3-0.6,0.4-0.9c0.6-1.4,1.1-2.7,1.4-3.6c0.1-0.2,0.1-0.4,0.2-0.6c0.4-1,0.6-1.8,0.7-2.5c0-0.1,0-0.2,0-0.3
								C-105.5,485.4-105.6,485-105.8,484.8z M-106.6,595.4c0.2-0.3,0.4-0.7,0.6-1c1.2-2.2,2.4-4.4,3.6-6.6c0,0,0,0,0-0.1
								c0-0.1,0.1-0.1,0.1-0.2l1.3-2.2c0,0,0,0,0,0c0,0,0,0,0,0c0.1-0.1-0.1-0.3-0.2-0.1c0,0,0,0,0,0.1c-1.8,3-4.2,6.1-6,9.2
								c-0.3,0.5-0.6,1-0.8,1.5c-0.1,0.2,6.4,2.6,11.7,4.5c0.3-0.1,0.7-0.3,1-0.4h0c0.1-0.1,0.2-0.1,0.3-0.1
								C-99,598.4-102.8,596.9-106.6,595.4z M-131.4,567.3c-2.8,0-5,0.2-7.2,0.8c-1.3,0.3-2.6,0.8-4.1,1.4h0c-0.1,0-0.1,0.1,0,0.1
								c0,0,0,0.1,0.1,0.1c1.3-0.3,2.5-0.6,3.8-0.9c2.4-0.5,4.7-0.9,7.5-1.1C-131.2,567.5-131.2,567.3-131.4,567.3z M-145.7,577.1
								C-145.7,577.1-145.7,577.1-145.7,577.1C-145.7,577.1-145.7,577.1-145.7,577.1c-1.9,1.2-3.8,2.4-5.5,3.8
								c-0.1,0.1,0,0.2,0.1,0.1c3-1.6,5.9-3.2,8.9-4.7C-143.9,576.8-145.1,577.1-145.7,577.1z M-122.1,529.1
								c-3.4,7.9-9.4,22.3-14,33c0.4-0.1,0.7-0.1,0.7-0.1s0,0,0-0.1c0,0,0,0.1,0,0c1.9-0.3,3.5-0.6,5.2-0.8c0-0.1,0-0.3,0-0.4
								c-1.8,0.2-3.4,0.6-5.2,1.1c0,0,0,0,0,0c0.1-0.5,0.8-2.3,2.4-3.6c1.2-1,2.3-1.5,3.2-1.8c0.4-3.5,1.2-7.5,2.6-12
								c1.3-4.1,2.8-8.6,4.5-13.1c0.7-1.9,1.3-3.7,2-5.6C-121,526.6-121.5,527.8-122.1,529.1z"/>
							<g>
								<path class="st8" d="M-51.9,569.5c-2.2-1.1-4.4-2.1-6.7-3.1c-5.9-2.5-16.6-6.4-22.5-7.9c0,0,0,0,0,0c0,0,0,0,0,0
									c-0.4-0.2-0.9-0.3-1.3-0.5c-1.9-0.6-3.9-1.2-5.8-1.6c-1.8-0.5-3.7-1-5.6-1.3c0,0-0.1,0-0.1,0c-0.3-0.1-0.7-0.2-1-0.3
									c-7.6-1.9-23.3-4.7-29-2.2c-2.9,1.3-3.3,3-3.4,3.4l-0.2,0c0,0,0,0,0,0h0.2c0,0,0,0,0,0s-0.2,0-0.5,0
									c2.1-10.4,5.1-24.1,7.5-30.7c0.2-0.6,0.5-1.3,0.7-1.9c0,0,0-0.1,0-0.1s0,0,0,0c0,0-0.4,0.8-1,2.3c0,0,0,0,0,0.1
									c-0.4,0.9-0.9,2.1-1.5,3.4c-3.4,7.9-9.4,22.3-14,33c-1,0.2-2.7,0.8-3.8,2c-1.6,1.8-2.5,4.5-2.8,5.3h0c-0.1,0-0.1,0.1,0,0.1
									c0,0,0,0.1,0,0.1c-4,1.1-3,7.6-3,7.6c-1.9,1.2-3.8,2.4-5.5,3.8c-0.1,0.1,0,0.2,0.1,0.1c3-1.6,5.9-3.2,8.9-4.7
									c2.9-0.9,7-2.4,10.6-3.5c3.7-1.1,6.9-1.7,7.9-0.7c14.3,13.5,19.4,11.7,22.6,13c-1.8,3-4.2,6.1-6,9.2c-0.3,0.5-0.6,1-0.8,1.5
									c-0.1,0.2,6.4,2.6,11.7,4.5c1.2,0.4,2.3,0.8,3.2,1.2c0.3,0.1,0.6,0.2,0.9,0.3c1.7,0.6,3.4,1.3,5.2,1.9
									c-7.2,2.3-16.8,5.1-26.4,7.7c-0.4,0.1-0.8,0.2-1.1,0.3c-2.1,0.6-4.3,1.1-6.4,1.6c-0.2,0-0.3,0.1-0.5,0.1
									c-0.5,0.1-1,0.3-1.6,0.4c-1.1,0.3-2.2,0.5-3.2,0.8c-5.3,1.2-10.3,2.2-14.5,2.7c-2.9,0.4-5.5,0.6-7.6,0.5
									c-17.1-0.6-29.1-17-29.8-31.5c-1.1-23.9,42.5-78.5,52.6-89.1c8.5-9,14.3-12.7,19.6-14.2c0,0.1,0,0.3,0,0.4v0.1
									c0,0.3,0,0.5,0,0.8v0c0,0,0,0,0,0c0,0.2,0,0.3-0.1,0.5l-0.1-0.1l-2.3,4.7l0,0.1c-0.1,0-0.2,0-0.2,0.1v0.4c0,1.5,0,3,0.1,4.5
									c0,0.3,0,0.5,0,0.8c0.1,1.9,0.2,3.8,0.2,5.6c0.1,3.8,0.4,8.6,1,12.3c0.1,0.6,7.3-8.8,8.4-10.5c0.9,2.1,7.6,13.1,7.8,13.1
									c0.1,0,1.2-2.1,2.7-5.2l6.6,7l-3,5.8l-6,2.6l-7.8-8.2c-1.8,4.8-0.8,10.3,2.9,14.3c3.7,3.9,9.2,5.2,14,3.7l2.8,3
									c-9.3,5.6-16.8,14.3-16.8,14.3c11.7,3,25.2,7.9,31.2,10.3c0.2,0.1,0.3,0.1,0.4,0.2c5.3,2.1,8.6,3.6,9.4,3.8
									c0.1,0,0.1-0.1,0.2-0.1v0c0.4-0.3,0.8-0.5,1.2-0.7C-52.7,567.7-52.3,568.6-51.9,569.5z"/>
								<path class="st9" d="M-66.3,534.3c-3.5,0.8-6.9,1.9-9.2,3.1c-1.1,0.5-2.1,1.1-3.2,1.7l-2.8-3c-4.8,1.5-10.3,0.2-14-3.7
									c-3.7-4-4.7-9.5-2.9-14.3l7.8,8.2l6-2.6l3-5.8l-6.6-7c0.3-0.5,0.5-1.1,0.8-1.6v0c4.3-0.6,8.9,0.8,12.1,4.2
									c3.7,3.9,4.7,9.5,2.9,14.2L-66.3,534.3z"/>
								<path class="st9" d="M-62.8,541.3c-0.3,0.1-0.6,0.2-0.8,0.3c-0.3,0.1-0.5,0.2-0.8,0.3c-0.7,0.3-1.4,0.6-2,0.9
									c-0.7,0.3-1.4,0.7-2.1,1.1c-0.1,0.1-0.2,0.1-0.3,0.2c-0.3,0.2-0.7,0.4-1,0.6c-0.3,0.2-0.6,0.3-0.9,0.5
									c-0.2,0.1-0.5,0.3-0.7,0.4c-0.2,0.2-0.5,0.3-0.7,0.5c-1.7,1.1-3.4,2.4-5.3,4c-0.2,0.1-0.4-0.1-0.3-0.3
									c1.7-1.7,3.3-3.1,5-4.3c0.8-0.6,1.7-1.2,2.5-1.8c0.3-0.2,0.5-0.3,0.8-0.5c0.8-0.5,1.7-0.9,2.5-1.3c0.3-0.2,0.7-0.3,1-0.5
									c0.1,0,0.2-0.1,0.3-0.1c0.4-0.2,0.7-0.3,1.1-0.5c0.2-0.1,0.3-0.1,0.5-0.2c0.2-0.1,0.5-0.2,0.7-0.3
									C-63,540.7-62.9,541-62.8,541.3z"/>
								<path class="st9" d="M-59.4,550.7c-0.1,0-0.1,0-0.2,0.1c-0.4,0.2-0.8,0.3-1.3,0.5c-0.5,0.2-1,0.4-1.5,0.7
									c-0.5,0.2-1,0.5-1.4,0.7c-0.5,0.2-1,0.5-1.5,0.8c-2.2,1.2-4.4,2.5-7.1,4.2c-0.1,0.1-0.3-0.1-0.1-0.2
									c2.4-1.8,4.6-3.3,6.7-4.6c0.5-0.3,1-0.6,1.5-0.9c0.4-0.2,0.8-0.5,1.2-0.7c0.3-0.2,0.6-0.3,1-0.5c0.6-0.3,1.2-0.5,1.8-0.8
									c0.2-0.1,0.5-0.2,0.7-0.3C-59.6,550-59.5,550.3-59.4,550.7C-59.4,550.6-59.4,550.7-59.4,550.7z"/>
								<path class="st9" d="M-56.1,559.5c-0.8,0.4-1.6,0.7-2.3,1.1c-2.5,1.3-4.5,2.4-5.5,3.2c-0.1,0-0.3-0.1-0.4-0.2
									c1-0.9,2.8-2.3,5.3-3.6c0.6-0.3,1.2-0.7,1.9-1c0.2-0.1,0.4-0.2,0.7-0.3C-56.3,559-56.2,559.3-56.1,559.5z"/>
								<path class="st10" d="M-104.6,485.7c0.9-2,1.4-3.3,1.4-3.3c-0.4,0.1-0.8,0.1-1.3,0.2c-0.5,0.1-1,0.2-1.6,0.4
									c0,0.1,0,0.3,0,0.4v0.1c0,0.3,0,0.5,0,0.8v0c0,0,0,0,0,0c0,0.2,0,0.3-0.1,0.5l-0.1-0.1l-2.3,4.7l0,0.1c-0.1,0-0.2,0-0.2,0.1
									v0.4c0,1.5,0,3,0.1,4.5c0,0.3,0,0.5,0,0.8c0.1-0.3,0.3-0.7,0.4-1c0.1-0.3,0.3-0.7,0.4-1c0.5-1.2,1-2.3,1.4-3.4
									c0.5-1.2,0.9-2.2,1.3-3.2l-0.4-0.8c0-0.1,0-0.2,0-0.3C-105.2,485.9-104.9,485.8-104.6,485.7z M-86.4,577.7
									c-0.3,0.5-0.5,0.9-0.8,1.4c-1.2,2-2.3,4-3.5,6c-0.2,0.4-0.5,0.8-0.7,1.2c-0.2,0.4-0.5,0.8-0.7,1.2c-0.4,0.7-0.8,1.4-1.2,2
									c-0.9,1.6-1.8,3.2-2.6,4.8c-0.2,0.5-0.5,1-0.7,1.5c-0.1,0.1,0.1,0.2,0.2,0.1c0.4-0.5,0.8-1,1.2-1.6c1-1.4,1.9-2.8,2.8-4.2
									c0.5-0.8,1-1.6,1.5-2.4c0,0,0-0.1,0.1-0.1c0.2-0.4,0.5-0.8,0.7-1.2c1.4-2.3,2.7-4.6,4-6.9c0.1-0.2,0.2-0.4,0.3-0.5
									L-86.4,577.7z M-90.3,601.6c-1.6-0.6-3.2-1.2-4.8-1.7c-3.9-1.4-7.7-2.9-11.5-4.5c0.2-0.3,0.4-0.7,0.6-1
									c1.2-2.2,2.4-4.4,3.6-6.6c0,0,0,0,0-0.1c0-0.1,0.1-0.1,0.1-0.2l1.3-2.2c0,0,0,0,0,0c0,0,0,0,0,0c0.1-0.1-0.1-0.3-0.2-0.1
									c0,0,0,0,0,0.1c-1.8,3-4.2,6.1-6,9.2c-0.3,0.5-0.6,1-0.8,1.5c-0.1,0.2,6.4,2.6,11.7,4.5c1.2,0.4,2.3,0.8,3.2,1.2
									c0.3,0.1,0.6,0.2,0.9,0.3c1.7,0.6,3.4,1.3,5.2,1.9c0.5-0.2,1-0.3,1.5-0.5c0.1,0,0.1,0,0.2-0.1
									C-87.1,602.7-88.7,602.1-90.3,601.6z M-131.4,567.3c-2.8,0-5,0.2-7.2,0.8c-0.1,0.2-0.2,0.4-0.3,0.6c2.4-0.5,4.7-0.9,7.5-1.1
									C-131.2,567.5-131.2,567.3-131.4,567.3z M-120.6,525.7C-120.6,525.7-120.6,525.7-120.6,525.7c-0.4,1-0.9,2.1-1.5,3.5
									c-3.4,7.9-9.4,22.3-14,33c0.4-0.1,0.7-0.1,0.7-0.1s0,0,0-0.1c0,0,0,0.1,0,0c1.9-0.3,3.5-0.6,5.2-0.8c0.4,0,0.8-0.1,1.3-0.1
									c0-0.1,0.1-0.3,0.1-0.4c-0.5,0-0.9,0.1-1.3,0.1c-1.8,0.2-3.4,0.6-5.2,1.1c0,0,0,0,0,0c0.1-0.5,0.8-2.3,2.4-3.6
									c1.2-1,2.3-1.5,3.2-1.8c0.5-0.1,0.9-0.2,1.3-0.3c0.2,0,0.4-0.1,0.6-0.1c2.1-10.4,5.1-24.1,7.5-30.7c0.2-0.6,0.5-1.3,0.7-1.9
									c0,0,0-0.1,0-0.1s0,0,0,0C-119.6,523.4-120,524.2-120.6,525.7z"/>
								<g>
									<path class="st11" d="M-90.1,586.3c-0.2,0.4-0.5,0.8-0.7,1.2c-0.2-0.4-0.4-0.8-0.6-1.2c0.2-0.4,0.5-0.8,0.7-1.2
										C-90.5,585.5-90.3,585.9-90.1,586.3z"/>
									<path class="st11" d="M-131.3,567.5c-2.8,0.3-5.1,0.6-7.5,1.1c0.1-0.2,0.2-0.4,0.3-0.6c2.3-0.6,4.5-0.8,7.2-0.8
										C-131.2,567.3-131.2,567.5-131.3,567.5z"/>
									<path class="st11" d="M-119.6,523.4C-119.6,523.4-119.6,523.4-119.6,523.4c0,0.1,0,0.1,0,0.1c-0.2,0.7-0.5,1.3-0.7,1.9
										c-2.4,6.6-5.4,20.2-7.5,30.7c-0.2,0-0.4,0-0.6,0.1c-0.3,0-0.8,0.1-1.3,0.3c-0.9,0.3-2.1,0.8-3.2,1.8
										c-1.6,1.3-2.3,3.2-2.4,3.6c0,0,0,0,0,0c1.8-0.5,3.5-0.9,5.2-1.1c0.4-0.1,0.9-0.1,1.3-0.1c0,0.2,0,0.3-0.1,0.4
										c-0.4,0-0.8,0.1-1.3,0.1c-1.7,0.2-3.3,0.5-5.2,0.8c0,0,0,0,0,0c0,0.1,0,0.1,0,0.1s-0.3,0-0.7,0.1c4.5-10.8,10.6-25.1,14-33
										c0.6-1.4,1.1-2.5,1.5-3.4c0,0,0,0,0-0.1C-120,524.2-119.6,523.4-119.6,523.4z"/>
									<path class="st11" d="M-142.3,576.3c-3,1.5-5.9,3.2-8.9,4.7c-0.1,0-0.2-0.1-0.1-0.1c1.8-1.3,3.6-2.6,5.5-3.8c0,0,0,0,0,0
										c0,0,0,0,0,0C-145.1,577.1-143.9,576.8-142.3,576.3z"/>
								</g>
							</g>
						</g>
						<g>
							<g>
								<path class="st7" d="M-77.3,562.4c-1.5,2.1-2.8,4.3-4.1,6.6c-0.3,0.6-0.7,1.2-1,1.9c-1.3,2.3-2.6,4.6-4,6.8v0
									c-0.3,0.5-0.5,0.9-0.8,1.4c-1.2,2-2.3,4-3.5,6c-0.2,0.4-0.5,0.8-0.7,1.2c-0.2,0.4-0.5,0.8-0.7,1.2c-0.4,0.7-0.8,1.4-1.2,2
									c0.3,0.2,0.6,0.4,1,0.5c0.5-0.8,1-1.6,1.5-2.4c0,0,0-0.1,0.1-0.1c0.2-0.4,0.5-0.8,0.7-1.2c1.4-2.3,2.7-4.6,4-6.9
									c0.1-0.2,0.2-0.4,0.3-0.5c1.5-2.7,3-5.3,4.4-8c0.2-0.4,0.5-0.8,0.7-1.3C-79.4,567.3-78.2,564.9-77.3,562.4
									C-77.2,562.4-77.3,562.3-77.3,562.4z M-71.2,562.5C-71.2,562.5-71.2,562.5-71.2,562.5c-2.2-0.8-4.5-1.7-7-2.5c0,0,0,0,0,0
									c-2.1-0.7-4.3-1.5-6.5-2.2c0,0,0,0-0.1,0c0,0,0,0,0,0c-3-1-6.1-1.9-9.2-2.7c-0.1,0-0.1,0.2,0,0.2c1.9,0.7,3.9,1.2,5.8,1.8
									c1.1,0.4,2.2,0.7,3.3,1.1c0.8,0.3,1.5,0.5,2.3,0.7c3.8,1.2,7.6,2.4,11.3,3.7C-71.2,562.7-71.2,562.6-71.2,562.5z
									 M-101.2,585.1C-101.2,585.1-101.2,585.1-101.2,585.1c0,0.1,0.1,0.1,0.2,0.2c0,0,0,0,0,0
									C-100.9,585.1-101.1,584.9-101.2,585.1z M-114.3,556.3c-2.2-0.4-4.5-0.7-6.7-0.8c-2.2,0-4.2,0.2-6.3,0.5c0,0,0,0,0,0
									c2.1,0,4.3,0,6.5,0.1c2.2,0.1,4.4,0.1,6.6,0.4C-114.1,556.6-114.1,556.3-114.3,556.3z M-131.4,567.3c-2.8,0-5,0.2-7.2,0.8
									c-1.3,0.3-2.6,0.8-4.1,1.4c0,0,0,0.1,0,0.1c0,0,0,0.1,0.1,0.1c1.3-0.3,2.5-0.6,3.8-0.9c2.4-0.5,4.7-0.9,7.5-1.1
									C-131.2,567.5-131.2,567.3-131.4,567.3z M-123.4,560.8c-2-0.3-3.8-0.3-5.4-0.2c-0.5,0-0.9,0.1-1.3,0.1
									c-1.8,0.2-3.4,0.6-5.2,1.1c0,0,0,0,0,0c0,0,0,0,0,0c0,0,0,0.1,0,0c1.9-0.3,3.5-0.6,5.2-0.8c0.4,0,0.8-0.1,1.3-0.1
									c1.7-0.1,3.4-0.1,5.4,0C-123.2,561.1-123.2,560.8-123.4,560.8z M-84.7,557.8l-0.1,0.2c0.1,0,0.3,0.1,0.5,0.2
									c1.7,0.4,3.9,1.1,6.1,1.8C-80.3,559.2-82.5,558.5-84.7,557.8z M-69.9,518.3c-0.1-0.1-0.2-0.1-0.3-0.1
									c1.7,4.9,3.6,10.3,5.6,15.7c0.2,0,0.5-0.1,0.7-0.1C-65.9,528.6-67.8,523.5-69.9,518.3z M-58.3,549.2
									c-0.2,0.1-0.4,0.1-0.6,0.2c0.1,0.3,0.2,0.6,0.3,0.9c0.2-0.1,0.4-0.2,0.6-0.2C-58.1,549.8-58.2,549.5-58.3,549.2z M-26.5,586
									c-2-1.6-4-3.2-6-4.7c-1.6-1.2-3.2-2.3-4.8-3.4c-0.3-0.2-0.5-0.3-0.7-0.5c-3.3-2.2-6.7-4.2-10.2-6c-1-0.5-2-1.1-3.1-1.6
									c-0.3-0.8-0.5-1.7-0.8-2.5c-0.1-0.2-0.2-0.5-0.2-0.7c-0.1,0-0.1,0-0.2,0.1c0,0.1,0.1,0.3,0.2,0.4c0.4,1.2,0.8,2.1,1,2.8
									c0,0.1,0,0.1,0.1,0.2c0,0.1,0,0.1,0.1,0.2c0,0.1,0,0.1,0,0.1c0,0,0,0.1,0,0.2c0,0,0,0,0,0.1c0,0,0,0,0,0c0,0,0,0,0,0.1
									s0,0,0,0c0,0-0.1,0-0.2,0c0,0,0,0,0,0c0,0,0,0,0,0c0,0,0,0,0,0c-0.4-0.1-1.6-0.7-3.6-1.5c-0.3-0.1-0.6-0.2-0.8-0.4
									c0,0,0,0-0.1,0c-0.7-0.3-1.5-0.7-2.4-1c-1.4-0.6-3.1-1.3-4.9-2c5.5,2.4,10.8,5.1,16,8c0.7,0.4,1.4,0.8,2.1,1.1
									c2.4,1.3,4.8,2.7,7.2,4.1v0c1.7,1,3.3,2,5,3.1c2.1,1.4,4.2,2.8,6.3,4.2C-26.5,586.3-26.4,586.1-26.5,586z M-54.8,559
									c-0.1-0.3-0.2-0.5-0.3-0.8c-0.1,0.1-0.3,0.1-0.5,0.2c0.1,0.3,0.2,0.5,0.3,0.8C-55.2,559.1-55,559.1-54.8,559z M-61.7,539.9
									c0,0-0.1,0-0.1,0c-0.1,0-0.2,0-0.3,0.1c-0.1,0-0.2,0.1-0.3,0.1c0.1,0.3,0.2,0.6,0.3,0.9c0.2-0.1,0.5-0.2,0.7-0.2
									C-61.5,540.5-61.6,540.2-61.7,539.9z M-84.7,557.8l-0.1,0.2c0.1,0,0.3,0.1,0.5,0.2c1.7,0.4,3.9,1.1,6.1,1.8
									C-80.3,559.2-82.5,558.5-84.7,557.8z M-84.7,557.8l-0.1,0.2c0.1,0,0.3,0.1,0.5,0.2c1.7,0.4,3.9,1.1,6.1,1.8
									C-80.3,559.2-82.5,558.5-84.7,557.8z"/>
								<path class="st12" d="M-84.9,558.2l-3.3,5.6l-2.8,4.7l-4.5,7.6l-0.6,1.1l-4.7,8c0,0,0,0,0,0c0,0,0,0,0,0
									c0.1-0.1-0.1-0.3-0.2-0.1c0,0,0,0,0,0.1c-3.2-1.3-8.3,0.5-22.6-13c-1-0.9-4.2-0.3-7.9,0.7c-3.6,1-7.7,2.5-10.6,3.5
									c-1.6,0.5-2.8,0.8-3.4,0.8c0,0,0,0,0,0c0,0,0,0,0,0c0,0-1-6.5,3-7.6c0,0,0,0,0-0.1c0,0,0,0.1,0.1,0.1
									c1.3-0.3,2.5-0.6,3.8-0.9c2.4-0.5,4.7-0.9,7.5-1.1c0.2,0,0.1-0.3,0-0.3c-2.8,0-5,0.2-7.2,0.8c-1.3,0.3-2.6,0.8-4.1,1.4
									c0.2-0.7,1.2-3.5,2.8-5.3c1.1-1.2,2.8-1.8,3.8-2c0.4-0.1,0.7-0.1,0.7-0.1s0,0,0-0.1c0,0,0,0.1,0,0c1.9-0.3,3.5-0.6,5.2-0.8
									c0.4,0,0.8-0.1,1.3-0.1c1.7-0.1,3.4-0.1,5.4,0c0.2,0,0.2-0.2,0-0.2c-2-0.3-3.8-0.3-5.4-0.2c-0.5,0-0.9,0.1-1.3,0.1
									c-1.8,0.2-3.4,0.6-5.2,1.1c0,0,0,0,0,0c0.1-0.5,0.8-2.3,2.4-3.6c1.2-1,2.3-1.5,3.2-1.8c0.5-0.1,0.9-0.2,1.3-0.3
									c0.2,0,0.4-0.1,0.6-0.1c0.3,0,0.5,0,0.5,0s0,0,0,0c2.1,0,4.3,0,6.5,0.1c2.2,0.1,4.4,0.1,6.6,0.4c0.2,0,0.2-0.2,0-0.2
									c-2.2-0.4-4.5-0.7-6.7-0.8c-2.2,0-4.2,0.2-6.3,0.5c0.1-0.4,0.5-2.1,3.4-3.4c5.7-2.5,21.4,0.3,29,2.2c0.3,0.1,0.7,0.2,1,0.3
									c-0.1,0-0.1,0.2,0,0.2c1.9,0.7,3.9,1.2,5.8,1.8C-87.1,557.5-86,557.8-84.9,558.2z"/>
								<g>
									<path class="st11" d="M-114.3,556.5c-2.2-0.2-4.4-0.3-6.6-0.4c-2.1-0.1-4.3-0.1-6.5-0.1h-0.2c0,0,0,0,0,0l0.2,0
										c2.1-0.3,4.2-0.5,6.3-0.5c2.3,0,4.5,0.4,6.7,0.8C-114.1,556.3-114.1,556.6-114.3,556.5z"/>
									<path class="st11" d="M-123.4,561c-2-0.1-3.8-0.1-5.4,0c-0.4,0-0.8,0.1-1.3,0.1c-1.7,0.2-3.3,0.5-5.2,0.8c0,0,0,0,0,0
										c0,0,0,0,0,0c0,0,0,0,0,0c1.8-0.5,3.5-0.9,5.2-1.1c0.4-0.1,0.9-0.1,1.3-0.1c1.6-0.1,3.3-0.1,5.4,0.2
										C-123.2,560.8-123.2,561.1-123.4,561z"/>
									<path class="st11" d="M-131.3,567.5c-2.8,0.3-5.1,0.6-7.5,1.1c-1.2,0.3-2.4,0.6-3.8,0.9c-0.1,0-0.1,0-0.1-0.1
										c0,0,0-0.1,0-0.1h0c1.4-0.6,2.8-1,4.1-1.4c2.3-0.6,4.5-0.8,7.2-0.8C-131.2,567.3-131.2,567.5-131.3,567.5z"/>
									<path class="st11" d="M-71.3,562.7c-3.8-1.3-7.5-2.5-11.3-3.7c-0.8-0.2-1.5-0.5-2.3-0.7c-1.1-0.4-2.2-0.7-3.3-1.1
										c-1.9-0.6-3.9-1.1-5.8-1.8c-0.1,0-0.1-0.2,0-0.2c0,0,0,0,0.1,0c1.9,0.3,3.8,0.8,5.6,1.3c2,0.5,3.9,1,5.8,1.6
										c0.5,0.2,0.9,0.3,1.3,0.5c0,0,0,0,0,0c0,0,0,0,0,0c0.1,0.1,0.3,0.1,0.4,0.2c2.9,1,5.7,2.2,8.4,3.4c0,0,0,0,0,0c0,0,0,0,0,0
										c0.3,0.1,0.6,0.3,0.9,0.4c0,0,0,0,0,0c0,0,0,0,0,0C-71.2,562.6-71.2,562.7-71.3,562.7z"/>
								</g>
							</g>
							<g>
								<path class="st13" d="M-77.3,562.4c-1.5,2.1-2.8,4.3-4.1,6.6c-0.3,0.6-0.7,1.2-1,1.9c-1.3,2.3-2.6,4.6-4,6.8v0
									c-0.3,0.5-0.5,0.9-0.8,1.4c-1.2,2-2.3,4-3.5,6c-0.2,0.4-0.5,0.8-0.7,1.2c-0.2,0.4-0.5,0.8-0.7,1.2c-0.4,0.7-0.8,1.4-1.2,2
									c-0.9,1.6-1.8,3.2-2.6,4.8c-0.2,0.5-0.5,1-0.7,1.5c-0.1,0.1,0.1,0.2,0.2,0.1c0.4-0.5,0.8-1,1.2-1.6c1-1.4,1.9-2.8,2.8-4.2
									c0.5-0.8,1-1.6,1.5-2.4c0,0,0-0.1,0.1-0.1c0.2-0.4,0.5-0.8,0.7-1.2c1.4-2.3,2.7-4.6,4-6.9c0.1-0.2,0.2-0.4,0.3-0.5
									c1.5-2.7,3-5.3,4.4-8c0.2-0.4,0.5-0.8,0.7-1.3C-79.4,567.3-78.2,564.9-77.3,562.4C-77.2,562.4-77.3,562.3-77.3,562.4z
									 M-75.9,606.6c-1.5-0.5-3-1-4.4-1.5c-0.5-0.2-1-0.4-1.5-0.5c-0.1,0-0.2-0.1-0.3-0.1c-1.1-0.4-2.2-0.8-3.3-1.2
									c-1.6-0.6-3.2-1.1-4.8-1.7c-1.6-0.6-3.2-1.2-4.8-1.7c-3.9-1.4-7.7-2.9-11.5-4.5c0.2-0.3,0.4-0.7,0.6-1
									c1.2-2.2,2.4-4.4,3.6-6.6l-3.9,6.6l-0.8,1.4c0,0,4.7,1.7,11.8,4.2h0c1.4,0.5,3,1,4.6,1.6c1.6,0.6,3.4,1.2,5.2,1.8
									c1.1,0.4,2.3,0.8,3.5,1.2c0.1,0,0.2,0.1,0.3,0.1C-79.9,605.3-78,606-75.9,606.6L-75.9,606.6c0.4,0.2,0.9,0.3,1.3,0.5
									C-75.1,606.9-75.5,606.8-75.9,606.6z M-38.1,618.2c-5.1-1.3-10.2-2.9-15.3-4.4c-2.8-0.8-5.6-1.6-8.3-2.5
									c9.2,3,17.9,5.6,23.8,7C-38,618.3-38,618.3-38.1,618.2z M-69.9,518.3c-0.1-0.1-0.2-0.1-0.3-0.1c-0.1,0-0.1,0.1-0.1,0.2
									c1.1,3.6,2.2,7.1,3.3,10.7c0,0,0,0,0,0.1c0.6,1.6,1.2,3.2,1.8,4.8c0.2,0,0.3-0.1,0.5-0.1c0.2,0,0.5-0.1,0.7-0.1
									C-65.9,528.6-67.8,523.5-69.9,518.3z M-58.3,549.2c-0.2,0.1-0.4,0.1-0.6,0.2c-0.1,0-0.3,0.1-0.4,0.1
									c0.1,0.3,0.2,0.6,0.4,0.9c0.1,0,0.3-0.1,0.4-0.1c0.2-0.1,0.4-0.2,0.6-0.2C-58.1,549.8-58.2,549.5-58.3,549.2z M-26.5,586
									c-2-1.6-4-3.2-6-4.7c-1.6-1.2-3.2-2.3-4.8-3.4c-0.3-0.2-0.5-0.3-0.7-0.5c-3.3-2.2-6.7-4.2-10.2-6c-1-0.5-2-1.1-3.1-1.6
									c-0.3-0.8-0.5-1.7-0.8-2.5c-0.1-0.2-0.2-0.5-0.2-0.7c-0.1,0-0.1,0-0.2,0.1c0,0,0,0-0.1,0c0,0-0.1,0-0.1,0c0,0,0,0-0.1,0
									c0.5,1.3,0.9,2.3,1.1,2.9s0.4,1,0.4,1s0,0,0,0c0,0,0,0,0,0c0,0,0,0,0,0c-0.4-0.2-1.7-0.7-3.6-1.5c-0.3-0.1-0.6-0.2-0.8-0.4
									c0,0,0,0-0.1,0c-0.7-0.3-1.5-0.7-2.4-1c-7.2-3-17.7-7.5-20.7-8.5c-0.6-0.2-1.2-0.4-1.7-0.5c-2.8-0.8-4-0.8-4-0.8v0l-0.1,0.2
									l-0.1,0.2c0.8,0.3,1.5,0.5,2.3,0.7c3.8,1.2,7.6,2.4,11.3,3.7c0.1,0,0.2-0.1,0.1-0.2c2.8,1,5.4,2,7.7,3
									c0.1,0,0.2,0.1,0.3,0.1c5.5,2.4,10.8,5.1,16,8c0.7,0.4,1.4,0.8,2.1,1.1c2.4,1.3,4.8,2.7,7.2,4.1v0c1.7,1,3.3,2,5,3.1
									c2.1,1.4,4.2,2.8,6.3,4.2C-26.5,586.3-26.4,586.1-26.5,586z M-55.3,559.2c0.1-0.1,0.3-0.1,0.4-0.2c-0.1-0.3-0.2-0.5-0.3-0.8
									c-0.1,0.1-0.3,0.1-0.5,0.2c-0.1,0-0.2,0.1-0.3,0.1c0.1,0.3,0.2,0.5,0.3,0.8C-55.5,559.3-55.4,559.2-55.3,559.2z
									 M-61.7,539.9c0,0-0.1,0-0.1,0c-0.1,0-0.2,0-0.3,0.1c-0.1,0-0.2,0.1-0.3,0.1c-0.2,0-0.3,0.1-0.4,0.1
									c0.1,0.3,0.2,0.6,0.3,0.9c0.1,0,0.3-0.1,0.4-0.2c0.2-0.1,0.5-0.2,0.7-0.2C-61.5,540.5-61.6,540.2-61.7,539.9z M-75.8,484.2
									l-1.1-1l0,0c-0.3-0.1-0.5-0.3-0.8-0.3c-1.3-0.5-2.2-0.6-2.8-0.2c-0.3,0.2-0.4,0.4-0.6,0.7v0c-0.4,0.7-0.4,1.9-0.1,3.4v0
									c0.2,1.4,0.7,3.1,1.3,5c0.1,0.2,0.1,0.4,0.2,0.7l0.2,0.5c1.5-3.1,2.6-5.7,3.1-7c0-0.1,0-0.2-0.1-0.2
									c0.2-0.5,0.4-0.8,0.5-1.1C-75.9,484.3-75.8,484.2-75.8,484.2z M-77.3,562.4c-1.5,2.1-2.8,4.3-4.1,6.6
									c-0.3,0.6-0.7,1.2-1,1.9c-1.3,2.3-2.6,4.6-4,6.8v0c-0.3,0.5-0.5,0.9-0.8,1.4c-1.2,2-2.3,4-3.5,6c-0.2,0.4-0.5,0.8-0.7,1.2
									c-0.2,0.4-0.5,0.8-0.7,1.2c-0.4,0.7-0.8,1.4-1.2,2c-0.9,1.6-1.8,3.2-2.6,4.8c-0.2,0.5-0.5,1-0.7,1.5
									c-0.1,0.1,0.1,0.2,0.2,0.1c0.4-0.5,0.8-1,1.2-1.6c1-1.4,1.9-2.8,2.8-4.2c0.5-0.8,1-1.6,1.5-2.4c0,0,0-0.1,0.1-0.1
									c0.2-0.4,0.5-0.8,0.7-1.2c1.4-2.3,2.7-4.6,4-6.9c0.1-0.2,0.2-0.4,0.3-0.5c1.5-2.7,3-5.3,4.4-8c0.2-0.4,0.5-0.8,0.7-1.3
									C-79.4,567.3-78.2,564.9-77.3,562.4C-77.2,562.4-77.3,562.3-77.3,562.4z"/>
								<path class="st9" d="M-34.8,585.6l1.9-3.6c-1.6-1.1-3.3-2.1-5-3.1v0c-2.4-1.4-4.8-2.8-7.2-4.1l1.1,1.1
									c-1.8,4.8-0.8,10.3,2.9,14.3c3.7,3.9,9.2,5.2,14.1,3.7L-34.8,585.6z M-21,571.1c-3.7-3.9-9.2-5.2-14.1-3.7l-4.4-4.6
									l-0.4,0.2c-0.3,0.1-0.5,0.3-0.8,0.4c-0.3,0.1-0.6,0.3-0.9,0.4c-0.3,0.1-0.6,0.2-1,0.3c-0.2,0-0.3,0.1-0.5,0.2
									c-0.2,0.1-0.3,0.1-0.5,0.2s-0.3,0.1-0.5,0.1c-0.3,0.1-0.7,0.2-1,0.3c-0.1,0-0.1,0-0.2,0c-0.3,0.1-0.6,0.2-0.9,0.2
									c-0.2,0-0.3,0.1-0.5,0.1c-0.3,0.1-0.7,0.2-1,0.2c-0.2,0-0.3,0.1-0.5,0.1c-0.2,0-0.3,0.1-0.5,0.1c-0.1,0-0.3,0.1-0.4,0.1
									c-0.1,0-0.2,0-0.4,0.1c0,0-0.1,0-0.1,0c-0.3,0.1-0.6,0.1-0.8,0.2c-0.1,0-0.3,0-0.4,0.1c-0.2,0-0.4,0.1-0.5,0.1l-0.1,0
									c-0.1,0-0.2,0-0.3,0.1c-0.3,0.1-0.6,0.1-0.7,0.2c0.1,0.3,0.2,0.5,0.2,0.7c0.3,0.8,0.5,1.7,0.8,2.5c1,0.5,2,1,3.1,1.6
									c3.5,1.8,6.9,3.9,10.2,6c0.3,0.2,0.5,0.3,0.7,0.5c1.6,1.1,3.3,2.3,4.8,3.4l0.8-1.5l6-2.6l7.8,8.2
									C-16.3,580.6-17.3,575.1-21,571.1z M-50.6,557.4c0.4-0.1,0.8-0.3,1.2-0.4c1.2-0.4,2.5-0.7,3.7-0.9c0.4-0.1,0.8-0.2,1.2-0.2
									c0.3,0,0.4-0.2,0.3-0.2v0c-0.1,0-0.2-0.1-0.3-0.1c-0.5,0-1.1,0.1-1.6,0.1c-0.3,0-0.7,0.1-1,0.1c-0.3,0-0.5,0.1-0.8,0.1
									c-0.3,0-0.6,0.1-0.9,0.2c-0.5,0.1-1,0.2-1.4,0.3c-0.5,0.1-0.9,0.3-1.4,0.4c-0.2,0.1-0.4,0.1-0.6,0.2c-1,0.3-2,0.7-2.9,1.1
									c0.1,0.3,0.2,0.5,0.3,0.8c0,0,0.1,0,0.2-0.1c0.4-0.1,0.7-0.3,1.1-0.4c0.3-0.1,0.6-0.3,1-0.4c0.2-0.1,0.3-0.1,0.5-0.2
									C-51.6,557.8-51.1,557.6-50.6,557.4z M-48.7,547.5c-1.7,0.1-3.2,0.3-4.6,0.5c-0.3,0-0.5,0.1-0.8,0.1c-0.1,0-0.2,0-0.3,0
									c-0.4,0.1-0.8,0.2-1.2,0.3c-0.3,0.1-0.5,0.1-0.8,0.2c-0.3,0.1-0.7,0.2-1,0.3c-0.3,0.1-0.7,0.2-1,0.3
									c0.1,0.3,0.2,0.6,0.3,0.9c0.3-0.1,0.6-0.2,0.9-0.3c0.5-0.2,1.1-0.3,1.6-0.5c0.4-0.1,0.8-0.2,1.2-0.3
									c0.5-0.1,0.9-0.2,1.4-0.4c1.3-0.3,2.6-0.6,4.1-0.9C-48.2,547.6-48.3,547.4-48.7,547.5z M-54.1,538.5c-0.1,0-0.2-0.1-0.5,0
									c-2.3,0.3-4.5,0.7-6.5,1.3c-0.2,0-0.3,0.1-0.5,0.2c0.1,0.3,0.2,0.6,0.3,0.9c0.3-0.1,0.6-0.2,0.9-0.3c1.8-0.6,3.8-1.2,6-1.8
									C-54.2,538.7-54.1,538.6-54.1,538.5C-54.1,538.5-54.1,538.5-54.1,538.5z"/>
								<path class="st9" d="M-77.3,562.4c-1.5,2.1-2.8,4.3-4.1,6.6c-0.3,0.6-0.7,1.2-1,1.9c-1.3,2.3-2.6,4.6-4,6.8v0
									c-0.3,0.5-0.5,0.9-0.8,1.4c-1.2,2-2.3,4-3.5,6c-0.2,0.4-0.5,0.8-0.7,1.2c-0.2,0.4-0.5,0.8-0.7,1.2c-0.4,0.7-0.8,1.4-1.2,2
									c-0.9,1.6-1.8,3.2-2.6,4.8c-0.2,0.5-0.5,1-0.7,1.5c-0.1,0.1,0.1,0.2,0.2,0.1c0.4-0.5,0.8-1,1.2-1.6c1-1.4,1.9-2.8,2.8-4.2
									c0.5-0.8,1-1.6,1.5-2.4c0,0,0-0.1,0.1-0.1c0.2-0.4,0.5-0.8,0.7-1.2c1.4-2.3,2.7-4.6,4-6.9c0.1-0.2,0.2-0.4,0.3-0.5
									c1.5-2.7,3-5.3,4.4-8c0.2-0.4,0.5-0.8,0.7-1.3C-79.4,567.3-78.2,564.9-77.3,562.4C-77.2,562.4-77.3,562.3-77.3,562.4z
									 M-77.3,562.4c-1.5,2.1-2.8,4.3-4.1,6.6c-0.3,0.6-0.7,1.2-1,1.9c-1.3,2.3-2.6,4.6-4,6.8v0c-0.3,0.5-0.5,0.9-0.8,1.4
									c-1.2,2-2.3,4-3.5,6c-0.2,0.4-0.5,0.8-0.7,1.2c-0.2,0.4-0.5,0.8-0.7,1.2c-0.4,0.7-0.8,1.4-1.2,2c-0.9,1.6-1.8,3.2-2.6,4.8
									c-0.2,0.5-0.5,1-0.7,1.5c-0.1,0.1,0.1,0.2,0.2,0.1c0.4-0.5,0.8-1,1.2-1.6c1-1.4,1.9-2.8,2.8-4.2c0.5-0.8,1-1.6,1.5-2.4
									c0,0,0-0.1,0.1-0.1c0.2-0.4,0.5-0.8,0.7-1.2c1.4-2.3,2.7-4.6,4-6.9c0.1-0.2,0.2-0.4,0.3-0.5c1.5-2.7,3-5.3,4.4-8
									c0.2-0.4,0.5-0.8,0.7-1.3C-79.4,567.3-78.2,564.9-77.3,562.4C-77.2,562.4-77.3,562.3-77.3,562.4z"/>
								<path class="st8" d="M-59.8,497.5c-6.1-6.9-12.9-12.4-17.1-14.4l1.1,1c0,0-0.1,0.2-0.2,0.4c-0.1,0.3-0.3,0.6-0.5,1.1
									c0.1,0,0.1,0.1,0.1,0.2c-0.5,1.3-1.7,3.9-3.1,7c-2.4,5.1-5.6,11.5-8,16.4c4.3-0.6,8.9,0.8,12.1,4.2
									c3.7,3.9,4.7,9.5,2.9,14.2l6.3,6.6c0.3-0.1,0.7-0.2,1-0.2c-0.2-0.5-0.3-0.9-0.5-1.4c-0.6-1-1.3-2.1-1.9-3.2
									c-0.9-1.6-1.6-3.2-2.3-4.8c-0.1-0.2,0.2-0.3,0.3-0.1c1,1.5,1.9,3,2.7,4.6c0,0.1,0.1,0.1,0.1,0.2c0-0.1,0-0.1-0.1-0.2
									c0,0,0,0,0-0.1c-1.2-3.6-2.3-7.1-3.3-10.7c0-0.1,0-0.2,0.1-0.2c0.1-0.1,0.3-0.1,0.3,0.1c2,5.1,4,10.3,5.9,15.5
									c6.4-1.2,12.7-1.5,14-0.1c2.9,3.3-3,4.4-4.1,4.8c0,0,0,0,0,0c1.4-0.2,9.6-0.5,11.3,2.3c2.5,4-4.7,6.3-5.5,6.6
									c0.8,0,8.5-0.5,10.3,2.3c2.5,3.9-5.1,5.7-6.2,5.9v0c0.9-0.1,6.7-0.3,7,4.1c0.1,1.2-0.9,2.2-2.3,3l4.4,4.6
									c4.9-1.5,10.4-0.2,14.1,3.7c3.7,3.9,4.7,9.5,2.9,14.2l-7.8-8.2l-6,2.6l-0.8,1.5c2,1.5,4,3.1,6,4.7c0.1,0.1,0,0.3-0.1,0.2
									c-2-1.5-4.1-2.9-6.3-4.2l-1.9,3.6l7.8,8.2c-4.9,1.5-10.3,0.2-14.1-3.7c-3.7-3.9-4.7-9.5-2.9-14.3l-1.1-1.1
									c-0.7-0.4-1.4-0.8-2.1-1.1c-5.2-2.8-10.5-5.5-16-8c-0.1,0-0.2-0.1-0.3-0.1c-2.3-0.9-4.9-2-7.7-3c0,0.1,0,0.2-0.1,0.2
									c-3.8-1.3-7.5-2.5-11.3-3.7c-0.8-0.2-1.5-0.5-2.3-0.7l-3.3,5.6l-2.8,4.7l-4.5,7.6l-0.6,1.1l-4.7,8l-1.3,2.2
									c0,0.1-0.1,0.1-0.1,0.2c0,0,0,0,0,0.1c-1.2,2.2-2.4,4.4-3.6,6.6c-0.2,0.3-0.4,0.7-0.6,1c3.8,1.5,7.6,3,11.5,4.5
									c1.6,0.6,3.2,1.2,4.8,1.7c1.6,0.6,3.2,1.2,4.8,1.7c1.1,0.4,2.2,0.8,3.3,1.2c0.1,0,0.2,0.1,0.3,0.1c0.5,0.2,1,0.4,1.5,0.5
									c1.5,0.5,3,1,4.4,1.5c0.4,0.2,0.9,0.3,1.3,0.5c0.1,0,0.1,0,0.2,0.1c0.3,0.1,0.6,0.2,0.9,0.3c0,0,0,0,0,0
									c0.2,0.1,0.3,0.1,0.5,0.2c3.7,1.2,7.4,2.5,11,3.6c0.1,0,0.2,0,0.3,0.1c2.8,0.9,5.5,1.7,8.3,2.5c5.1,1.5,10.2,3.1,15.3,4.4
									c0.1,0,0.2,0.1,0.2,0.1c1.7,0.4,3.1,0.7,4.3,0.9c0.4,0.1,0.8,0.1,1.1,0.2c12.7,1.3,27.2-8.7,27.4-24.7
									C-4.8,572.3-41.3,518.4-59.8,497.5z M-80.7,569.7c-0.2,0.4-0.5,0.8-0.7,1.3c-1.4,2.7-2.9,5.3-4.4,8
									c-0.1,0.2-0.2,0.4-0.3,0.5c-1.3,2.3-2.7,4.6-4,6.9c-0.2,0.4-0.5,0.8-0.7,1.2c0,0-0.1,0.1-0.1,0.1c-0.5,0.8-1,1.6-1.5,2.4
									c-0.9,1.4-1.8,2.9-2.8,4.2c-0.4,0.5-0.8,1.1-1.2,1.6c-0.1,0.1-0.3,0-0.2-0.1c0.2-0.5,0.4-1,0.7-1.5c0.8-1.6,1.7-3.2,2.6-4.8
									c0.4-0.7,0.8-1.4,1.2-2c0.2-0.4,0.5-0.8,0.7-1.2c0.2-0.4,0.5-0.8,0.7-1.2c1.2-2,2.3-4,3.5-6c0.3-0.5,0.6-0.9,0.8-1.4v0
									c1.3-2.3,2.7-4.6,4-6.8c0.3-0.6,0.7-1.2,1-1.9c1.3-2.3,2.6-4.5,4.1-6.6c0,0,0.1,0,0.1,0C-78.2,564.9-79.4,567.3-80.7,569.7z
									"/>
								<g>
									<path class="st11" d="M-26.7,586.2c-2-1.5-4.1-2.9-6.3-4.2c-1.6-1.1-3.3-2.1-5-3.1v0c-2.4-1.4-4.8-2.8-7.2-4.1
										c-0.7-0.4-1.4-0.8-2.1-1.1c-5.2-2.8-10.5-5.5-16-8c-0.1,0-0.2-0.1-0.3-0.1c-1.7-0.8-3.5-1.5-5.2-2.2
										c-1-0.4-2.2-0.8-3.5-1.3c0,0,0,0,0,0c0,0,0,0,0,0c-1.9-0.7-3.9-1.4-5.9-2c0,0,0,0,0,0c-2.3-0.8-4.5-1.4-6.1-1.8
										c-0.2-0.1-0.4-0.1-0.5-0.2c-0.2-0.1-0.1-0.1,0-0.2c0,0,0,0,0,0c0.1,0,0.2,0,0.3,0c0.7,0,1.9,0.3,3.3,0.7c0,0,0,0,0,0
										c0,0,0,0,0,0c5.9,1.6,16.7,5.4,22.5,7.9c2.3,1,4.5,2,6.7,3.1c0.1,0,0.1,0.1,0.2,0.1c0.1,0,0.2,0.1,0.3,0.2c0,0,0,0,0,0
										c1,0.5,2,1,3.1,1.6c3.5,1.8,6.9,3.9,10.2,6c0.3,0.2,0.5,0.3,0.7,0.5c1.6,1.1,3.3,2.3,4.8,3.4c2,1.5,4,3.1,6,4.7
										C-26.4,586.1-26.5,586.3-26.7,586.2z"/>
									<path class="st11" d="M-63.9,533.8c-0.2,0-0.5,0.1-0.7,0.1c-0.2,0-0.3,0.1-0.5,0.1c0,0-0.1,0-0.1,0
										c-0.2-0.5-0.3-0.9-0.5-1.4c-0.6-1-1.3-2.1-1.9-3.2c-0.9-1.6-1.6-3.2-2.3-4.8c-0.1-0.2,0.2-0.3,0.3-0.1c1,1.5,1.9,3,2.7,4.6
										c0,0.1,0.1,0.1,0.1,0.2c0-0.1,0-0.1-0.1-0.2c0,0,0,0,0-0.1c-1.2-3.6-2.3-7.1-3.3-10.7c0-0.1,0-0.2,0.1-0.2
										c0.1-0.1,0.3-0.1,0.3,0.1C-67.8,523.5-65.9,528.6-63.9,533.8z"/>
									<path class="st11" d="M-61.4,540.8c-0.2,0.1-0.5,0.2-0.7,0.2c-0.1,0-0.3,0.1-0.4,0.2c-0.1,0-0.2,0.1-0.3,0.1
										c-0.1-0.3-0.2-0.6-0.3-0.9c0.1,0,0.2-0.1,0.3-0.1c0.1-0.1,0.3-0.1,0.4-0.1c0.1,0,0.2-0.1,0.3-0.1c0.1,0,0.2-0.1,0.3-0.1
										c0,0,0.1,0,0.1,0C-61.6,540.2-61.5,540.5-61.4,540.8z"/>
									<path class="st11" d="M-58.3,549.2c0.1,0.3,0.2,0.6,0.3,0.9c-0.2,0.1-0.4,0.1-0.6,0.2c-0.1,0-0.3,0.1-0.4,0.1
										c-0.1,0-0.3,0.1-0.4,0.2c0,0,0,0,0-0.1c-0.1-0.3-0.2-0.6-0.3-0.9c0.1-0.1,0.3-0.1,0.4-0.2c0.1,0,0.3-0.1,0.4-0.1
										C-58.7,549.3-58.5,549.3-58.3,549.2z"/>
									<path class="st11" d="M-55.1,558.2c0.1,0.3,0.2,0.5,0.3,0.8c-0.2,0.1-0.3,0.1-0.4,0.2c-0.1,0-0.2,0.1-0.3,0.1
										c-0.2,0.1-0.3,0.1-0.5,0.2c-0.1-0.3-0.2-0.5-0.3-0.8c0.2-0.1,0.3-0.1,0.5-0.2c0.1,0,0.2-0.1,0.3-0.1
										C-55.5,558.3-55.3,558.2-55.1,558.2z"/>
									<path class="st11" d="M-51.1,570.7c0,0.1-0.2,0.2-0.2,0.1c0-0.1,0-0.1-0.1-0.2v0c-0.2-0.4-0.3-0.7-0.5-1.1
										c-0.4-0.9-0.8-1.8-1.2-2.7c0.1,0,0.2-0.1,0.3-0.1c0,0,0,0,0.1,0c0,0,0.1,0,0.1,0c0,0,0,0,0.1,0c0,0,0.1,0,0.2-0.1
										c0.1,0.3,0.2,0.5,0.2,0.7c0.3,0.8,0.5,1.7,0.8,2.5c0,0.1,0,0.1,0,0.2c0,0.1,0,0.1,0.1,0.2c0,0.1,0,0.1,0,0.1
										c0,0,0,0.1,0,0.2c0,0,0,0,0,0.1c0,0,0,0,0,0C-51.1,570.5-51.1,570.6-51.1,570.7C-51.1,570.6-51.1,570.7-51.1,570.7z"/>
									<path class="st11" d="M-77.2,562.4c-0.9,2.5-2.2,4.9-3.4,7.2c-0.2,0.4-0.5,0.8-0.7,1.3c-1.4,2.7-2.9,5.3-4.4,8
										c-0.1,0.2-0.2,0.4-0.3,0.5c-1.3,2.3-2.7,4.6-4,6.9c-0.2,0.4-0.5,0.8-0.7,1.2c0,0-0.1,0.1-0.1,0.1c-0.5,0.8-1,1.6-1.5,2.4
										c-0.9,1.4-1.8,2.9-2.8,4.2c-0.4,0.5-0.8,1.1-1.2,1.6c-0.1,0.1-0.3,0-0.2-0.1c0.2-0.5,0.4-1,0.7-1.5
										c0.8-1.6,1.7-3.2,2.6-4.8c0.4-0.7,0.8-1.4,1.2-2c0.2-0.4,0.5-0.8,0.7-1.2c0.2-0.4,0.5-0.8,0.7-1.2c1.2-2,2.3-4,3.5-6
										c0.3-0.5,0.6-0.9,0.8-1.4v0c1.3-2.3,2.7-4.6,4-6.8c0.3-0.6,0.7-1.2,1-1.9C-80.1,566.7-78.8,564.5-77.2,562.4
										C-77.3,562.3-77.2,562.4-77.2,562.4z"/>
									<path class="st11" d="M-38.2,618.5c-9.2-1.7-18.2-4.4-27.1-7.2c-2.8-0.9-5.6-1.8-8.4-2.8c0,0,0,0,0,0c0,0,0,0-0.1,0
										c-0.6-0.2-1.2-0.4-1.8-0.6c-2.2-0.8-4.4-1.5-6.5-2.3c-0.1,0-0.2-0.1-0.3-0.1c-1.6-0.6-3.2-1.2-4.8-1.7
										c-1.7-0.6-3.5-1.3-5.2-1.9c-0.3-0.1-0.6-0.2-0.9-0.3c-1-0.4-2.1-0.8-3.2-1.2c-5.3-1.9-11.8-4.3-11.7-4.5
										c0.3-0.5,0.5-1,0.8-1.5c1.8-3.1,4.2-6.2,6-9.2c0,0,0,0,0-0.1c0.1-0.1,0.3,0,0.2,0.1c0,0,0,0,0,0c-0.4,0.7-0.9,1.5-1.3,2.2
										c0,0.1-0.1,0.1-0.1,0.2c0,0,0,0,0,0.1c-1.2,2.2-2.4,4.4-3.6,6.6c-0.2,0.3-0.4,0.7-0.6,1c3.8,1.5,7.6,3,11.5,4.5
										c1.6,0.6,3.2,1.2,4.8,1.7c1.6,0.6,3.2,1.2,4.8,1.7c1.1,0.4,2.2,0.8,3.3,1.2c0.1,0,0.2,0.1,0.3,0.1c0.5,0.2,1,0.4,1.5,0.5
										c1.5,0.5,3,1,4.4,1.5c0.4,0.2,0.9,0.3,1.3,0.5c0.1,0,0.1,0,0.2,0.1c0.3,0.1,0.6,0.2,0.9,0.3c0,0,0,0,0,0
										c0.2,0.1,0.3,0.1,0.5,0.2c3.7,1.3,7.3,2.5,11,3.6c0.1,0,0.2,0,0.3,0.1c2.8,0.9,5.5,1.7,8.3,2.5c5.1,1.5,10.2,3.1,15.3,4.4
										c0.1,0,0.2,0.1,0.2,0.1C-37.9,618.5-38,618.6-38.2,618.5z"/>
								</g>
							</g>
						</g>
						<g>
							<g>
								<g>
									<g>
										<path class="st14" d="M-80.9,486.1c-0.1,0.2-0.2,0.4-0.3,0.6v0c-4.1,7.4-13.9,16.3-19.8,15.1c-4.1-0.9-5.2-6.9-5.4-11.5
											c0-0.3,0-0.6,0-0.9c0-1.4,0.1-2.6,0.1-3.4c0-0.1,0-0.2,0-0.2l0,0c0,0,0-0.1,0-0.1c0-0.1,0-0.2,0-0.3c0-0.1,0-0.1,0-0.2
											c0-0.2,0-0.3,0.1-0.5c0,0,0,0,0,0v0c0-0.2,0-0.5,0-0.8v-0.1c0-0.1,0-0.3,0-0.4c0-1.3-0.2-2.6-0.3-3.9
											c1.8,0.5,3.6,0.6,5.4,0.6c0,0,0,0,0,0c0,0,0,0,0,0c0,0,0,0,0,0c2.3-0.1,4.7-0.5,6.9-1.3c0,0,0,0,0,0c3.1-1.1,6-2.7,8.6-5
											c-1.1,1.7-2.4,3.4-4.1,5c-3.3,3.1-8,5.7-15.1,7.2c-0.3,0.1-0.6,0.1-0.9,0.2c0,0.1,0,0.2,0,0.3l0.4,0.8l6.5,12.4l15.8-19.6
											l1.1-1.3l0,0c0.1,0.6,0.2,1.3,0.3,1.8c0.1,1.1,0.3,2,0.4,2.8v0C-80.9,484.8-80.8,485.8-80.9,486.1z"/>
									</g>
									<path class="st5" d="M-85.4,473.6c-1.1,1.7-2.4,3.4-4.1,5c-3.3,3.1-8,5.7-15.1,7.2c-0.3,0.1-0.6,0.1-0.9,0.2
										c-0.1,0-0.1,0-0.2,0c-0.2,0-0.4,0.1-0.6,0.1c0-0.1,0-0.2,0-0.2c0-0.1,0-0.2,0-0.2c0,0,0-0.1,0-0.1c0-0.1,0-0.2,0-0.3
										c0-0.1,0-0.1,0-0.2c0-0.2,0-0.3,0.1-0.5c0,0,0,0,0,0v0c0-0.2,0-0.5,0-0.8v-0.1c0-0.1,0-0.3,0-0.4c0-1.3-0.2-2.6-0.3-3.9
										c1.8,0.5,3.6,0.6,5.4,0.6c0,0,0,0,0,0c0,0,0,0,0,0c0,0,0,0,0,0c2.3-0.1,4.7-0.5,6.9-1.3c0,0,0,0,0,0
										C-90.9,477.5-87.9,475.8-85.4,473.6z"/>
								</g>
								<g>
									<g>
										<path class="st15" d="M-72.3,447.7c-0.9-0.5-2-0.5-3,0c-0.4,0.1-0.7,0.3-1.1,0.5c-3,1.8-5.9,5.6-5.9,5.6l-0.1,0.4
											c-1.7-1.8-2.9-5-2.5-9.1c0.1-1.3,0.2-2.5,0.2-3.6l-31.3-8.9c-4.1,12.5-6.1,31.1-1.3,38.7c2.7,4.3,6.6,6.9,10.9,8
											c1.8,0.5,3.6,0.6,5.4,0.6c0,0,0,0,0,0c0,0,0,0,0,0c0,0,0,0,0,0c2.3-0.1,4.7-0.5,6.9-1.3c0,0,0,0,0,0c3.1-1.1,6-2.7,8.6-5
											c-1.1,1.7-2.4,3.4-4.1,5c-3.3,3.1-8,5.7-15.1,7.2c-0.3,0.1-0.6,0.1-0.9,0.2c0,0.1,0,0.2,0,0.3l0.4,0.8l6.5,12.4l15.8-19.6
											l1.1-1.3l0,0c-0.2-1.5-0.4-3.2-0.6-5c-0.1-1.1-0.3-2.3-0.4-3.5c1-1.7,1.8-3.8,2.7-6.1c0.6,0,1.4,0,2.2-0.3
											C-73.3,462.1-68.5,449.9-72.3,447.7z M-113.8,437.7c0.9-0.8,1.8-1.2,3-1.3c1.1-0.1,2.3,0.1,2.9,1c0.3,0.4,0.2,1.2-0.2,1.5
											c-0.7,0.6-1.5,0.6-2.4,0.7c-0.8,0.1-1.6,0.2-2.4,0.3C-113.9,439.9-114.7,438.5-113.8,437.7z M-108.4,459.6
											c-0.2,0-0.3-0.1-0.4-0.1c-0.1,0-0.3-0.1-0.4-0.1c-0.2-0.1-0.3-0.3-0.3-0.5v0c0-0.1,0-0.1,0-0.2c0,0,0,0,0,0l0-0.2
											c0.2-1.4,0.6-3.4,0.6-3.4c-0.5,0.2-3.3,0.9-3.1,0.2c0.5-2.3,1-4.7,1.6-7.1c-0.4,0.8-1.1,1.4-2,1.3c-0.1,0-0.1-0.1,0-0.1
											c0.8-0.2,1.3-0.6,1.7-1.3c-0.4,0.5-1,0.8-1.7,0.6c-2.6-0.6-1.5-6.3,1.3-5.7c0.9,0.2,1.3,1.1,1.3,2.1c0,0.2,0,0.3,0,0.5
											v0.2c0.8-2.9,1.7-5.8,2.9-8.5c0.1-0.2,0.4-0.1,0.3,0.1c-1,5.7-2.9,11.2-4,16.9c0.9-0.2,2.3-0.6,3-0.4c0.2,0.1-0.9,4-1,4.6
											c0,0,0,0,0,0.1c2.3,0.6,4.1,0.2,6.6-1c0.1-0.1,0.3,0.1,0.1,0.2c-1.2,1.4-2.8,2-4.4,2.1
											C-107,459.8-107.7,459.8-108.4,459.6z M-100.5,463.4c-0.3,0.7-0.8,1.3-1.6,1.4c-0.9,0-1.8-0.5-2.1-1.3c0,0,0-0.1,0.1-0.1
											c0.5,0.3,1.2,0.7,1.8,0.7c0.7,0,1.2-0.5,1.7-0.8C-100.6,463.3-100.5,463.3-100.5,463.4z M-97.6,451.1
											c-0.7-0.1-1.1-0.5-1.4-1.1c0.1,0.8,0.5,1.4,1.1,1.8c0,0,0,0.1,0,0.1c-1.8-0.6-1.7-3.1-1.1-4.7c0-0.1,0.1-0.2,0.1-0.3
											c0.4-0.9,1-1.6,1.9-1.5C-94.1,445.7-94.9,451.4-97.6,451.1z M-94.3,443.1c-0.8-0.3-1.4-0.7-2.1-1.1
											c-0.8-0.4-1.5-0.7-1.9-1.5c-0.2-0.5,0-1.2,0.4-1.4c1-0.6,2.1-0.3,3.1,0.1c1.1,0.5,1.8,1.2,2.3,2.3
											C-92.1,442.5-93.3,443.5-94.3,443.1z M-73.7,451.2c-1,0.4-1.9,0.9-2.7,1.6c0,0,0,0,0,0c-0.1,0.2-0.1,0.3-0.2,0.4
											c-0.3,0.6-0.6,1-0.9,1.3c-0.3,0.3-0.6,0.5-0.9,0.6h0c-0.6,1-1.1,2-1.6,3.1c0.5-0.6,1.2-1.1,1.9-1.2c0.6-0.1,1.3,0.1,2,0.6
											c0.1,0.1,0,0.2-0.1,0.2c-0.8-0.2-1.5-0.2-2.1,0.1v0c-0.4,0.2-0.7,0.4-1.1,0.8c-0.7,0.7-1.1,1.6-1.6,2.5
											c-0.2,0.3-0.7,0.1-0.5-0.2c0,0,0,0,0-0.1c0-1.7,0.6-3.7,1.7-5.5c0.7-1.2,1.6-2.3,2.7-3.1c0.3-0.3,0.7-0.5,1-0.7
											c0.7-0.4,1.5-0.6,2.3-0.6C-73.7,451.1-73.7,451.2-73.7,451.2z"/>
										<path class="st14" d="M-108.1,438.9c-0.7,0.6-1.5,0.6-2.4,0.7c-0.8,0.1-1.6,0.2-2.4,0.3c-1.1,0-1.8-1.4-1-2.2
											c0.9-0.8,1.8-1.2,3-1.3c1.1-0.1,2.3,0.1,2.9,1C-107.7,437.8-107.7,438.6-108.1,438.9z"/>
										<path class="st14" d="M-101.8,457.7c-1.2,1.4-2.8,2-4.4,2.1c-0.7,0-1.5,0-2.2-0.2c-0.2,0-0.3-0.1-0.4-0.1
											c-0.1,0-0.3-0.1-0.4-0.1c-0.2-0.1-0.3-0.3-0.3-0.5v0c0-0.1,0-0.1,0-0.2c0,0,0,0,0,0l0-0.2c0.2-1.4,0.6-3.4,0.6-3.4
											c-0.5,0.2-3.3,0.9-3.1,0.2c0.5-2.3,1-4.7,1.6-7.1c-0.4,0.8-1.1,1.4-2,1.3c-0.1,0-0.1-0.1,0-0.1c0.8-0.2,1.3-0.6,1.7-1.3
											c-0.4,0.5-1,0.8-1.7,0.6c-2.6-0.6-1.5-6.3,1.3-5.7c0.9,0.2,1.3,1.1,1.3,2.1c0,0.2,0,0.3,0,0.5v0.2
											c0.8-2.9,1.7-5.8,2.9-8.5c0.1-0.2,0.4-0.1,0.3,0.1c-1,5.7-2.9,11.2-4,16.9c0.9-0.2,2.3-0.6,3-0.4c0.2,0.1-0.9,4-1,4.6
											c0,0,0,0,0,0.1c2.3,0.6,4.1,0.2,6.6-1C-101.8,457.5-101.6,457.6-101.8,457.7z"/>
										<path class="st14" d="M-100.5,463.4c-0.3,0.7-0.8,1.3-1.6,1.4c-0.9,0-1.8-0.5-2.1-1.3c0,0,0-0.1,0.1-0.1
											c0.5,0.3,1.2,0.7,1.8,0.7c0.7,0,1.2-0.5,1.7-0.8C-100.6,463.3-100.5,463.3-100.5,463.4z"/>
										<path class="st14" d="M-97.6,451.1c-0.7-0.1-1.1-0.5-1.4-1.1c0.1,0.8,0.5,1.4,1.1,1.8c0,0,0,0.1,0,0.1
											c-1.8-0.6-1.7-3.1-1.1-4.7c0-0.1,0.1-0.2,0.1-0.3c0.4-0.9,1-1.6,1.9-1.5C-94.1,445.7-94.9,451.4-97.6,451.1z"/>
										<path class="st14" d="M-94.3,443.1c-0.8-0.3-1.4-0.7-2.1-1.1c-0.8-0.4-1.5-0.7-1.9-1.5c-0.2-0.5,0-1.2,0.4-1.4
											c1-0.6,2.1-0.3,3.1,0.1c1.1,0.5,1.8,1.2,2.3,2.3C-92.1,442.5-93.3,443.5-94.3,443.1z"/>
										<path class="st14" d="M-77.1,452.4c-0.1,0.5-0.2,0.9-0.3,1.4c-0.1,0.3-0.1,0.5-0.2,0.8c-0.3,0.3-0.6,0.5-0.9,0.6h0
											c-0.6,1-1.1,2-1.6,3.1c0.5-0.6,1.2-1.1,1.9-1.2c-0.1,0.3-0.1,0.6-0.2,0.8v0c-0.4,0.2-0.7,0.4-1.1,0.8
											c-0.7,0.7-1.1,1.6-1.6,2.5c-0.2,0.3-0.7,0.1-0.5-0.2c0,0,0,0,0-0.1c0-1.7,0.6-3.7,1.7-5.5
											C-79.1,454.3-78.1,453.2-77.1,452.4z"/>
										<path class="st14" d="M-75.7,440.1c0,0.6,0,1.2-0.1,1.9c0,0.6-0.1,1.2-0.1,1.9c-0.1,1.4-0.3,2.8-0.5,4.3
											c-3,1.8-5.9,5.6-5.9,5.6l-0.1,0.4c-1.7-1.8-2.9-5-2.5-9.1c0.1-1.3,0.2-2.5,0.2-3.6l-31.3-8.9c0.2-0.6,0.4-1.2,0.6-1.7
											c0.2-0.6,0.4-1.2,0.6-1.7c0.4-1,0.8-1.9,1.2-2.8c0,0,0,0,0-0.1c0,0,0-0.1,0-0.1c0,0,0.1-0.1,0.1-0.2
											c1.2-2.4,2.4-4.1,3.7-5.1c2.9-2.1,6.3-3.2,9.8-3.4c3.5-0.3,7.2,0.3,10.5,1.6c6,2.3,11,7,12.9,13.3
											C-75.8,434.3-75.6,437-75.7,440.1z"/>
									</g>
									<g>
										<g>
											<path class="st5" d="M-97.9,451.9c-1.8-0.6-1.7-3.1-1.1-4.7c0-0.1,0.1-0.2,0.1-0.3c0,0,0.1,0.1,0.1,0.2
												c-0.2,1-0.4,2-0.2,2.9C-98.8,450.8-98.5,451.4-97.9,451.9C-97.8,451.8-97.8,451.9-97.9,451.9z"/>
											<path class="st5" d="M-97.6,451.1c-0.7-0.1-1.1-0.5-1.4-1.1c-0.3-0.8-0.3-1.9,0-2.8c0-0.1,0.1-0.2,0.1-0.3
												c0.4-0.9,1-1.6,1.9-1.5C-94.1,445.7-94.9,451.4-97.6,451.1z"/>
										</g>
										<g>
											<path class="st5" d="M-109.7,445.2c0,0.2,0,0.3,0,0.5v0.2c0,0.8-0.2,1.7-0.6,2.4c-0.4,0.8-1.1,1.4-2,1.3
												c-0.1,0-0.1-0.1,0-0.1c0.8-0.2,1.3-0.6,1.7-1.3c0.5-0.8,0.7-1.8,0.8-2.8C-109.9,445.3-109.7,445.1-109.7,445.2z"/>
											<path class="st5" d="M-109.7,445.2c0,0.2,0,0.3,0,0.5v0.1c0,0.1,0,0.1,0,0.2c0,0.4-0.2,0.9-0.3,1.2v0
												c-0.2,0.4-0.4,0.7-0.6,1c-0.4,0.5-1,0.8-1.7,0.6c-2.6-0.6-1.5-6.3,1.3-5.7C-110.2,443.3-109.8,444.2-109.7,445.2z"/>
										</g>
										<path class="st5" d="M-94.3,443.1c-0.8-0.3-1.4-0.7-2.1-1.1c-0.8-0.4-1.5-0.7-1.9-1.5c-0.2-0.5,0-1.2,0.4-1.4
											c1-0.6,2.1-0.3,3.1,0.1c1.1,0.5,1.8,1.2,2.3,2.3C-92.1,442.5-93.3,443.5-94.3,443.1z"/>
										<path class="st5" d="M-108.1,438.9c-0.7,0.6-1.5,0.6-2.4,0.7c-0.8,0.1-1.6,0.2-2.4,0.3c-1.1,0-1.8-1.4-1-2.2
											c0.9-0.8,1.8-1.2,3-1.3c1.1-0.1,2.3,0.1,2.9,1C-107.7,437.8-107.7,438.6-108.1,438.9z"/>
										<path class="st5" d="M-100.5,463.4c-0.3,0.7-0.8,1.3-1.6,1.4c-0.9,0-1.8-0.5-2.1-1.3c0,0,0-0.1,0.1-0.1
											c0.5,0.3,1.2,0.7,1.8,0.7c0.7,0,1.2-0.5,1.7-0.8C-100.6,463.3-100.5,463.3-100.5,463.4z"/>
										<g>
											<g>
												<path class="st5" d="M-101.8,457.7c-1.2,1.4-2.8,2-4.4,2.1c-0.7,0-1.5,0-2.2-0.2c-0.2,0-0.3-0.1-0.4-0.1
													c-0.1,0-0.3-0.1-0.4-0.1c-0.2-0.1-0.3-0.3-0.3-0.5v0c0-0.1,0-0.1,0-0.2c0,0,0,0,0,0l0-0.2c0.2-1.4,0.6-3.4,0.6-3.4
													c-0.5,0.2-3.3,0.9-3.1,0.2c0.5-2.3,1-4.7,1.6-7.1c0.1-0.4,0.2-0.7,0.3-1.1v0c0.1-0.4,0.2-0.8,0.3-1.2c0,0,0-0.1,0-0.1
													c0.8-2.9,1.7-5.8,2.9-8.5c0.1-0.2,0.4-0.1,0.3,0.1c-1,5.7-2.9,11.2-4,16.9c0.9-0.2,2.3-0.6,3-0.4c0.2,0.1-0.9,4-1,4.6
													c0,0,0,0,0,0.1c2.3,0.6,4.1,0.2,6.6-1C-101.8,457.5-101.6,457.6-101.8,457.7z"/>
											</g>
										</g>
									</g>
									<path class="st5" d="M-76,451.8c0,0.2-0.1,0.3-0.1,0.5c-0.1,0.2-0.2,0.4-0.3,0.6c0,0,0,0,0,0c-0.1,0.2-0.1,0.3-0.2,0.4
										c-0.3,0.6-0.6,1-0.9,1.3c-0.3,0.3-0.6,0.5-0.9,0.6h0c-0.4,0.2-0.9,0.3-1.4,0.2c0.7-1.2,1.6-2.3,2.7-3.1
										C-76.7,452.2-76.4,451.9-76,451.8z"/>
									<path class="st5" d="M-74.5,440.4c0,0.6-0.1,1.2-0.1,1.9c0,0.6-0.1,1.2-0.2,1.9c-0.1,1.1-0.3,2.3-0.5,3.5
										c-0.4,0.1-0.7,0.3-1.1,0.5c-3,1.8-5.9,5.6-5.9,5.6l-0.1,0.4c-1.7-1.8-2.9-5-2.5-9.1c0.1-1.3,0.2-2.5,0.2-3.6
										c0-0.7,0-1.3,0-1.9v0c0-0.7-0.1-1.3-0.2-2c-0.7-5.1-2.9-9-7.1-10.5c-0.1,0-0.2-0.1-0.3-0.1c-3.5-1.1-7.9,0.2-11.3,0.3
										c-1.1,0.1-2.1,0-2.9-0.4c-2.4-1-3-3.2-4.3-3.3c-0.9-0.1-1.9,1.5-2.5,2.4c0,0.1-0.1,0.1-0.1,0.2c0,0,0,0,0,0.1
										c1.5-3.2,3-5.8,4.6-6.9c2.8-2,6.2-3.1,9.6-3.3h0c3.5-0.3,7.2,0.3,10.5,1.6c6.3,2.4,11.7,7.3,13.6,14
										C-74.5,433.7-74.3,436.8-74.5,440.4z"/>
									<g>
										<path class="st16" d="M-117.9,430c0,0,7.3-24.9,29.5-18.6c22.3,6.3,15.4,31.3,15.4,31.3L-117.9,430z"/>
										<polygon class="st16" points="-70.8,441.5 -71.8,445 -74.8,444.1 -75.9,443.8 -84.7,441.3 -116,432.5 -120.1,431.3 
											-119.1,427.8 -117.3,428.3 -114.8,429 -105.4,431.7 -105.4,431.7 -95.3,434.5 -84.9,437.5 -75.7,440.1 -74.5,440.4 
											-72.6,441 										"/>
										<g>
											<polygon class="st16" points="-95.3,434.5 -105.4,431.7 -96.1,407.9 -86,410.7 											"/>
											<polygon class="st17" points="-95.3,434.5 -105.4,431.7 -96.1,407.9 -86,410.7 											"/>
										</g>
									</g>
									<g>
										<path class="st14" d="M-78.4,455.3c-0.6,1-1.1,2-1.6,3.1c0.5-0.6,1.2-1.1,1.9-1.2c0.6-0.1,1.3,0.1,2,0.6
											c0.1,0.1,0,0.2-0.1,0.2c-0.8-0.2-1.5-0.2-2.1,0.1v0c-0.4,0.2-0.7,0.4-1.1,0.8c-0.7,0.7-1.1,1.6-1.6,2.5
											c-0.2,0.3-0.7,0.1-0.5-0.2c0,0,0,0,0-0.1c0-1.7,0.6-3.7,1.7-5.5c0.7-1.2,1.6-2.3,2.7-3.1c0.3-0.3,0.7-0.5,1-0.7
											c0.7-0.4,1.5-0.6,2.3-0.6c0.1,0,0.1,0.1,0,0.1c-1,0.4-1.9,0.9-2.7,1.6c0,0,0,0,0,0c-0.1,0.2-0.1,0.3-0.2,0.4
											c-0.3,0.6-0.6,1-0.9,1.3C-77.8,454.9-78.1,455.1-78.4,455.3L-78.4,455.3z"/>
										<path class="st5" d="M-78.4,455.3c-0.6,1-1.1,2-1.6,3.1c0.5-0.6,1.2-1.1,1.9-1.2c0.6-0.1,1.3,0.1,2,0.6
											c0.1,0.1,0,0.2-0.1,0.2c-0.8-0.2-1.5-0.2-2.1,0.1v0c-0.4,0.2-0.7,0.4-1.1,0.8c-0.7,0.7-1.1,1.6-1.6,2.5
											c-0.2,0.3-0.7,0.1-0.5-0.2c0,0,0,0,0-0.1c0-1.7,0.6-3.7,1.7-5.5c0.7-1.2,1.6-2.3,2.7-3.1c0.3-0.3,0.7-0.5,1-0.7
											c0.7-0.4,1.5-0.6,2.3-0.6c0.1,0,0.1,0.1,0,0.1c-1,0.4-1.9,0.9-2.7,1.6c0,0,0,0,0,0c-0.3,0.3-0.6,0.6-0.9,0.9
											C-77.7,454.3-78.1,454.8-78.4,455.3L-78.4,455.3z"/>
									</g>
								</g>
							</g>
							<g>
								<path class="st16" d="M-75.8,484.2c0,0-0.1,0.2-0.2,0.4c-0.1,0.3-0.3,0.6-0.5,1.1c-0.7,1.5-1.9,3.8-3.2,6.6
									c-2.6,5.4-6,12.3-8.5,17c-0.2,0.4-0.4,0.8-0.6,1.1c-1.5,2.9-2.6,4.8-2.6,4.4l-7.5-12.4l-8.1,9.9l-1.2-17.8l0-0.7l-0.3-3.9
									v-0.1l0-0.1l2.3-4.7l0.1,0.1l0.1,0.2l0.4,0.7l0.1,0.3l0.4,0.8l6.5,12.4l15.8-19.6l1.1-1.3l0,0l4.8,4.6l0,0L-75.8,484.2z"/>
								<path class="st5" d="M-76.5,485.8c-0.5,1.3-1.7,3.9-3.1,7c-2.4,5.1-5.6,11.5-8,16.4v0c-0.3,0.6-0.6,1.1-0.8,1.6
									c-1.6,3.1-2.7,5.2-2.7,5.2c-0.2,0-6.9-11-7.8-13.1c-1.2,1.8-8.4,11.1-8.4,10.5c-0.5-3.7-0.8-8.6-1-12.3
									c-0.1-1.9-0.2-3.8-0.2-5.6c0-0.3,0-0.5,0-0.8c0-1.5-0.1-3-0.1-4.5v-0.4c0-0.1,0.1-0.2,0.2-0.1c0,0,0,0,0,0c0,0,0,0,0,0
									c0.2,0.7,0.4,1.8,0.6,3.1c0,0.2,0.1,0.4,0.1,0.7c0.6,5.7,0.9,14.9,1.2,17.6c0,0,0,0,0,0c0.3-0.4,7.4-8.6,7.6-8.6
									c1.5,1.9,7,10.9,7.4,11.8c0.5-1,1.2-2.5,2.2-4.4c0-0.1,0.1-0.2,0.1-0.3c2.6-5.1,6.3-12.5,9.2-17.9c1.4-2.6,2.5-4.7,3.3-5.9
									c0-0.1,0.1-0.1,0.2-0.1C-76.5,485.7-76.4,485.8-76.5,485.8z"/>
							</g>
						</g>
					</g>
				</g>
			</g>
		</g>
		<g>
			<path class="st15" d="M-38,549.8c-1.8-2.8-9.5-2.4-10.3-2.3c0.8-0.3,8-2.6,5.5-6.6c-1.7-2.8-9.9-2.5-11.3-2.3
				c0,0-0.1,0.1-0.4,0.2c-2.2,0.6-4.2,1.2-6,1.8c-0.3,0.1-0.6,0.2-0.9,0.3c-0.2,0.1-0.5,0.2-0.7,0.2c-0.1,0-0.3,0.1-0.4,0.2
				c-0.1,0-0.2,0.1-0.3,0.1c-0.3,0.1-0.6,0.2-0.8,0.3c-0.3,0.1-0.5,0.2-0.8,0.3c-0.7,0.3-1.4,0.6-2,0.9c-0.7,0.3-1.4,0.7-2.1,1.1
				c-0.1,0.1-0.2,0.1-0.3,0.2c-0.3,0.2-0.7,0.4-1,0.6c-0.3,0.2-0.6,0.3-0.9,0.5c-0.2,0.1-0.5,0.3-0.7,0.4c-0.2,0.2-0.5,0.3-0.7,0.5
				c-1.7,1.1-3.4,2.4-5.3,4c-0.2,0.1-0.4-0.1-0.3-0.3c1.7-1.7,3.3-3.1,5-4.3c0.8-0.6,1.7-1.2,2.5-1.8c0.3-0.2,0.5-0.3,0.8-0.5
				c0.8-0.5,1.7-0.9,2.5-1.3c0.3-0.2,0.7-0.3,1-0.5c0.1,0,0.2-0.1,0.3-0.1c0.4-0.2,0.7-0.3,1.1-0.5c0.2-0.1,0.3-0.1,0.5-0.2
				c0.2-0.1,0.5-0.2,0.7-0.3c0.1,0,0.2-0.1,0.3-0.1c0.1-0.1,0.3-0.1,0.4-0.1c0.1,0,0.2-0.1,0.3-0.1c0.1,0,0.2-0.1,0.3-0.1
				c0,0,0.1,0,0.1,0c0.2-0.1,0.3-0.1,0.5-0.2c2-0.6,4.2-1,6.5-1.3c0.3,0,0.5,0,0.5,0c1.1-0.3,7-1.5,4.1-4.8c-1.3-1.4-7.5-1.1-14,0.1
				c-0.2,0-0.5,0.1-0.7,0.1c-0.2,0-0.3,0.1-0.5,0.1c0,0-0.1,0-0.1,0c-0.3,0.1-0.7,0.1-1,0.2c-3.5,0.8-6.9,1.9-9.2,3.1
				c-1.1,0.5-2.1,1.1-3.2,1.7c-9.3,5.6-16.8,14.3-16.8,14.3c11.7,3,25.2,7.9,31.2,10.3c1-0.9,2.8-2.3,5.3-3.6c0.6-0.3,1.2-0.7,1.9-1
				c0.2-0.1,0.4-0.2,0.7-0.3c0.2-0.1,0.3-0.1,0.5-0.2c0.1,0,0.2-0.1,0.3-0.1c0.1-0.1,0.3-0.1,0.5-0.2c0.9-0.4,1.9-0.8,2.9-1.1
				c0.2-0.1,0.4-0.1,0.6-0.2c0.5-0.1,0.9-0.3,1.4-0.4c0.5-0.1,0.9-0.2,1.4-0.3c0.3-0.1,0.6-0.1,0.9-0.2c0.3,0,0.5-0.1,0.8-0.1
				c0.3,0,0.7-0.1,1-0.1c0.5-0.1,1.1-0.1,1.6-0.1c0.2,0,0.3,0,0.3,0.1C-43.1,555.5-35.5,553.6-38,549.8z M-48.7,547.7
				c-1.5,0.3-2.8,0.6-4.1,0.9c-0.5,0.1-0.9,0.2-1.4,0.4c-0.4,0.1-0.8,0.2-1.2,0.3c-0.6,0.2-1.1,0.3-1.6,0.5
				c-0.3,0.1-0.6,0.2-0.9,0.3c-0.2,0.1-0.4,0.1-0.6,0.2c-0.1,0-0.3,0.1-0.4,0.1c-0.1,0-0.3,0.1-0.4,0.2c-0.1,0-0.1,0-0.2,0.1
				c-0.4,0.2-0.8,0.3-1.3,0.5c-0.5,0.2-1,0.4-1.5,0.7c-0.5,0.2-1,0.5-1.4,0.7c-0.5,0.2-1,0.5-1.5,0.8c-2.2,1.2-4.4,2.5-7.1,4.2
				c-0.1,0.1-0.3-0.1-0.1-0.2c2.4-1.8,4.6-3.3,6.7-4.6c0.5-0.3,1-0.6,1.5-0.9c0.4-0.2,0.8-0.5,1.2-0.7c0.3-0.2,0.6-0.3,1-0.5
				c0.6-0.3,1.2-0.5,1.8-0.8c0.2-0.1,0.5-0.2,0.7-0.3c0.1-0.1,0.3-0.1,0.4-0.2c0.1,0,0.3-0.1,0.4-0.1c0.2-0.1,0.4-0.1,0.6-0.2
				c0.3-0.1,0.7-0.2,1-0.3c0.3-0.1,0.6-0.2,1-0.3c0.3-0.1,0.5-0.1,0.8-0.2c0.4-0.1,0.8-0.2,1.2-0.3c0.1,0,0.2,0,0.3,0
				c0.3-0.1,0.5-0.1,0.8-0.1c1.4-0.3,3-0.4,4.6-0.5C-48.3,547.4-48.2,547.6-48.7,547.7z"/>
			<path class="st14" d="M-54.1,538.5c0,0-0.1,0.1-0.4,0.2c-2.2,0.6-4.2,1.2-6,1.8c-0.3,0.1-0.6,0.2-0.9,0.3
				c-0.2,0.1-0.5,0.2-0.7,0.2c-0.1,0-0.3,0.1-0.4,0.2c-0.1,0-0.2,0.1-0.3,0.1c-0.3,0.1-0.6,0.2-0.8,0.3c-0.3,0.1-0.5,0.2-0.8,0.3
				c-0.7,0.3-1.4,0.6-2,0.9c-0.7,0.3-1.4,0.7-2.1,1.1c-0.1,0.1-0.2,0.1-0.3,0.2c-0.3,0.2-0.7,0.4-1,0.6c-0.3,0.2-0.6,0.3-0.9,0.5
				c-0.2,0.1-0.5,0.3-0.7,0.4c-0.2,0.2-0.5,0.3-0.7,0.5c-1.7,1.1-3.4,2.4-5.3,4c-0.2,0.1-0.4-0.1-0.3-0.3c1.7-1.7,3.3-3.1,5-4.3
				c0.8-0.6,1.7-1.2,2.5-1.8c0.3-0.2,0.5-0.3,0.8-0.5c0.8-0.5,1.7-0.9,2.5-1.3c0.3-0.2,0.7-0.3,1-0.5c0.1,0,0.2-0.1,0.3-0.1
				c0.4-0.2,0.7-0.3,1.1-0.5c0.2-0.1,0.3-0.1,0.5-0.2c0.2-0.1,0.5-0.2,0.7-0.3c0.1,0,0.2-0.1,0.3-0.1c0.1-0.1,0.3-0.1,0.4-0.1
				c0.1,0,0.2-0.1,0.3-0.1c0.1,0,0.2-0.1,0.3-0.1c0,0,0.1,0,0.1,0c0.2-0.1,0.3-0.1,0.5-0.2c2-0.6,4.2-1,6.5-1.3
				C-54.3,538.4-54.2,538.5-54.1,538.5C-54.1,538.5-54.2,538.5-54.1,538.5C-54.2,538.5-54.1,538.5-54.1,538.5z"/>
			<path class="st14" d="M-48.7,547.7c-1.5,0.3-2.8,0.6-4.1,0.9c-0.5,0.1-0.9,0.2-1.4,0.4c-0.4,0.1-0.8,0.2-1.2,0.3
				c-0.6,0.2-1.1,0.3-1.6,0.5c-0.3,0.1-0.6,0.2-0.9,0.3c-0.2,0.1-0.4,0.1-0.6,0.2c-0.1,0-0.3,0.1-0.4,0.1c-0.1,0-0.3,0.1-0.4,0.2
				c-0.1,0-0.1,0-0.2,0.1c-0.4,0.2-0.8,0.3-1.3,0.5c-0.5,0.2-1,0.4-1.5,0.7c-0.5,0.2-1,0.5-1.4,0.7c-0.5,0.2-1,0.5-1.5,0.8
				c-2.2,1.2-4.4,2.5-7.1,4.2c-0.1,0.1-0.3-0.1-0.1-0.2c2.4-1.8,4.6-3.3,6.7-4.6c0.5-0.3,1-0.6,1.5-0.9c0.4-0.2,0.8-0.5,1.2-0.7
				c0.3-0.2,0.6-0.3,1-0.5c0.6-0.3,1.2-0.5,1.8-0.8c0.2-0.1,0.5-0.2,0.7-0.3c0.1-0.1,0.3-0.1,0.4-0.2c0.1,0,0.3-0.1,0.4-0.1
				c0.2-0.1,0.4-0.1,0.6-0.2c0.3-0.1,0.7-0.2,1-0.3c0.3-0.1,0.6-0.2,1-0.3c0.3-0.1,0.5-0.1,0.8-0.2c0.4-0.1,0.8-0.2,1.2-0.3
				c0.1,0,0.2,0,0.3,0c0.3-0.1,0.5-0.1,0.8-0.1c1.4-0.3,3-0.4,4.6-0.5C-48.3,547.4-48.2,547.6-48.7,547.7z"/>
			<path class="st15" d="M-37.1,559.8c0.1,1.2-0.9,2.2-2.3,3l-0.4,0.2c-0.3,0.1-0.5,0.3-0.8,0.4c-0.3,0.1-0.6,0.3-0.9,0.4
				c-0.3,0.1-0.6,0.2-1,0.3c-0.2,0-0.3,0.1-0.5,0.2c-0.2,0.1-0.3,0.1-0.5,0.2s-0.3,0.1-0.5,0.1c-0.3,0.1-0.7,0.2-1,0.3
				c-0.1,0-0.1,0-0.2,0c-0.3,0.1-0.6,0.2-0.9,0.2c-0.2,0-0.3,0.1-0.5,0.1c-0.3,0.1-0.7,0.2-1,0.2c-0.2,0-0.3,0.1-0.5,0.1
				c-0.2,0-0.3,0.1-0.5,0.1c-0.1,0-0.3,0.1-0.4,0.1c-0.1,0-0.2,0-0.4,0.1c0,0-0.1,0-0.1,0c-0.3,0.1-0.6,0.1-0.8,0.2
				c-0.1,0-0.3,0-0.4,0.1c-0.2,0-0.4,0.1-0.5,0.1l-0.1,0c-0.1,0-0.2,0-0.3,0.1c-0.3,0.1-0.6,0.1-0.7,0.2c-0.1,0-0.1,0-0.2,0.1
				c0,0,0,0-0.1,0c0,0-0.1,0-0.1,0c0,0,0,0-0.1,0c-0.1,0-0.2,0.1-0.3,0.1c-0.4,0.2-0.8,0.4-1.2,0.7v0c0,0-0.1,0.1-0.2,0.1
				c-0.8-0.1-4.1-1.7-9.4-3.8c1-0.8,3-1.9,5.5-3.2c0.7-0.4,1.5-0.7,2.3-1.1c0.2-0.1,0.3-0.1,0.5-0.2c0.1,0,0.2-0.1,0.3-0.1
				c0.1-0.1,0.3-0.1,0.4-0.2c0,0,0.1,0,0.2-0.1c0.4-0.1,0.7-0.3,1.1-0.4c0.3-0.1,0.6-0.3,1-0.4c0.2-0.1,0.3-0.1,0.5-0.2
				c0.5-0.2,1-0.3,1.5-0.5c0.4-0.1,0.8-0.3,1.2-0.4c1.2-0.4,2.5-0.7,3.7-0.9c0.4-0.1,0.8-0.2,1.2-0.2c0.3,0,0.4-0.2,0.3-0.2
				C-43.2,555.6-37.5,555.4-37.1,559.8z"/>
			<path class="st14" d="M-44.5,555.9c-0.4,0-0.8,0.1-1.2,0.2c-1.2,0.2-2.4,0.5-3.7,0.9c-0.4,0.1-0.8,0.3-1.2,0.4
				c-0.5,0.2-1,0.3-1.5,0.5c-0.2,0.1-0.3,0.1-0.5,0.2c-0.3,0.1-0.7,0.3-1,0.4c-0.4,0.1-0.7,0.3-1.1,0.4c0,0-0.1,0-0.2,0.1
				c-0.2,0.1-0.3,0.1-0.4,0.2c-0.1,0-0.2,0.1-0.3,0.1c-0.2,0.1-0.3,0.1-0.5,0.2c-0.8,0.4-1.6,0.7-2.3,1.1c-2.5,1.3-4.5,2.4-5.5,3.2
				c-0.1,0-0.3-0.1-0.4-0.2c1-0.9,2.8-2.3,5.3-3.6c0.6-0.3,1.2-0.7,1.9-1c0.2-0.1,0.4-0.2,0.7-0.3c0.2-0.1,0.3-0.1,0.5-0.2
				c0.1,0,0.2-0.1,0.3-0.1c0.1-0.1,0.3-0.1,0.5-0.2c0.9-0.4,1.9-0.8,2.9-1.1c0.2-0.1,0.4-0.1,0.6-0.2c0.5-0.1,0.9-0.3,1.4-0.4
				c0.5-0.1,0.9-0.2,1.4-0.3c0.3-0.1,0.6-0.1,0.9-0.2c0.3,0,0.5-0.1,0.8-0.1c0.3,0,0.7-0.1,1-0.1c0.5-0.1,1.1-0.1,1.6-0.1
				c0.2,0,0.3,0,0.3,0.1c0,0,0,0,0,0h0C-44,555.8-44.2,555.9-44.5,555.9z"/>
			<g>
				<path class="st5" d="M-44.5,555.9c-0.4,0-0.8,0.1-1.2,0.2c-1.2,0.2-2.4,0.5-3.7,0.9c-0.4,0.1-0.8,0.3-1.2,0.4
					c-0.5,0.2-1,0.3-1.5,0.5c-0.2,0.1-0.3,0.1-0.5,0.2c-0.3,0.1-0.7,0.3-1,0.4c-0.4,0.1-0.7,0.3-1.1,0.4c0,0-0.1,0-0.2,0.1
					c-0.2,0.1-0.3,0.1-0.4,0.2c-0.1,0-0.2,0.1-0.3,0.1c-0.2,0.1-0.3,0.1-0.5,0.2c-0.8,0.4-1.6,0.7-2.3,1.1c-2.5,1.3-4.5,2.4-5.5,3.2
					c-0.1,0-0.3-0.1-0.4-0.2c1-0.9,2.8-2.3,5.3-3.6c0.6-0.3,1.2-0.7,1.9-1c0.2-0.1,0.4-0.2,0.7-0.3c0.2-0.1,0.3-0.1,0.5-0.2
					c0.1,0,0.2-0.1,0.3-0.1c0.1-0.1,0.3-0.1,0.5-0.2c0.9-0.4,1.9-0.8,2.9-1.1c0.2-0.1,0.4-0.1,0.6-0.2c0.5-0.1,0.9-0.3,1.4-0.4
					c0.5-0.1,0.9-0.2,1.4-0.3c0.3-0.1,0.6-0.1,0.9-0.2c0.3,0,0.5-0.1,0.8-0.1c0.3,0,0.7-0.1,1-0.1c0.5-0.1,1.1-0.1,1.6-0.1
					c0.2,0,0.3,0,0.3,0.1v0C-44,555.8-44.2,555.9-44.5,555.9z"/>
				<path class="st5" d="M-48.7,547.7c-1.5,0.3-2.8,0.6-4.1,0.9c-0.5,0.1-0.9,0.2-1.4,0.4c-0.4,0.1-0.8,0.2-1.2,0.3
					c-0.6,0.2-1.1,0.3-1.6,0.5c-0.3,0.1-0.6,0.2-0.9,0.3c-0.2,0.1-0.4,0.1-0.6,0.2c-0.1,0-0.3,0.1-0.4,0.1c-0.1,0-0.3,0.1-0.4,0.2
					c-0.1,0-0.1,0-0.2,0.1c-0.4,0.2-0.8,0.3-1.3,0.5c-0.5,0.2-1,0.4-1.5,0.7c-0.5,0.2-1,0.5-1.4,0.7c-0.5,0.2-1,0.5-1.5,0.8
					c-2.2,1.2-4.4,2.5-7.1,4.2c-0.1,0.1-0.3-0.1-0.1-0.2c2.4-1.8,4.6-3.3,6.7-4.6c0.5-0.3,1-0.6,1.5-0.9c0.4-0.2,0.8-0.5,1.2-0.7
					c0.3-0.2,0.6-0.3,1-0.5c0.6-0.3,1.2-0.5,1.8-0.8c0.2-0.1,0.5-0.2,0.7-0.3c0.1-0.1,0.3-0.1,0.4-0.2c0.1,0,0.3-0.1,0.4-0.1
					c0.2-0.1,0.4-0.1,0.6-0.2c0.3-0.1,0.7-0.2,1-0.3c0.3-0.1,0.6-0.2,1-0.3c0.3-0.1,0.5-0.1,0.8-0.2c0.4-0.1,0.8-0.2,1.2-0.3
					c0.1,0,0.2,0,0.3,0c0.3-0.1,0.5-0.1,0.8-0.1c1.4-0.3,3-0.4,4.6-0.5C-48.3,547.4-48.2,547.6-48.7,547.7z"/>
				<path class="st5" d="M-54.1,538.5c0,0-0.1,0.1-0.4,0.2c-2.2,0.6-4.2,1.2-6,1.8c-0.3,0.1-0.6,0.2-0.9,0.3
					c-0.2,0.1-0.5,0.2-0.7,0.2c-0.1,0-0.3,0.1-0.4,0.2c-0.1,0-0.2,0.1-0.3,0.1c-0.3,0.1-0.6,0.2-0.8,0.3c-0.3,0.1-0.5,0.2-0.8,0.3
					c-0.7,0.3-1.4,0.6-2,0.9c-0.7,0.3-1.4,0.7-2.1,1.1c-0.1,0.1-0.2,0.1-0.3,0.2c-0.3,0.2-0.7,0.4-1,0.6c-0.3,0.2-0.6,0.3-0.9,0.5
					c-0.2,0.1-0.5,0.3-0.7,0.4c-0.2,0.2-0.5,0.3-0.7,0.5c-1.7,1.1-3.4,2.4-5.3,4c-0.2,0.1-0.4-0.1-0.3-0.3c1.7-1.7,3.3-3.1,5-4.3
					c0.8-0.6,1.7-1.2,2.5-1.8c0.3-0.2,0.5-0.3,0.8-0.5c0.8-0.5,1.7-0.9,2.5-1.3c0.3-0.2,0.7-0.3,1-0.5c0.1,0,0.2-0.1,0.3-0.1
					c0.4-0.2,0.7-0.3,1.1-0.5c0.2-0.1,0.3-0.1,0.5-0.2c0.2-0.1,0.5-0.2,0.7-0.3c0.1,0,0.2-0.1,0.3-0.1c0.1-0.1,0.3-0.1,0.4-0.1
					c0.1,0,0.2-0.1,0.3-0.1c0.1,0,0.2-0.1,0.3-0.1c0,0,0.1,0,0.1,0c0.2-0.1,0.3-0.1,0.5-0.2c2-0.6,4.2-1,6.5-1.3
					C-54.3,538.4-54.2,538.5-54.1,538.5C-54.1,538.5-54.1,538.5-54.1,538.5z"/>
			</g>
		</g>
		<path class="st18" d="M-66.3,534.3c-3.5,0.8-6.9,1.9-9.2,3.1c-1.1,0.5-2.1,1.1-3.2,1.7l-2.8-3c-4.8,1.5-10.3,0.2-14-3.7
			c-3.7-4-4.7-9.5-2.9-14.3l7.8,8.2l6-2.6l3-5.8l-6.6-7l-0.4-0.4l-0.5-0.6l-0.2-0.2c0.1,0,0.2-0.1,0.3-0.1c0.3-0.1,0.6-0.2,1-0.2
			c0.2,0,0.4-0.1,0.6-0.1v0c4.3-0.6,8.9,0.8,12.1,4.2c3.7,3.9,4.7,9.5,2.9,14.2L-66.3,534.3z"/>
	</g>
	<path class="st18" d="M-60.5,540.5c-0.3,0.1-0.6,0.2-0.9,0.3c-0.2,0.1-0.5,0.2-0.7,0.2c-0.1,0-0.3,0.1-0.4,0.2
		c-0.1,0-0.2,0.1-0.3,0.1c-0.3,0.1-0.6,0.2-0.8,0.3c-0.3,0.1-0.5,0.2-0.8,0.3c-0.7,0.3-1.4,0.6-2,0.9c-0.7,0.3-1.4,0.7-2.1,1.1
		c-0.1,0.1-0.2,0.1-0.3,0.2c-0.3,0.2-0.7,0.4-1,0.6c-0.3,0.2-0.6,0.3-0.9,0.5c-0.2,0.1-0.5,0.3-0.7,0.4c-0.2,0.2-0.5,0.3-0.7,0.5
		l-0.6-0.6c0.8-0.6,1.7-1.2,2.5-1.8c0.3-0.2,0.5-0.3,0.8-0.5c0.8-0.5,1.7-0.9,2.5-1.3c0.3-0.2,0.7-0.3,1-0.5c0.1,0,0.2-0.1,0.3-0.1
		c0.4-0.2,0.7-0.3,1.1-0.5c0.2-0.1,0.3-0.1,0.5-0.2c0.2-0.1,0.5-0.2,0.7-0.3c0.1,0,0.2-0.1,0.3-0.1c0.1-0.1,0.3-0.1,0.4-0.1
		c0.1,0,0.2-0.1,0.3-0.1c0.1,0,0.2-0.1,0.3-0.1c0,0,0.1,0,0.1,0c0.2-0.1,0.3-0.1,0.5-0.2L-60.5,540.5z"/>
	<path class="st18" d="M-52.8,548.6c-0.5,0.1-0.9,0.2-1.4,0.4c-0.4,0.1-0.8,0.2-1.2,0.3c-0.6,0.2-1.1,0.3-1.6,0.5
		c-0.3,0.1-0.6,0.2-0.9,0.3c-0.2,0.1-0.4,0.1-0.6,0.2c-0.1,0-0.3,0.1-0.4,0.1c-0.1,0-0.3,0.1-0.4,0.2c-0.1,0-0.1,0-0.2,0.1
		c-0.4,0.2-0.8,0.3-1.3,0.5c-0.5,0.2-1,0.4-1.5,0.7c-0.5,0.2-1,0.5-1.4,0.7c-0.5,0.2-1,0.5-1.5,0.8l-0.6-0.6c0.5-0.3,1-0.6,1.5-0.9
		c0.4-0.2,0.8-0.5,1.2-0.7c0.3-0.2,0.6-0.3,1-0.5c0.6-0.3,1.2-0.5,1.8-0.8c0.2-0.1,0.5-0.2,0.7-0.3c0.1-0.1,0.3-0.1,0.4-0.2
		c0.1,0,0.3-0.1,0.4-0.1c0.2-0.1,0.4-0.1,0.6-0.2c0.3-0.1,0.7-0.2,1-0.3c0.3-0.1,0.6-0.2,1-0.3c0.3-0.1,0.5-0.1,0.8-0.2
		c0.4-0.1,0.8-0.2,1.2-0.3c0.1,0,0.2,0,0.3,0c0.3-0.1,0.5-0.1,0.8-0.1L-52.8,548.6z"/>
	<path class="st18" d="M-45.7,556.1c-1.2,0.2-2.4,0.5-3.7,0.9c-0.4,0.1-0.8,0.3-1.2,0.4c-0.5,0.2-1,0.3-1.5,0.5
		c-0.2,0.1-0.3,0.1-0.5,0.2c-0.3,0.1-0.7,0.3-1,0.4c-0.4,0.1-0.7,0.3-1.1,0.4c0,0-0.1,0-0.2,0.1c-0.2,0.1-0.3,0.1-0.4,0.2
		c-0.1,0-0.2,0.1-0.3,0.1c-0.2,0.1-0.3,0.1-0.5,0.2c-0.8,0.4-1.6,0.7-2.3,1.1L-59,560c0.6-0.3,1.2-0.7,1.9-1
		c0.2-0.1,0.4-0.2,0.7-0.3c0.2-0.1,0.3-0.1,0.5-0.2c0.1,0,0.2-0.1,0.3-0.1c0.1-0.1,0.3-0.1,0.5-0.2c0.9-0.4,1.9-0.8,2.9-1.1
		c0.2-0.1,0.4-0.1,0.6-0.2c0.5-0.1,0.9-0.3,1.4-0.4c0.5-0.1,0.9-0.2,1.4-0.3c0.3-0.1,0.6-0.1,0.9-0.2c0.3,0,0.5-0.1,0.8-0.1
		c0.3,0,0.7-0.1,1-0.1L-45.7,556.1z"/>
	<path class="st18" d="M-18.1,585.4l-7.8-8.2l-6,2.6l-0.8,1.5l-0.3,0.7l-1.9,3.6l7.8,8.2c-4.9,1.5-10.3,0.2-14.1-3.7
		c-3.7-3.9-4.7-9.5-2.9-14.3l-1.1-1.1l-3.2-3.4l-3.8-4.1l-0.2-0.3l-0.3-0.4c0,0,0.1,0,0.1,0c0,0,0,0,0.1,0c0,0,0.1,0,0.2-0.1
		c0.2,0,0.4-0.1,0.7-0.2c0.1,0,0.2,0,0.3-0.1l0.1,0c0.2,0,0.3-0.1,0.5-0.1c0.1,0,0.3,0,0.4-0.1c0.3,0,0.5-0.1,0.8-0.2
		c0,0,0.1,0,0.1,0c0.1,0,0.2,0,0.4-0.1c0.1,0,0.3-0.1,0.4-0.1c0.2,0,0.3-0.1,0.5-0.1c0.2,0,0.3-0.1,0.5-0.1c0.3-0.1,0.7-0.2,1-0.2
		c0.2,0,0.3-0.1,0.5-0.1c0.3-0.1,0.6-0.1,0.9-0.2c0,0,0.1,0,0.2,0c0.3-0.1,0.7-0.2,1-0.3c0.2,0,0.3-0.1,0.5-0.1s0.3-0.1,0.5-0.2
		c0.2,0,0.3-0.1,0.5-0.2c0.3-0.1,0.7-0.2,1-0.3c0.3-0.1,0.6-0.3,0.9-0.4c0.3-0.1,0.6-0.3,0.8-0.4l0.4-0.2l4.4,4.6
		c4.9-1.5,10.4-0.2,14.1,3.7C-17.3,575.1-16.3,580.6-18.1,585.4z"/>
</g>
</svg>
