<?xml version="1.0" encoding="utf-8"?>
<!-- Generator: Adobe Illustrator 19.0.0, SVG Export Plug-In . SVG Version: 6.00 Build 0)  -->
<svg version="1.1" id="Layer_1" xmlns="http://www.w3.org/2000/svg" xmlns:xlink="http://www.w3.org/1999/xlink" x="0px" y="0px"
	 width="550px" height="400px" viewBox="117.5 56.2 550 400" enable-background="new 117.5 56.2 550 400" xml:space="preserve">
<circle id="XMLID_80_" opacity="0.4" fill="#1899D4" cx="153" cy="171.1" r="1.8"/>
<circle id="XMLID_79_" opacity="0.4" fill="#1899D4" cx="172.9" cy="171.1" r="1.8"/>
<circle id="XMLID_78_" opacity="0.4" fill="#1899D4" cx="192.9" cy="171.1" r="1.8"/>
<circle id="XMLID_77_" opacity="0.4" fill="#1899D4" cx="212.9" cy="171.1" r="1.8"/>
<circle id="XMLID_76_" opacity="0.4" fill="#1899D4" cx="232.8" cy="171.1" r="1.8"/>
<circle id="XMLID_75_" opacity="0.4" fill="#1899D4" cx="252.8" cy="171.1" r="1.8"/>
<circle id="XMLID_74_" opacity="0.4" fill="#1899D4" cx="272.7" cy="171.1" r="1.8"/>
<circle id="XMLID_66_" opacity="0.4" fill="#1899D4" cx="172.9" cy="188.2" r="1.8"/>
<circle id="XMLID_65_" opacity="0.4" fill="#1899D4" cx="192.9" cy="188.2" r="1.8"/>
<circle id="XMLID_64_" opacity="0.4" fill="#1899D4" cx="212.9" cy="188.2" r="1.8"/>
<circle id="XMLID_62_" opacity="0.4" fill="#1899D4" cx="252.8" cy="188.2" r="1.8"/>
<circle id="XMLID_52_" opacity="0.4" fill="#1899D4" cx="192.9" cy="205.2" r="1.8"/>
<circle id="XMLID_51_" opacity="0.4" fill="#1899D4" cx="212.9" cy="205.2" r="1.8"/>
<circle id="XMLID_49_" opacity="0.4" fill="#1899D4" cx="252.8" cy="205.2" r="1.8"/>
<circle id="XMLID_39_" opacity="0.4" fill="#1899D4" cx="192.9" cy="222.2" r="1.8"/>
<circle id="XMLID_38_" opacity="0.4" fill="#1899D4" cx="212.9" cy="222.2" r="1.8"/>
<circle id="XMLID_37_" opacity="0.4" fill="#1899D4" cx="232.8" cy="222.2" r="1.8"/>
<circle id="XMLID_36_" opacity="0.4" fill="#1899D4" cx="252.8" cy="222.2" r="1.8"/>
<circle id="XMLID_27_" opacity="0.4" fill="#1899D4" cx="172.9" cy="239.2" r="1.8"/>
<circle id="XMLID_25_" opacity="0.4" fill="#1899D4" cx="212.9" cy="239.2" r="1.8"/>
<circle id="XMLID_23_" opacity="0.4" fill="#1899D4" cx="252.8" cy="239.2" r="1.8"/>
<circle id="XMLID_14_" opacity="0.4" fill="#1899D4" cx="172.9" cy="256.2" r="1.8"/>
<circle id="XMLID_13_" opacity="0.4" fill="#1899D4" cx="192.9" cy="256.2" r="1.8"/>
<circle id="XMLID_12_" opacity="0.4" fill="#1899D4" cx="212.9" cy="256.2" r="1.8"/>
<circle id="XMLID_10_" opacity="0.4" fill="#1899D4" cx="252.8" cy="256.2" r="1.8"/>
<circle id="XMLID_158_" opacity="0.4" fill="#1899D4" cx="172.9" cy="256.2" r="1.8"/>
<circle id="XMLID_157_" opacity="0.4" fill="#1899D4" cx="192.9" cy="256.2" r="1.8"/>
<circle id="XMLID_156_" opacity="0.4" fill="#1899D4" cx="212.9" cy="256.2" r="1.8"/>
<circle id="XMLID_154_" opacity="0.4" fill="#1899D4" cx="252.8" cy="256.2" r="1.8"/>
<circle id="XMLID_146_" opacity="0.4" fill="#1899D4" cx="153" cy="273.2" r="1.8"/>
<circle id="XMLID_145_" opacity="0.4" fill="#1899D4" cx="172.9" cy="273.2" r="1.8"/>
<circle id="XMLID_144_" opacity="0.4" fill="#1899D4" cx="192.9" cy="273.2" r="1.8"/>
<circle id="XMLID_143_" opacity="0.4" fill="#1899D4" cx="212.9" cy="273.2" r="1.8"/>
<circle id="XMLID_141_" opacity="0.4" fill="#1899D4" cx="252.8" cy="273.2" r="1.8"/>
<circle id="XMLID_131_" opacity="0.4" fill="#1899D4" cx="192.9" cy="290.2" r="1.8"/>
<circle id="XMLID_130_" opacity="0.4" fill="#1899D4" cx="212.9" cy="290.2" r="1.8"/>
<circle id="XMLID_128_" opacity="0.4" fill="#1899D4" cx="252.8" cy="290.2" r="1.8"/>
<circle id="XMLID_118_" opacity="0.4" fill="#1899D4" cx="192.9" cy="307.2" r="1.8"/>
<circle id="XMLID_117_" opacity="0.4" fill="#1899D4" cx="212.9" cy="307.2" r="1.8"/>
<circle id="XMLID_116_" opacity="0.4" fill="#1899D4" cx="232.8" cy="307.2" r="1.8"/>
<circle id="XMLID_115_" opacity="0.4" fill="#1899D4" cx="252.8" cy="307.2" r="1.8"/>
<circle id="XMLID_105_" opacity="0.4" fill="#1899D4" cx="192.9" cy="324.2" r="1.8"/>
<circle id="XMLID_104_" opacity="0.4" fill="#1899D4" cx="212.9" cy="324.2" r="1.8"/>
<circle id="XMLID_103_" opacity="0.4" fill="#1899D4" cx="232.8" cy="324.2" r="1.8"/>
<circle id="XMLID_102_" opacity="0.4" fill="#1899D4" cx="252.8" cy="324.2" r="1.8"/>
<circle id="XMLID_94_" opacity="0.4" fill="#1899D4" cx="153" cy="341.2" r="1.8"/>
<circle id="XMLID_93_" opacity="0.4" fill="#1899D4" cx="172.9" cy="341.2" r="1.8"/>
<circle id="XMLID_92_" opacity="0.4" fill="#1899D4" cx="192.9" cy="341.2" r="1.8"/>
<circle id="XMLID_91_" opacity="0.4" fill="#1899D4" cx="212.9" cy="341.2" r="1.8"/>
<circle id="XMLID_90_" opacity="0.4" fill="#1899D4" cx="232.8" cy="341.2" r="1.8"/>
<circle id="XMLID_89_" opacity="0.4" fill="#1899D4" cx="252.8" cy="341.2" r="1.8"/>
<circle id="XMLID_88_" opacity="0.4" fill="#1899D4" cx="272.7" cy="341.2" r="1.8"/>
<circle id="XMLID_312_" opacity="0.4" fill="#1899D4" cx="492.3" cy="171.1" r="1.8"/>
<circle id="XMLID_311_" opacity="0.4" fill="#1899D4" cx="512.3" cy="171.1" r="1.8"/>
<circle id="XMLID_310_" opacity="0.4" fill="#1899D4" cx="532.2" cy="171.1" r="1.8"/>
<circle id="XMLID_309_" opacity="0.4" fill="#1899D4" cx="552.2" cy="171.1" r="1.8"/>
<circle id="XMLID_308_" opacity="0.4" fill="#1899D4" cx="572.1" cy="171.1" r="1.8"/>
<circle id="XMLID_307_" opacity="0.4" fill="#1899D4" cx="592.1" cy="171.1" r="1.8"/>
<circle id="XMLID_306_" opacity="0.4" fill="#1899D4" cx="612.1" cy="171.1" r="1.8"/>
<circle id="XMLID_305_" opacity="0.4" fill="#1899D4" cx="632" cy="171.1" r="1.8"/>
<circle id="XMLID_299_" opacity="0.4" fill="#1899D4" cx="492.3" cy="188.2" r="1.8"/>
<circle id="XMLID_298_" opacity="0.4" fill="#1899D4" cx="512.3" cy="188.2" r="1.8"/>
<circle id="XMLID_297_" opacity="0.4" fill="#1899D4" cx="532.2" cy="188.2" r="1.8"/>
<circle id="XMLID_296_" opacity="0.4" fill="#1899D4" cx="552.2" cy="188.2" r="1.8"/>
<circle id="XMLID_295_" opacity="0.4" fill="#1899D4" cx="572.1" cy="188.2" r="1.8"/>
<circle id="XMLID_294_" opacity="0.4" fill="#1899D4" cx="592.1" cy="188.2" r="1.8"/>
<circle id="XMLID_286_" opacity="0.4" fill="#1899D4" cx="492.3" cy="205.2" r="1.8"/>
<circle id="XMLID_285_" opacity="0.4" fill="#1899D4" cx="512.3" cy="205.2" r="1.8"/>
<circle id="XMLID_284_" opacity="0.4" fill="#1899D4" cx="532.2" cy="205.2" r="1.8"/>
<circle id="XMLID_283_" opacity="0.4" fill="#1899D4" cx="552.2" cy="205.2" r="1.8"/>
<circle id="XMLID_282_" opacity="0.4" fill="#1899D4" cx="572.1" cy="205.2" r="1.8"/>
<circle id="XMLID_281_" opacity="0.4" fill="#1899D4" cx="592.1" cy="205.2" r="1.8"/>
<circle id="XMLID_273_" opacity="0.4" fill="#1899D4" cx="492.3" cy="222.2" r="1.8"/>
<circle id="XMLID_272_" opacity="0.4" fill="#1899D4" cx="512.3" cy="222.2" r="1.8"/>
<circle id="XMLID_271_" opacity="0.4" fill="#1899D4" cx="532.2" cy="222.2" r="1.8"/>
<circle id="XMLID_269_" opacity="0.4" fill="#1899D4" cx="572.1" cy="222.2" r="1.8"/>
<circle id="XMLID_268_" opacity="0.4" fill="#1899D4" cx="592.1" cy="222.2" r="1.8"/>
<circle id="XMLID_260_" opacity="0.4" fill="#1899D4" cx="492.3" cy="239.2" r="1.8"/>
<circle id="XMLID_259_" opacity="0.4" fill="#1899D4" cx="512.3" cy="239.2" r="1.8"/>
<circle id="XMLID_258_" opacity="0.4" fill="#1899D4" cx="532.2" cy="239.2" r="1.8"/>
<circle id="XMLID_256_" opacity="0.4" fill="#1899D4" cx="572.1" cy="239.2" r="1.8"/>
<circle id="XMLID_255_" opacity="0.4" fill="#1899D4" cx="592.1" cy="239.2" r="1.8"/>
<circle id="XMLID_254_" opacity="0.4" fill="#1899D4" cx="612.1" cy="239.2" r="1.8"/>
<circle id="XMLID_253_" opacity="0.4" fill="#1899D4" cx="632" cy="239.2" r="1.8"/>
<circle id="XMLID_247_" opacity="0.4" fill="#1899D4" cx="492.3" cy="256.2" r="1.8"/>
<circle id="XMLID_246_" opacity="0.4" fill="#1899D4" cx="512.3" cy="256.2" r="1.8"/>
<circle id="XMLID_245_" opacity="0.4" fill="#1899D4" cx="532.2" cy="256.2" r="1.8"/>
<circle id="XMLID_244_" opacity="0.4" fill="#1899D4" cx="552.2" cy="256.2" r="1.8"/>
<circle id="XMLID_243_" opacity="0.4" fill="#1899D4" cx="572.1" cy="256.2" r="1.8"/>
<circle id="XMLID_242_" opacity="0.4" fill="#1899D4" cx="592.1" cy="256.2" r="1.8"/>
<circle id="XMLID_241_" opacity="0.4" fill="#1899D4" cx="612.1" cy="256.2" r="1.8"/>
<circle id="XMLID_240_" opacity="0.4" fill="#1899D4" cx="632" cy="256.2" r="1.8"/>
<circle id="XMLID_475_" opacity="0.4" fill="#1899D4" cx="153" cy="86.1" r="1.8"/>
<circle id="XMLID_471_" opacity="0.4" fill="#1899D4" cx="232.8" cy="86.1" r="1.8"/>
<circle id="XMLID_462_" opacity="0.4" fill="#1899D4" cx="153" cy="103.1" r="1.8"/>
<circle id="XMLID_461_" opacity="0.4" fill="#1899D4" cx="172.9" cy="103.1" r="1.8"/>
<circle id="XMLID_460_" opacity="0.4" fill="#1899D4" cx="192.9" cy="103.1" r="1.8"/>
<circle id="XMLID_459_" opacity="0.4" fill="#1899D4" cx="212.9" cy="103.1" r="1.8"/>
<circle id="XMLID_458_" opacity="0.4" fill="#1899D4" cx="232.8" cy="103.1" r="1.8"/>
<circle id="XMLID_457_" opacity="0.4" fill="#1899D4" cx="252.8" cy="103.1" r="1.8"/>
<circle id="XMLID_456_" opacity="0.4" fill="#1899D4" cx="272.7" cy="103.1" r="1.8"/>
<circle id="XMLID_446_" opacity="0.4" fill="#1899D4" cx="212.9" cy="120.1" r="1.8"/>
<circle id="XMLID_445_" opacity="0.4" fill="#1899D4" cx="232.8" cy="120.1" r="1.8"/>
<circle id="XMLID_444_" opacity="0.4" fill="#1899D4" cx="252.8" cy="120.1" r="1.8"/>
<circle id="XMLID_443_" opacity="0.4" fill="#1899D4" cx="272.7" cy="120.1" r="1.8"/>
<circle id="XMLID_432_" opacity="0.4" fill="#1899D4" cx="232.8" cy="137.1" r="1.8"/>
<circle id="XMLID_431_" opacity="0.4" fill="#1899D4" cx="252.8" cy="137.1" r="1.8"/>
<circle id="XMLID_430_" opacity="0.4" fill="#1899D4" cx="272.7" cy="137.1" r="1.8"/>
<circle id="XMLID_419_" opacity="0.4" fill="#1899D4" cx="232.8" cy="154.1" r="1.8"/>
<circle id="XMLID_418_" opacity="0.4" fill="#1899D4" cx="252.8" cy="154.1" r="1.8"/>
<circle id="XMLID_417_" opacity="0.4" fill="#1899D4" cx="272.7" cy="154.1" r="1.8"/>
<circle id="XMLID_410_" opacity="0.4" fill="#1899D4" cx="153" cy="171.1" r="1.8"/>
<circle id="XMLID_409_" opacity="0.4" fill="#1899D4" cx="172.9" cy="171.1" r="1.8"/>
<circle id="XMLID_408_" opacity="0.4" fill="#1899D4" cx="192.9" cy="171.1" r="1.8"/>
<circle id="XMLID_407_" opacity="0.4" fill="#1899D4" cx="212.9" cy="171.1" r="1.8"/>
<circle id="XMLID_406_" opacity="0.4" fill="#1899D4" cx="232.8" cy="171.1" r="1.8"/>
<circle id="XMLID_405_" opacity="0.4" fill="#1899D4" cx="252.8" cy="171.1" r="1.8"/>
<circle id="XMLID_404_" opacity="0.4" fill="#1899D4" cx="272.7" cy="171.1" r="1.8"/>
<circle id="XMLID_391_" opacity="0.4" fill="#1899D4" cx="492.3" cy="86.1" r="1.8"/>
<circle id="XMLID_388_" opacity="0.4" fill="#1899D4" cx="552.2" cy="86.1" r="1.8"/>
<circle id="XMLID_384_" opacity="0.4" fill="#1899D4" cx="632" cy="86.1" r="1.8"/>
<circle id="XMLID_378_" opacity="0.4" fill="#1899D4" cx="492.3" cy="103.1" r="1.8"/>
<circle id="XMLID_375_" opacity="0.4" fill="#1899D4" cx="552.2" cy="103.1" r="1.8"/>
<circle id="XMLID_374_" opacity="0.4" fill="#1899D4" cx="572.1" cy="103.1" r="1.8"/>
<circle id="XMLID_373_" opacity="0.4" fill="#1899D4" cx="592.1" cy="103.1" r="1.8"/>
<circle id="XMLID_372_" opacity="0.4" fill="#1899D4" cx="612.1" cy="103.1" r="1.8"/>
<circle id="XMLID_371_" opacity="0.4" fill="#1899D4" cx="632" cy="103.1" r="1.8"/>
<circle id="XMLID_365_" opacity="0.4" fill="#1899D4" cx="492.3" cy="120.1" r="1.8"/>
<circle id="XMLID_364_" opacity="0.4" fill="#1899D4" cx="512.3" cy="120.1" r="1.8"/>
<circle id="XMLID_363_" opacity="0.4" fill="#1899D4" cx="532.2" cy="120.1" r="1.8"/>
<circle id="XMLID_362_" opacity="0.4" fill="#1899D4" cx="552.2" cy="120.1" r="1.8"/>
<circle id="XMLID_361_" opacity="0.4" fill="#1899D4" cx="572.1" cy="120.1" r="1.8"/>
<circle id="XMLID_360_" opacity="0.4" fill="#1899D4" cx="592.1" cy="120.1" r="1.8"/>
<circle id="XMLID_352_" opacity="0.4" fill="#1899D4" cx="492.3" cy="137.1" r="1.8"/>
<circle id="XMLID_351_" opacity="0.4" fill="#1899D4" cx="512.3" cy="137.1" r="1.8"/>
<circle id="XMLID_350_" opacity="0.4" fill="#1899D4" cx="532.2" cy="137.1" r="1.8"/>
<circle id="XMLID_349_" opacity="0.4" fill="#1899D4" cx="552.2" cy="137.1" r="1.8"/>
<circle id="XMLID_348_" opacity="0.4" fill="#1899D4" cx="572.1" cy="137.1" r="1.8"/>
<circle id="XMLID_347_" opacity="0.4" fill="#1899D4" cx="592.1" cy="137.1" r="1.8"/>
<circle id="XMLID_346_" opacity="0.4" fill="#1899D4" cx="612.1" cy="137.1" r="1.8"/>
<circle id="XMLID_345_" opacity="0.4" fill="#1899D4" cx="632" cy="137.1" r="1.8"/>
<circle id="XMLID_339_" opacity="0.4" fill="#1899D4" cx="492.3" cy="154.1" r="1.8"/>
<circle id="XMLID_338_" opacity="0.4" fill="#1899D4" cx="512.3" cy="154.1" r="1.8"/>
<circle id="XMLID_337_" opacity="0.4" fill="#1899D4" cx="532.2" cy="154.1" r="1.8"/>
<circle id="XMLID_336_" opacity="0.4" fill="#1899D4" cx="552.2" cy="154.1" r="1.8"/>
<circle id="XMLID_335_" opacity="0.4" fill="#1899D4" cx="572.1" cy="154.1" r="1.8"/>
<circle id="XMLID_334_" opacity="0.4" fill="#1899D4" cx="592.1" cy="154.1" r="1.8"/>
<circle id="XMLID_333_" opacity="0.4" fill="#1899D4" cx="612.1" cy="154.1" r="1.8"/>
<circle id="XMLID_332_" opacity="0.4" fill="#1899D4" cx="632" cy="154.1" r="1.8"/>
<circle id="XMLID_326_" opacity="0.4" fill="#1899D4" cx="492.3" cy="171.1" r="1.8"/>
<circle id="XMLID_325_" opacity="0.4" fill="#1899D4" cx="512.3" cy="171.1" r="1.8"/>
<circle id="XMLID_324_" opacity="0.4" fill="#1899D4" cx="532.2" cy="171.1" r="1.8"/>
<circle id="XMLID_323_" opacity="0.4" fill="#1899D4" cx="552.2" cy="171.1" r="1.8"/>
<circle id="XMLID_322_" opacity="0.4" fill="#1899D4" cx="572.1" cy="171.1" r="1.8"/>
<circle id="XMLID_321_" opacity="0.4" fill="#1899D4" cx="592.1" cy="171.1" r="1.8"/>
<circle id="XMLID_320_" opacity="0.4" fill="#1899D4" cx="612.1" cy="171.1" r="1.8"/>
<circle id="XMLID_319_" opacity="0.4" fill="#1899D4" cx="632" cy="171.1" r="1.8"/>
<circle id="XMLID_233_" opacity="0.4" fill="#1899D4" cx="492.3" cy="256.2" r="1.8"/>
<circle id="XMLID_232_" opacity="0.4" fill="#1899D4" cx="512.3" cy="256.2" r="1.8"/>
<circle id="XMLID_231_" opacity="0.4" fill="#1899D4" cx="532.2" cy="256.2" r="1.8"/>
<circle id="XMLID_230_" opacity="0.4" fill="#1899D4" cx="552.2" cy="256.2" r="1.8"/>
<circle id="XMLID_229_" opacity="0.4" fill="#1899D4" cx="572.1" cy="256.2" r="1.8"/>
<circle id="XMLID_228_" opacity="0.4" fill="#1899D4" cx="592.1" cy="256.2" r="1.8"/>
<circle id="XMLID_227_" opacity="0.4" fill="#1899D4" cx="612.1" cy="256.2" r="1.8"/>
<circle id="XMLID_226_" opacity="0.4" fill="#1899D4" cx="632" cy="256.2" r="1.8"/>
<circle id="XMLID_220_" opacity="0.4" fill="#1899D4" cx="492.3" cy="273.2" r="1.8"/>
<circle id="XMLID_219_" opacity="0.4" fill="#1899D4" cx="512.3" cy="273.2" r="1.8"/>
<circle id="XMLID_218_" opacity="0.4" fill="#1899D4" cx="532.2" cy="273.2" r="1.8"/>
<circle id="XMLID_217_" opacity="0.4" fill="#1899D4" cx="552.2" cy="273.2" r="1.8"/>
<circle id="XMLID_216_" opacity="0.4" fill="#1899D4" cx="572.1" cy="273.2" r="1.8"/>
<circle id="XMLID_215_" opacity="0.4" fill="#1899D4" cx="592.1" cy="273.2" r="1.8"/>
<circle id="XMLID_214_" opacity="0.4" fill="#1899D4" cx="612.1" cy="273.2" r="1.8"/>
<circle id="XMLID_206_" opacity="0.4" fill="#1899D4" cx="512.3" cy="290.2" r="1.8"/>
<circle id="XMLID_205_" opacity="0.4" fill="#1899D4" cx="532.2" cy="290.2" r="1.8"/>
<circle id="XMLID_204_" opacity="0.4" fill="#1899D4" cx="552.2" cy="290.2" r="1.8"/>
<circle id="XMLID_203_" opacity="0.4" fill="#1899D4" cx="572.1" cy="290.2" r="1.8"/>
<circle id="XMLID_202_" opacity="0.4" fill="#1899D4" cx="592.1" cy="290.2" r="1.8"/>
<circle id="XMLID_201_" opacity="0.4" fill="#1899D4" cx="612.1" cy="290.2" r="1.8"/>
<circle id="XMLID_193_" opacity="0.4" fill="#1899D4" cx="512.3" cy="307.2" r="1.8"/>
<circle id="XMLID_192_" opacity="0.4" fill="#1899D4" cx="532.2" cy="307.2" r="1.8"/>
<circle id="XMLID_191_" opacity="0.4" fill="#1899D4" cx="552.2" cy="307.2" r="1.8"/>
<circle id="XMLID_190_" opacity="0.4" fill="#1899D4" cx="572.1" cy="307.2" r="1.8"/>
<circle id="XMLID_189_" opacity="0.4" fill="#1899D4" cx="592.1" cy="307.2" r="1.8"/>
<circle id="XMLID_188_" opacity="0.4" fill="#1899D4" cx="612.1" cy="307.2" r="1.8"/>
<circle id="XMLID_187_" opacity="0.4" fill="#1899D4" cx="632" cy="307.2" r="1.8"/>
<circle id="XMLID_180_" opacity="0.4" fill="#1899D4" cx="512.3" cy="324.2" r="1.8"/>
<circle id="XMLID_179_" opacity="0.4" fill="#1899D4" cx="532.2" cy="324.2" r="1.8"/>
<circle id="XMLID_178_" opacity="0.4" fill="#1899D4" cx="552.2" cy="324.2" r="1.8"/>
<circle id="XMLID_177_" opacity="0.4" fill="#1899D4" cx="572.1" cy="324.2" r="1.8"/>
<circle id="XMLID_176_" opacity="0.4" fill="#1899D4" cx="592.1" cy="324.2" r="1.8"/>
<circle id="XMLID_175_" opacity="0.4" fill="#1899D4" cx="612.1" cy="324.2" r="1.8"/>
<circle id="XMLID_167_" opacity="0.4" fill="#1899D4" cx="512.3" cy="341.2" r="1.8"/>
<circle id="XMLID_162_" opacity="0.4" fill="#1899D4" cx="612.1" cy="341.2" r="1.8"/>
<circle id="XMLID_633_" opacity="0.4" fill="#1899D4" cx="153" cy="341.2" r="1.8"/>
<circle id="XMLID_632_" opacity="0.4" fill="#1899D4" cx="172.9" cy="341.2" r="1.8"/>
<circle id="XMLID_631_" opacity="0.4" fill="#1899D4" cx="192.9" cy="341.2" r="1.8"/>
<circle id="XMLID_630_" opacity="0.4" fill="#1899D4" cx="212.9" cy="341.2" r="1.8"/>
<circle id="XMLID_629_" opacity="0.4" fill="#1899D4" cx="232.8" cy="341.2" r="1.8"/>
<circle id="XMLID_628_" opacity="0.4" fill="#1899D4" cx="252.8" cy="341.2" r="1.8"/>
<circle id="XMLID_627_" opacity="0.4" fill="#1899D4" cx="272.7" cy="341.2" r="1.8"/>
<circle id="XMLID_619_" opacity="0.4" fill="#1899D4" cx="172.9" cy="358.2" r="1.8"/>
<circle id="XMLID_618_" opacity="0.4" fill="#1899D4" cx="192.9" cy="358.2" r="1.8"/>
<circle id="XMLID_617_" opacity="0.4" fill="#1899D4" cx="212.9" cy="358.2" r="1.8"/>
<circle id="XMLID_616_" opacity="0.4" fill="#1899D4" cx="232.8" cy="358.2" r="1.8"/>
<circle id="XMLID_615_" opacity="0.4" fill="#1899D4" cx="252.8" cy="358.2" r="1.8"/>
<circle id="XMLID_614_" opacity="0.4" fill="#1899D4" cx="272.7" cy="358.2" r="1.8"/>
<circle id="XMLID_606_" opacity="0.4" fill="#1899D4" cx="172.9" cy="375.2" r="1.8"/>
<circle id="XMLID_603_" opacity="0.4" fill="#1899D4" cx="232.8" cy="375.2" r="1.8"/>
<circle id="XMLID_602_" opacity="0.4" fill="#1899D4" cx="252.8" cy="375.2" r="1.8"/>
<circle id="XMLID_601_" opacity="0.4" fill="#1899D4" cx="272.7" cy="375.2" r="1.8"/>
<circle id="XMLID_593_" opacity="0.4" fill="#1899D4" cx="172.9" cy="392.2" r="1.8"/>
<circle id="XMLID_590_" opacity="0.4" fill="#1899D4" cx="232.8" cy="392.2" r="1.8"/>
<circle id="XMLID_589_" opacity="0.4" fill="#1899D4" cx="252.8" cy="392.2" r="1.8"/>
<circle id="XMLID_588_" opacity="0.4" fill="#1899D4" cx="272.7" cy="392.2" r="1.8"/>
<circle id="XMLID_580_" opacity="0.4" fill="#1899D4" cx="172.9" cy="409.2" r="1.8"/>
<circle id="XMLID_579_" opacity="0.4" fill="#1899D4" cx="192.9" cy="409.2" r="1.8"/>
<circle id="XMLID_578_" opacity="0.4" fill="#1899D4" cx="212.9" cy="409.2" r="1.8"/>
<circle id="XMLID_577_" opacity="0.4" fill="#1899D4" cx="232.8" cy="409.2" r="1.8"/>
<circle id="XMLID_568_" opacity="0.4" fill="#1899D4" cx="153" cy="426.2" r="1.8"/>
<circle id="XMLID_548_" opacity="0.4" fill="#1899D4" cx="512.3" cy="341.2" r="1.8"/>
<circle id="XMLID_543_" opacity="0.4" fill="#1899D4" cx="612.1" cy="341.2" r="1.8"/>
<circle id="XMLID_536_" opacity="0.4" fill="#1899D4" cx="492.3" cy="358.2" r="1.8"/>
<circle id="XMLID_535_" opacity="0.4" fill="#1899D4" cx="512.3" cy="358.2" r="1.8"/>
<circle id="XMLID_530_" opacity="0.4" fill="#1899D4" cx="612.1" cy="358.2" r="1.8"/>
<circle id="XMLID_523_" opacity="0.4" fill="#1899D4" cx="492.3" cy="375.2" r="1.8"/>
<circle id="XMLID_522_" opacity="0.4" fill="#1899D4" cx="512.3" cy="375.2" r="1.8"/>
<circle id="XMLID_517_" opacity="0.4" fill="#1899D4" cx="612.1" cy="375.2" r="1.8"/>
<circle id="XMLID_516_" opacity="0.4" fill="#1899D4" cx="632" cy="375.2" r="1.8"/>
<circle id="XMLID_510_" opacity="0.4" fill="#1899D4" cx="492.3" cy="392.2" r="1.8"/>
<circle id="XMLID_509_" opacity="0.4" fill="#1899D4" cx="512.3" cy="392.2" r="1.8"/>
<circle id="XMLID_508_" opacity="0.4" fill="#1899D4" cx="532.2" cy="392.2" r="1.8"/>
<circle id="XMLID_507_" opacity="0.4" fill="#1899D4" cx="552.2" cy="392.2" r="1.8"/>
<circle id="XMLID_506_" opacity="0.4" fill="#1899D4" cx="572.1" cy="392.2" r="1.8"/>
<circle id="XMLID_505_" opacity="0.4" fill="#1899D4" cx="592.1" cy="392.2" r="1.8"/>
<circle id="XMLID_504_" opacity="0.4" fill="#1899D4" cx="612.1" cy="392.2" r="1.8"/>
<circle id="XMLID_497_" opacity="0.4" fill="#1899D4" cx="492.3" cy="409.2" r="1.8"/>
<circle id="XMLID_496_" opacity="0.4" fill="#1899D4" cx="512.3" cy="409.2" r="1.8"/>
<circle id="XMLID_495_" opacity="0.4" fill="#1899D4" cx="532.2" cy="409.2" r="1.8"/>
<circle id="XMLID_493_" opacity="0.4" fill="#1899D4" cx="572.1" cy="409.2" r="1.8"/>
<circle id="XMLID_492_" opacity="0.4" fill="#1899D4" cx="592.1" cy="409.2" r="1.8"/>
<circle id="XMLID_482_" opacity="0.4" fill="#1899D4" cx="532.2" cy="426.2" r="1.8"/>
<circle id="XMLID_480_" opacity="0.4" fill="#1899D4" cx="572.1" cy="426.2" r="1.8"/>
<circle id="XMLID_477_" opacity="0.4" fill="#1899D4" cx="632" cy="426.2" r="1.8"/>
<g id="XMLID_1_">
	<circle id="XMLID_72_" opacity="3.000000e-002" fill="#1899D4" cx="314" cy="183" r="1.8"/>
	<circle id="XMLID_71_" opacity="3.000000e-002" fill="#1899D4" cx="334" cy="183" r="1.8"/>
	<circle id="XMLID_70_" opacity="3.000000e-002" fill="#1899D4" cx="353.9" cy="183" r="1.8"/>
	<circle id="XMLID_68_" opacity="3.000000e-002" fill="#1899D4" cx="393.8" cy="183" r="1.8"/>
	<circle id="XMLID_58_" opacity="3.000000e-002" fill="#1899D4" cx="334" cy="200" r="1.8"/>
	<circle id="XMLID_57_" opacity="3.000000e-002" fill="#1899D4" cx="353.9" cy="200" r="1.8"/>
	<circle id="XMLID_56_" opacity="3.000000e-002" fill="#1899D4" cx="373.9" cy="200" r="1.8"/>
	<circle id="XMLID_55_" opacity="3.000000e-002" fill="#1899D4" cx="393.8" cy="200" r="1.8"/>
	<circle id="XMLID_45_" opacity="3.000000e-002" fill="#1899D4" cx="334" cy="217" r="1.8"/>
	<circle id="XMLID_44_" opacity="3.000000e-002" fill="#1899D4" cx="353.9" cy="217" r="1.8"/>
	<circle id="XMLID_43_" opacity="3.000000e-002" fill="#1899D4" cx="373.9" cy="217" r="1.8"/>
	<circle id="XMLID_42_" opacity="3.000000e-002" fill="#1899D4" cx="393.8" cy="217" r="1.8"/>
	<circle id="XMLID_32_" opacity="3.000000e-002" fill="#1899D4" cx="334" cy="234" r="1.8"/>
	<circle id="XMLID_31_" opacity="3.000000e-002" fill="#1899D4" cx="353.9" cy="234" r="1.8"/>
	<circle id="XMLID_30_" opacity="3.000000e-002" fill="#1899D4" cx="373.9" cy="234" r="1.8"/>
	<circle id="XMLID_29_" opacity="3.000000e-002" fill="#1899D4" cx="393.8" cy="234" r="1.8"/>
	<circle id="XMLID_19_" opacity="3.000000e-002" fill="#1899D4" cx="334" cy="251" r="1.8"/>
	<circle id="XMLID_18_" opacity="3.000000e-002" fill="#1899D4" cx="353.9" cy="251" r="1.8"/>
	<circle id="XMLID_17_" opacity="3.000000e-002" fill="#1899D4" cx="373.9" cy="251" r="1.8"/>
	<circle id="XMLID_16_" opacity="3.000000e-002" fill="#1899D4" cx="393.8" cy="251" r="1.8"/>
	<circle id="XMLID_6_" opacity="3.000000e-002" fill="#1899D4" cx="334" cy="268" r="1.8"/>
	<circle id="XMLID_5_" opacity="3.000000e-002" fill="#1899D4" cx="353.9" cy="268" r="1.8"/>
	<circle id="XMLID_3_" opacity="3.000000e-002" fill="#1899D4" cx="393.8" cy="268" r="1.8"/>
	<circle id="XMLID_150_" opacity="3.000000e-002" fill="#1899D4" cx="334" cy="268" r="1.8"/>
	<circle id="XMLID_149_" opacity="3.000000e-002" fill="#1899D4" cx="353.9" cy="268" r="1.8"/>
	<circle id="XMLID_147_" opacity="3.000000e-002" fill="#1899D4" cx="393.8" cy="268" r="1.8"/>
	<circle id="XMLID_137_" opacity="3.000000e-002" fill="#1899D4" cx="334" cy="285" r="1.8"/>
	<circle id="XMLID_136_" opacity="3.000000e-002" fill="#1899D4" cx="353.9" cy="285" r="1.8"/>
	<circle id="XMLID_134_" opacity="3.000000e-002" fill="#1899D4" cx="393.8" cy="285" r="1.8"/>
	<circle id="XMLID_124_" opacity="3.000000e-002" fill="#1899D4" cx="334" cy="302" r="1.8"/>
	<circle id="XMLID_123_" opacity="3.000000e-002" fill="#1899D4" cx="353.9" cy="302" r="1.8"/>
	<circle id="XMLID_121_" opacity="3.000000e-002" fill="#1899D4" cx="393.8" cy="302" r="1.8"/>
	<circle id="XMLID_111_" opacity="3.000000e-002" fill="#1899D4" cx="334" cy="319" r="1.8"/>
	<circle id="XMLID_110_" opacity="3.000000e-002" fill="#1899D4" cx="353.9" cy="319" r="1.8"/>
	<circle id="XMLID_108_" opacity="3.000000e-002" fill="#1899D4" cx="393.8" cy="319" r="1.8"/>
	<circle id="XMLID_98_" opacity="3.000000e-002" fill="#1899D4" cx="334" cy="336" r="1.8"/>
	<circle id="XMLID_97_" opacity="3.000000e-002" fill="#1899D4" cx="353.9" cy="336" r="1.8"/>
	<circle id="XMLID_95_" opacity="3.000000e-002" fill="#1899D4" cx="393.8" cy="336" r="1.8"/>
	<circle id="XMLID_87_" opacity="3.000000e-002" fill="#1899D4" cx="294" cy="353" r="1.8"/>
	<circle id="XMLID_86_" opacity="3.000000e-002" fill="#1899D4" cx="314" cy="353" r="1.8"/>
	<circle id="XMLID_85_" opacity="3.000000e-002" fill="#1899D4" cx="334" cy="353" r="1.8"/>
	<circle id="XMLID_84_" opacity="3.000000e-002" fill="#1899D4" cx="353.9" cy="353" r="1.8"/>
	<circle id="XMLID_83_" opacity="3.000000e-002" fill="#1899D4" cx="373.9" cy="353" r="1.8"/>
	<circle id="XMLID_82_" opacity="3.000000e-002" fill="#1899D4" cx="393.8" cy="353" r="1.8"/>
	<circle id="XMLID_317_" opacity="3.000000e-002" fill="#1899D4" cx="393.8" cy="183" r="1.8"/>
	<circle id="XMLID_316_" opacity="3.000000e-002" fill="#1899D4" cx="413.8" cy="183" r="1.8"/>
	<circle id="XMLID_315_" opacity="3.000000e-002" fill="#1899D4" cx="433.8" cy="183" r="1.8"/>
	<circle id="XMLID_314_" opacity="3.000000e-002" fill="#1899D4" cx="453.7" cy="183" r="1.8"/>
	<circle id="XMLID_313_" opacity="3.000000e-002" fill="#1899D4" cx="473.7" cy="183" r="1.8"/>
	<circle id="XMLID_304_" opacity="3.000000e-002" fill="#1899D4" cx="393.8" cy="200" r="1.8"/>
	<circle id="XMLID_303_" opacity="3.000000e-002" fill="#1899D4" cx="413.8" cy="200" r="1.8"/>
	<circle id="XMLID_302_" opacity="3.000000e-002" fill="#1899D4" cx="433.8" cy="200" r="1.8"/>
	<circle id="XMLID_301_" opacity="3.000000e-002" fill="#1899D4" cx="453.7" cy="200" r="1.8"/>
	<circle id="XMLID_300_" opacity="3.000000e-002" fill="#1899D4" cx="473.7" cy="200" r="1.8"/>
	<circle id="XMLID_291_" opacity="3.000000e-002" fill="#1899D4" cx="393.8" cy="217" r="1.8"/>
	<circle id="XMLID_290_" opacity="3.000000e-002" fill="#1899D4" cx="413.8" cy="217" r="1.8"/>
	<circle id="XMLID_287_" opacity="3.000000e-002" fill="#1899D4" cx="473.7" cy="217" r="1.8"/>
	<circle id="XMLID_278_" opacity="3.000000e-002" fill="#1899D4" cx="393.8" cy="234" r="1.8"/>
	<circle id="XMLID_277_" opacity="3.000000e-002" fill="#1899D4" cx="413.8" cy="234" r="1.8"/>
	<circle id="XMLID_274_" opacity="3.000000e-002" fill="#1899D4" cx="473.7" cy="234" r="1.8"/>
	<circle id="XMLID_265_" opacity="3.000000e-002" fill="#1899D4" cx="393.8" cy="251" r="1.8"/>
	<circle id="XMLID_264_" opacity="3.000000e-002" fill="#1899D4" cx="413.8" cy="251" r="1.8"/>
	<circle id="XMLID_261_" opacity="3.000000e-002" fill="#1899D4" cx="473.7" cy="251" r="1.8"/>
	<circle id="XMLID_252_" opacity="3.000000e-002" fill="#1899D4" cx="393.8" cy="268" r="1.8"/>
	<circle id="XMLID_251_" opacity="3.000000e-002" fill="#1899D4" cx="413.8" cy="268" r="1.8"/>
	<circle id="XMLID_248_" opacity="3.000000e-002" fill="#1899D4" cx="473.7" cy="268" r="1.8"/>
	<circle id="XMLID_467_" opacity="3.000000e-002" fill="#1899D4" cx="314" cy="98" r="1.8"/>
	<circle id="XMLID_455_" opacity="3.000000e-002" fill="#1899D4" cx="294" cy="115" r="1.8"/>
	<circle id="XMLID_454_" opacity="3.000000e-002" fill="#1899D4" cx="314" cy="115" r="1.8"/>
	<circle id="XMLID_453_" opacity="3.000000e-002" fill="#1899D4" cx="334" cy="115" r="1.8"/>
	<circle id="XMLID_452_" opacity="3.000000e-002" fill="#1899D4" cx="353.9" cy="115" r="1.8"/>
	<circle id="XMLID_442_" opacity="3.000000e-002" fill="#1899D4" cx="294" cy="132" r="1.8"/>
	<circle id="XMLID_441_" opacity="3.000000e-002" fill="#1899D4" cx="314" cy="132" r="1.8"/>
	<circle id="XMLID_440_" opacity="3.000000e-002" fill="#1899D4" cx="334" cy="132" r="1.8"/>
	<circle id="XMLID_439_" opacity="3.000000e-002" fill="#1899D4" cx="353.9" cy="132" r="1.8"/>
	<circle id="XMLID_438_" opacity="3.000000e-002" fill="#1899D4" cx="373.9" cy="132" r="1.8"/>
	<circle id="XMLID_437_" opacity="3.000000e-002" fill="#1899D4" cx="393.8" cy="132" r="1.8"/>
	<circle id="XMLID_428_" opacity="3.000000e-002" fill="#1899D4" cx="314" cy="149" r="1.8"/>
	<circle id="XMLID_427_" opacity="3.000000e-002" fill="#1899D4" cx="334" cy="149" r="1.8"/>
	<circle id="XMLID_426_" opacity="3.000000e-002" fill="#1899D4" cx="353.9" cy="149" r="1.8"/>
	<circle id="XMLID_425_" opacity="3.000000e-002" fill="#1899D4" cx="373.9" cy="149" r="1.8"/>
	<circle id="XMLID_424_" opacity="3.000000e-002" fill="#1899D4" cx="393.8" cy="149" r="1.8"/>
	<circle id="XMLID_415_" opacity="3.000000e-002" fill="#1899D4" cx="314" cy="166" r="1.8"/>
	<circle id="XMLID_414_" opacity="3.000000e-002" fill="#1899D4" cx="334" cy="166" r="1.8"/>
	<circle id="XMLID_413_" opacity="3.000000e-002" fill="#1899D4" cx="353.9" cy="166" r="1.8"/>
	<circle id="XMLID_411_" opacity="3.000000e-002" fill="#1899D4" cx="393.8" cy="166" r="1.8"/>
	<circle id="XMLID_402_" opacity="3.000000e-002" fill="#1899D4" cx="314" cy="183" r="1.8"/>
	<circle id="XMLID_401_" opacity="3.000000e-002" fill="#1899D4" cx="334" cy="183" r="1.8"/>
	<circle id="XMLID_400_" opacity="3.000000e-002" fill="#1899D4" cx="353.9" cy="183" r="1.8"/>
	<circle id="XMLID_398_" opacity="3.000000e-002" fill="#1899D4" cx="393.8" cy="183" r="1.8"/>
	<circle id="XMLID_392_" opacity="3.000000e-002" fill="#1899D4" cx="473.7" cy="98" r="1.8"/>
	<circle id="XMLID_379_" opacity="3.000000e-002" fill="#1899D4" cx="473.7" cy="115" r="1.8"/>
	<circle id="XMLID_370_" opacity="3.000000e-002" fill="#1899D4" cx="393.8" cy="132" r="1.8"/>
	<circle id="XMLID_369_" opacity="3.000000e-002" fill="#1899D4" cx="413.8" cy="132" r="1.8"/>
	<circle id="XMLID_368_" opacity="3.000000e-002" fill="#1899D4" cx="433.8" cy="132" r="1.8"/>
	<circle id="XMLID_367_" opacity="3.000000e-002" fill="#1899D4" cx="453.7" cy="132" r="1.8"/>
	<circle id="XMLID_366_" opacity="3.000000e-002" fill="#1899D4" cx="473.7" cy="132" r="1.8"/>
	<circle id="XMLID_357_" opacity="3.000000e-002" fill="#1899D4" cx="393.8" cy="149" r="1.8"/>
	<circle id="XMLID_356_" opacity="3.000000e-002" fill="#1899D4" cx="413.8" cy="149" r="1.8"/>
	<circle id="XMLID_355_" opacity="3.000000e-002" fill="#1899D4" cx="433.8" cy="149" r="1.8"/>
	<circle id="XMLID_354_" opacity="3.000000e-002" fill="#1899D4" cx="453.7" cy="149" r="1.8"/>
	<circle id="XMLID_353_" opacity="3.000000e-002" fill="#1899D4" cx="473.7" cy="149" r="1.8"/>
	<circle id="XMLID_344_" opacity="3.000000e-002" fill="#1899D4" cx="393.8" cy="166" r="1.8"/>
	<circle id="XMLID_343_" opacity="3.000000e-002" fill="#1899D4" cx="413.8" cy="166" r="1.8"/>
	<circle id="XMLID_342_" opacity="3.000000e-002" fill="#1899D4" cx="433.8" cy="166" r="1.8"/>
	<circle id="XMLID_341_" opacity="3.000000e-002" fill="#1899D4" cx="453.7" cy="166" r="1.8"/>
	<circle id="XMLID_340_" opacity="3.000000e-002" fill="#1899D4" cx="473.7" cy="166" r="1.8"/>
	<circle id="XMLID_331_" opacity="3.000000e-002" fill="#1899D4" cx="393.8" cy="183" r="1.8"/>
	<circle id="XMLID_330_" opacity="3.000000e-002" fill="#1899D4" cx="413.8" cy="183" r="1.8"/>
	<circle id="XMLID_329_" opacity="3.000000e-002" fill="#1899D4" cx="433.8" cy="183" r="1.8"/>
	<circle id="XMLID_328_" opacity="3.000000e-002" fill="#1899D4" cx="453.7" cy="183" r="1.8"/>
	<circle id="XMLID_327_" opacity="3.000000e-002" fill="#1899D4" cx="473.7" cy="183" r="1.8"/>
	<circle id="XMLID_238_" opacity="3.000000e-002" fill="#1899D4" cx="393.8" cy="268" r="1.8"/>
	<circle id="XMLID_237_" opacity="3.000000e-002" fill="#1899D4" cx="413.8" cy="268" r="1.8"/>
	<circle id="XMLID_234_" opacity="3.000000e-002" fill="#1899D4" cx="473.7" cy="268" r="1.8"/>
	<circle id="XMLID_225_" opacity="3.000000e-002" fill="#1899D4" cx="393.8" cy="285" r="1.8"/>
	<circle id="XMLID_224_" opacity="3.000000e-002" fill="#1899D4" cx="413.8" cy="285" r="1.8"/>
	<circle id="XMLID_221_" opacity="3.000000e-002" fill="#1899D4" cx="473.7" cy="285" r="1.8"/>
	<circle id="XMLID_212_" opacity="3.000000e-002" fill="#1899D4" cx="393.8" cy="302" r="1.8"/>
	<circle id="XMLID_211_" opacity="3.000000e-002" fill="#1899D4" cx="413.8" cy="302" r="1.8"/>
	<circle id="XMLID_210_" opacity="3.000000e-002" fill="#1899D4" cx="433.8" cy="302" r="1.8"/>
	<circle id="XMLID_209_" opacity="3.000000e-002" fill="#1899D4" cx="453.7" cy="302" r="1.8"/>
	<circle id="XMLID_208_" opacity="3.000000e-002" fill="#1899D4" cx="473.7" cy="302" r="1.8"/>
	<circle id="XMLID_199_" opacity="3.000000e-002" fill="#1899D4" cx="393.8" cy="319" r="1.8"/>
	<circle id="XMLID_198_" opacity="3.000000e-002" fill="#1899D4" cx="413.8" cy="319" r="1.8"/>
	<circle id="XMLID_197_" opacity="3.000000e-002" fill="#1899D4" cx="433.8" cy="319" r="1.8"/>
	<circle id="XMLID_196_" opacity="3.000000e-002" fill="#1899D4" cx="453.7" cy="319" r="1.8"/>
	<circle id="XMLID_195_" opacity="3.000000e-002" fill="#1899D4" cx="473.7" cy="319" r="1.8"/>
	<circle id="XMLID_186_" opacity="3.000000e-002" fill="#1899D4" cx="393.8" cy="336" r="1.8"/>
	<circle id="XMLID_185_" opacity="3.000000e-002" fill="#1899D4" cx="413.8" cy="336" r="1.8"/>
	<circle id="XMLID_184_" opacity="3.000000e-002" fill="#1899D4" cx="433.8" cy="336" r="1.8"/>
	<circle id="XMLID_183_" opacity="3.000000e-002" fill="#1899D4" cx="453.7" cy="336" r="1.8"/>
	<circle id="XMLID_182_" opacity="3.000000e-002" fill="#1899D4" cx="473.7" cy="336" r="1.8"/>
	<circle id="XMLID_173_" opacity="3.000000e-002" fill="#1899D4" cx="393.8" cy="353" r="1.8"/>
	<circle id="XMLID_172_" opacity="3.000000e-002" fill="#1899D4" cx="413.8" cy="353" r="1.8"/>
	<circle id="XMLID_171_" opacity="3.000000e-002" fill="#1899D4" cx="433.8" cy="353" r="1.8"/>
	<circle id="XMLID_170_" opacity="3.000000e-002" fill="#1899D4" cx="453.7" cy="353" r="1.8"/>
	<circle id="XMLID_169_" opacity="3.000000e-002" fill="#1899D4" cx="473.7" cy="353" r="1.8"/>
	<circle id="XMLID_626_" opacity="3.000000e-002" fill="#1899D4" cx="294" cy="353" r="1.8"/>
	<circle id="XMLID_625_" opacity="3.000000e-002" fill="#1899D4" cx="314" cy="353" r="1.8"/>
	<circle id="XMLID_624_" opacity="3.000000e-002" fill="#1899D4" cx="334" cy="353" r="1.8"/>
	<circle id="XMLID_623_" opacity="3.000000e-002" fill="#1899D4" cx="353.9" cy="353" r="1.8"/>
	<circle id="XMLID_622_" opacity="3.000000e-002" fill="#1899D4" cx="373.9" cy="353" r="1.8"/>
	<circle id="XMLID_621_" opacity="3.000000e-002" fill="#1899D4" cx="393.8" cy="353" r="1.8"/>
	<circle id="XMLID_612_" opacity="3.000000e-002" fill="#1899D4" cx="314" cy="370.1" r="1.8"/>
	<circle id="XMLID_611_" opacity="3.000000e-002" fill="#1899D4" cx="334" cy="370.1" r="1.8"/>
	<circle id="XMLID_610_" opacity="3.000000e-002" fill="#1899D4" cx="353.9" cy="370.1" r="1.8"/>
	<circle id="XMLID_609_" opacity="3.000000e-002" fill="#1899D4" cx="373.9" cy="370.1" r="1.8"/>
	<circle id="XMLID_608_" opacity="3.000000e-002" fill="#1899D4" cx="393.8" cy="370.1" r="1.8"/>
	<circle id="XMLID_599_" opacity="3.000000e-002" fill="#1899D4" cx="314" cy="387.1" r="1.8"/>
	<circle id="XMLID_598_" opacity="3.000000e-002" fill="#1899D4" cx="334" cy="387.1" r="1.8"/>
	<circle id="XMLID_597_" opacity="3.000000e-002" fill="#1899D4" cx="353.9" cy="387.1" r="1.8"/>
	<circle id="XMLID_596_" opacity="3.000000e-002" fill="#1899D4" cx="373.9" cy="387.1" r="1.8"/>
	<circle id="XMLID_595_" opacity="3.000000e-002" fill="#1899D4" cx="393.8" cy="387.1" r="1.8"/>
	<circle id="XMLID_586_" opacity="3.000000e-002" fill="#1899D4" cx="314" cy="404.1" r="1.8"/>
	<circle id="XMLID_585_" opacity="3.000000e-002" fill="#1899D4" cx="334" cy="404.1" r="1.8"/>
	<circle id="XMLID_584_" opacity="3.000000e-002" fill="#1899D4" cx="353.9" cy="404.1" r="1.8"/>
	<circle id="XMLID_572_" opacity="3.000000e-002" fill="#1899D4" cx="334" cy="421.1" r="1.8"/>
	<circle id="XMLID_554_" opacity="3.000000e-002" fill="#1899D4" cx="393.8" cy="353" r="1.8"/>
	<circle id="XMLID_553_" opacity="3.000000e-002" fill="#1899D4" cx="413.8" cy="353" r="1.8"/>
	<circle id="XMLID_552_" opacity="3.000000e-002" fill="#1899D4" cx="433.8" cy="353" r="1.8"/>
	<circle id="XMLID_551_" opacity="3.000000e-002" fill="#1899D4" cx="453.7" cy="353" r="1.8"/>
	<circle id="XMLID_550_" opacity="3.000000e-002" fill="#1899D4" cx="473.7" cy="353" r="1.8"/>
	<circle id="XMLID_541_" opacity="3.000000e-002" fill="#1899D4" cx="393.8" cy="370.1" r="1.8"/>
	<circle id="XMLID_540_" opacity="3.000000e-002" fill="#1899D4" cx="413.8" cy="370.1" r="1.8"/>
	<circle id="XMLID_539_" opacity="3.000000e-002" fill="#1899D4" cx="433.8" cy="370.1" r="1.8"/>
	<circle id="XMLID_538_" opacity="3.000000e-002" fill="#1899D4" cx="453.7" cy="370.1" r="1.8"/>
	<circle id="XMLID_537_" opacity="3.000000e-002" fill="#1899D4" cx="473.7" cy="370.1" r="1.8"/>
	<circle id="XMLID_528_" opacity="3.000000e-002" fill="#1899D4" cx="393.8" cy="387.1" r="1.8"/>
	<circle id="XMLID_527_" opacity="3.000000e-002" fill="#1899D4" cx="413.8" cy="387.1" r="1.8"/>
	<circle id="XMLID_526_" opacity="3.000000e-002" fill="#1899D4" cx="433.8" cy="387.1" r="1.8"/>
	<circle id="XMLID_525_" opacity="3.000000e-002" fill="#1899D4" cx="453.7" cy="387.1" r="1.8"/>
	<circle id="XMLID_524_" opacity="3.000000e-002" fill="#1899D4" cx="473.7" cy="387.1" r="1.8"/>
	<circle id="XMLID_513_" opacity="3.000000e-002" fill="#1899D4" cx="433.8" cy="404.1" r="1.8"/>
	<circle id="XMLID_512_" opacity="3.000000e-002" fill="#1899D4" cx="453.7" cy="404.1" r="1.8"/>
	<circle id="XMLID_511_" opacity="3.000000e-002" fill="#1899D4" cx="473.7" cy="404.1" r="1.8"/>
	<circle id="XMLID_500_" opacity="3.000000e-002" fill="#1899D4" cx="433.8" cy="421.1" r="1.8"/>
	<circle id="XMLID_499_" opacity="3.000000e-002" fill="#1899D4" cx="453.7" cy="421.1" r="1.8"/>
	<circle id="XMLID_498_" opacity="3.000000e-002" fill="#1899D4" cx="473.7" cy="421.1" r="1.8"/>
	<circle id="XMLID_487_" opacity="3.000000e-002" fill="#1899D4" cx="433.8" cy="438.1" r="1.8"/>
</g>
</svg>
