<?xml version="1.0" encoding="utf-8"?>
<!-- Generator: Adobe Illustrator 19.0.0, SVG Export Plug-In . SVG Version: 6.00 Build 0)  -->
<svg version="1.1" id="Layer_1" xmlns="http://www.w3.org/2000/svg" xmlns:xlink="http://www.w3.org/1999/xlink" x="0px" y="0px"
	 width="550px" height="400px" viewBox="117.5 56.2 550 400" enable-background="new 117.5 56.2 550 400" xml:space="preserve">
<g id="XMLID_4_" opacity="0.1">
	<circle id="XMLID_713_" opacity="0.4" fill="#1899D4" cx="165.9" cy="168.7" r="1.7"/>
	<circle id="XMLID_712_" opacity="0.4" fill="#1899D4" cx="185.2" cy="168.7" r="1.7"/>
	<circle id="XMLID_711_" opacity="0.4" fill="#1899D4" cx="204.4" cy="168.7" r="1.7"/>
	<circle id="XMLID_710_" opacity="0.4" fill="#1899D4" cx="223.6" cy="168.7" r="1.7"/>
	<circle id="XMLID_709_" opacity="0.4" fill="#1899D4" cx="242.8" cy="168.7" r="1.7"/>
	<circle id="XMLID_708_" opacity="0.4" fill="#1899D4" cx="262" cy="168.7" r="1.7"/>
	<circle id="XMLID_707_" opacity="0.4" fill="#1899D4" cx="281.2" cy="168.7" r="1.7"/>
	<circle id="XMLID_706_" opacity="0.4" fill="#1899D4" cx="185.2" cy="185" r="1.7"/>
	<circle id="XMLID_705_" opacity="0.4" fill="#1899D4" cx="204.4" cy="185" r="1.7"/>
	<circle id="XMLID_704_" opacity="0.4" fill="#1899D4" cx="223.6" cy="185" r="1.7"/>
	<circle id="XMLID_703_" opacity="0.4" fill="#1899D4" cx="262" cy="185" r="1.7"/>
	<circle id="XMLID_702_" opacity="0.4" fill="#1899D4" cx="204.4" cy="201.4" r="1.7"/>
	<circle id="XMLID_701_" opacity="0.4" fill="#1899D4" cx="223.6" cy="201.4" r="1.7"/>
	<circle id="XMLID_700_" opacity="0.4" fill="#1899D4" cx="262" cy="201.4" r="1.7"/>
	<circle id="XMLID_699_" opacity="0.4" fill="#1899D4" cx="204.4" cy="217.8" r="1.7"/>
	<circle id="XMLID_698_" opacity="0.4" fill="#1899D4" cx="223.6" cy="217.8" r="1.7"/>
	<circle id="XMLID_697_" opacity="0.4" fill="#1899D4" cx="242.8" cy="217.8" r="1.7"/>
	<circle id="XMLID_696_" opacity="0.4" fill="#1899D4" cx="262" cy="217.8" r="1.7"/>
	<circle id="XMLID_695_" opacity="0.4" fill="#1899D4" cx="185.2" cy="234.1" r="1.7"/>
	<circle id="XMLID_694_" opacity="0.4" fill="#1899D4" cx="223.6" cy="234.1" r="1.7"/>
	<circle id="XMLID_693_" opacity="0.4" fill="#1899D4" cx="262" cy="234.1" r="1.7"/>
	<circle id="XMLID_692_" opacity="0.4" fill="#1899D4" cx="185.2" cy="250.5" r="1.7"/>
	<circle id="XMLID_691_" opacity="0.4" fill="#1899D4" cx="204.4" cy="250.5" r="1.7"/>
	<circle id="XMLID_690_" opacity="0.4" fill="#1899D4" cx="223.6" cy="250.5" r="1.7"/>
	<circle id="XMLID_689_" opacity="0.4" fill="#1899D4" cx="262" cy="250.5" r="1.7"/>
	<circle id="XMLID_688_" opacity="0.4" fill="#1899D4" cx="185.2" cy="250.5" r="1.7"/>
	<circle id="XMLID_687_" opacity="0.4" fill="#1899D4" cx="204.4" cy="250.5" r="1.7"/>
	<circle id="XMLID_686_" opacity="0.4" fill="#1899D4" cx="223.6" cy="250.5" r="1.7"/>
	<circle id="XMLID_685_" opacity="0.4" fill="#1899D4" cx="262" cy="250.5" r="1.7"/>
	<circle id="XMLID_684_" opacity="0.4" fill="#1899D4" cx="165.9" cy="266.8" r="1.7"/>
	<circle id="XMLID_683_" opacity="0.4" fill="#1899D4" cx="185.2" cy="266.8" r="1.7"/>
	<circle id="XMLID_682_" opacity="0.4" fill="#1899D4" cx="204.4" cy="266.8" r="1.7"/>
	<circle id="XMLID_681_" opacity="0.4" fill="#1899D4" cx="223.6" cy="266.8" r="1.7"/>
	<circle id="XMLID_680_" opacity="0.4" fill="#1899D4" cx="262" cy="266.8" r="1.7"/>
	<circle id="XMLID_679_" opacity="0.4" fill="#1899D4" cx="204.4" cy="283.2" r="1.7"/>
	<circle id="XMLID_678_" opacity="0.4" fill="#1899D4" cx="223.6" cy="283.2" r="1.7"/>
	<circle id="XMLID_677_" opacity="0.4" fill="#1899D4" cx="262" cy="283.2" r="1.7"/>
	<circle id="XMLID_676_" opacity="0.4" fill="#1899D4" cx="204.4" cy="299.6" r="1.7"/>
	<circle id="XMLID_675_" opacity="0.4" fill="#1899D4" cx="223.6" cy="299.6" r="1.7"/>
	<circle id="XMLID_674_" opacity="0.4" fill="#1899D4" cx="242.8" cy="299.6" r="1.7"/>
	<circle id="XMLID_673_" opacity="0.4" fill="#1899D4" cx="262" cy="299.6" r="1.7"/>
	<circle id="XMLID_672_" opacity="0.4" fill="#1899D4" cx="204.4" cy="315.9" r="1.7"/>
	<circle id="XMLID_671_" opacity="0.4" fill="#1899D4" cx="223.6" cy="315.9" r="1.7"/>
	<circle id="XMLID_670_" opacity="0.4" fill="#1899D4" cx="242.8" cy="315.9" r="1.7"/>
	<circle id="XMLID_669_" opacity="0.4" fill="#1899D4" cx="262" cy="315.9" r="1.7"/>
	<circle id="XMLID_668_" opacity="0.4" fill="#1899D4" cx="165.9" cy="332.3" r="1.7"/>
	<circle id="XMLID_667_" opacity="0.4" fill="#1899D4" cx="185.2" cy="332.3" r="1.7"/>
	<circle id="XMLID_666_" opacity="0.4" fill="#1899D4" cx="204.4" cy="332.3" r="1.7"/>
	<circle id="XMLID_665_" opacity="0.4" fill="#1899D4" cx="223.6" cy="332.3" r="1.7"/>
	<circle id="XMLID_664_" opacity="0.4" fill="#1899D4" cx="242.8" cy="332.3" r="1.7"/>
	<circle id="XMLID_663_" opacity="0.4" fill="#1899D4" cx="262" cy="332.3" r="1.7"/>
	<circle id="XMLID_662_" opacity="0.4" fill="#1899D4" cx="281.2" cy="332.3" r="1.7"/>
	<circle id="XMLID_661_" opacity="0.4" fill="#1899D4" cx="165.9" cy="86.8" r="1.7"/>
	<circle id="XMLID_660_" opacity="0.4" fill="#1899D4" cx="242.8" cy="86.8" r="1.7"/>
	<circle id="XMLID_659_" opacity="0.4" fill="#1899D4" cx="165.9" cy="103.2" r="1.7"/>
	<circle id="XMLID_658_" opacity="0.4" fill="#1899D4" cx="185.2" cy="103.2" r="1.7"/>
	<circle id="XMLID_657_" opacity="0.4" fill="#1899D4" cx="204.4" cy="103.2" r="1.7"/>
	<circle id="XMLID_656_" opacity="0.4" fill="#1899D4" cx="223.6" cy="103.2" r="1.7"/>
	<circle id="XMLID_655_" opacity="0.4" fill="#1899D4" cx="242.8" cy="103.2" r="1.7"/>
	<circle id="XMLID_654_" opacity="0.4" fill="#1899D4" cx="262" cy="103.2" r="1.7"/>
	<circle id="XMLID_653_" opacity="0.4" fill="#1899D4" cx="281.2" cy="103.2" r="1.7"/>
	<circle id="XMLID_652_" opacity="0.4" fill="#1899D4" cx="223.6" cy="119.6" r="1.7"/>
	<circle id="XMLID_651_" opacity="0.4" fill="#1899D4" cx="242.8" cy="119.6" r="1.7"/>
	<circle id="XMLID_650_" opacity="0.4" fill="#1899D4" cx="262" cy="119.6" r="1.7"/>
	<circle id="XMLID_649_" opacity="0.4" fill="#1899D4" cx="281.2" cy="119.6" r="1.7"/>
	<circle id="XMLID_648_" opacity="0.4" fill="#1899D4" cx="242.8" cy="135.9" r="1.7"/>
	<circle id="XMLID_647_" opacity="0.4" fill="#1899D4" cx="262" cy="135.9" r="1.7"/>
	<circle id="XMLID_646_" opacity="0.4" fill="#1899D4" cx="281.2" cy="135.9" r="1.7"/>
	<circle id="XMLID_645_" opacity="0.4" fill="#1899D4" cx="242.8" cy="152.3" r="1.7"/>
	<circle id="XMLID_644_" opacity="0.4" fill="#1899D4" cx="262" cy="152.3" r="1.7"/>
	<circle id="XMLID_643_" opacity="0.4" fill="#1899D4" cx="281.2" cy="152.3" r="1.7"/>
	<circle id="XMLID_642_" opacity="0.4" fill="#1899D4" cx="165.9" cy="168.7" r="1.7"/>
	<circle id="XMLID_641_" opacity="0.4" fill="#1899D4" cx="185.2" cy="168.7" r="1.7"/>
	<circle id="XMLID_640_" opacity="0.4" fill="#1899D4" cx="204.4" cy="168.7" r="1.7"/>
	<circle id="XMLID_639_" opacity="0.4" fill="#1899D4" cx="223.6" cy="168.7" r="1.7"/>
	<circle id="XMLID_638_" opacity="0.4" fill="#1899D4" cx="242.8" cy="168.7" r="1.7"/>
	<circle id="XMLID_637_" opacity="0.4" fill="#1899D4" cx="262" cy="168.7" r="1.7"/>
	<circle id="XMLID_636_" opacity="0.4" fill="#1899D4" cx="281.2" cy="168.7" r="1.7"/>
	<circle id="XMLID_635_" opacity="0.4" fill="#1899D4" cx="165.9" cy="332.3" r="1.7"/>
	<circle id="XMLID_634_" opacity="0.4" fill="#1899D4" cx="185.2" cy="332.3" r="1.7"/>
	<circle id="XMLID_620_" opacity="0.4" fill="#1899D4" cx="204.4" cy="332.3" r="1.7"/>
	<circle id="XMLID_613_" opacity="0.4" fill="#1899D4" cx="223.6" cy="332.3" r="1.7"/>
	<circle id="XMLID_607_" opacity="0.4" fill="#1899D4" cx="242.8" cy="332.3" r="1.7"/>
	<circle id="XMLID_605_" opacity="0.4" fill="#1899D4" cx="262" cy="332.3" r="1.7"/>
	<circle id="XMLID_604_" opacity="0.4" fill="#1899D4" cx="281.2" cy="332.3" r="1.7"/>
	<circle id="XMLID_600_" opacity="0.4" fill="#1899D4" cx="185.2" cy="348.7" r="1.7"/>
	<circle id="XMLID_594_" opacity="0.4" fill="#1899D4" cx="204.4" cy="348.7" r="1.7"/>
	<circle id="XMLID_592_" opacity="0.4" fill="#1899D4" cx="223.6" cy="348.7" r="1.7"/>
	<circle id="XMLID_591_" opacity="0.4" fill="#1899D4" cx="242.8" cy="348.7" r="1.7"/>
	<circle id="XMLID_587_" opacity="0.4" fill="#1899D4" cx="262" cy="348.7" r="1.7"/>
	<circle id="XMLID_583_" opacity="0.4" fill="#1899D4" cx="281.2" cy="348.7" r="1.7"/>
	<circle id="XMLID_582_" opacity="0.4" fill="#1899D4" cx="185.2" cy="365" r="1.7"/>
	<circle id="XMLID_581_" opacity="0.4" fill="#1899D4" cx="242.8" cy="365" r="1.7"/>
	<circle id="XMLID_576_" opacity="0.4" fill="#1899D4" cx="262" cy="365" r="1.7"/>
	<circle id="XMLID_575_" opacity="0.4" fill="#1899D4" cx="281.2" cy="365" r="1.7"/>
	<circle id="XMLID_574_" opacity="0.4" fill="#1899D4" cx="185.2" cy="381.4" r="1.7"/>
	<circle id="XMLID_573_" opacity="0.4" fill="#1899D4" cx="242.8" cy="381.4" r="1.7"/>
	<circle id="XMLID_571_" opacity="0.4" fill="#1899D4" cx="262" cy="381.4" r="1.7"/>
	<circle id="XMLID_570_" opacity="0.4" fill="#1899D4" cx="281.2" cy="381.4" r="1.7"/>
	<circle id="XMLID_569_" opacity="0.4" fill="#1899D4" cx="185.2" cy="397.8" r="1.7"/>
	<circle id="XMLID_567_" opacity="0.4" fill="#1899D4" cx="204.4" cy="397.8" r="1.7"/>
	<circle id="XMLID_566_" opacity="0.4" fill="#1899D4" cx="223.6" cy="397.8" r="1.7"/>
	<circle id="XMLID_565_" opacity="0.4" fill="#1899D4" cx="242.8" cy="397.8" r="1.7"/>
	<circle id="XMLID_564_" opacity="0.4" fill="#1899D4" cx="165.9" cy="414.1" r="1.7"/>
	<g id="XMLID_7_">
		<circle id="XMLID_563_" opacity="3.000000e-002" fill="#1899D4" cx="320.9" cy="180.1" r="1.7"/>
		<circle id="XMLID_562_" opacity="3.000000e-002" fill="#1899D4" cx="340.1" cy="180.1" r="1.7"/>
		<circle id="XMLID_561_" opacity="3.000000e-002" fill="#1899D4" cx="359.3" cy="180.1" r="1.7"/>
		<circle id="XMLID_560_" opacity="3.000000e-002" fill="#1899D4" cx="397.7" cy="180.1" r="1.7"/>
		<circle id="XMLID_559_" opacity="3.000000e-002" fill="#1899D4" cx="340.1" cy="196.4" r="1.7"/>
		<circle id="XMLID_558_" opacity="3.000000e-002" fill="#1899D4" cx="359.3" cy="196.4" r="1.7"/>
		<circle id="XMLID_557_" opacity="3.000000e-002" fill="#1899D4" cx="378.5" cy="196.4" r="1.7"/>
		<circle id="XMLID_556_" opacity="3.000000e-002" fill="#1899D4" cx="397.7" cy="196.4" r="1.7"/>
		<circle id="XMLID_555_" opacity="3.000000e-002" fill="#1899D4" cx="340.1" cy="212.8" r="1.7"/>
		<circle id="XMLID_549_" opacity="3.000000e-002" fill="#1899D4" cx="359.3" cy="212.8" r="1.7"/>
		<circle id="XMLID_547_" opacity="3.000000e-002" fill="#1899D4" cx="378.5" cy="212.8" r="1.7"/>
		<circle id="XMLID_546_" opacity="3.000000e-002" fill="#1899D4" cx="397.7" cy="212.8" r="1.7"/>
		<circle id="XMLID_545_" opacity="3.000000e-002" fill="#1899D4" cx="340.1" cy="229.1" r="1.7"/>
		<circle id="XMLID_544_" opacity="3.000000e-002" fill="#1899D4" cx="359.3" cy="229.1" r="1.7"/>
		<circle id="XMLID_542_" opacity="3.000000e-002" fill="#1899D4" cx="378.5" cy="229.1" r="1.7"/>
		<circle id="XMLID_534_" opacity="3.000000e-002" fill="#1899D4" cx="397.7" cy="229.1" r="1.7"/>
		<circle id="XMLID_533_" opacity="3.000000e-002" fill="#1899D4" cx="340.1" cy="245.5" r="1.7"/>
		<circle id="XMLID_532_" opacity="3.000000e-002" fill="#1899D4" cx="359.3" cy="245.5" r="1.7"/>
		<circle id="XMLID_531_" opacity="3.000000e-002" fill="#1899D4" cx="378.5" cy="245.5" r="1.7"/>
		<circle id="XMLID_529_" opacity="3.000000e-002" fill="#1899D4" cx="397.7" cy="245.5" r="1.7"/>
		<circle id="XMLID_521_" opacity="3.000000e-002" fill="#1899D4" cx="340.1" cy="261.9" r="1.7"/>
		<circle id="XMLID_520_" opacity="3.000000e-002" fill="#1899D4" cx="359.3" cy="261.9" r="1.7"/>
		<circle id="XMLID_519_" opacity="3.000000e-002" fill="#1899D4" cx="397.7" cy="261.9" r="1.7"/>
		<circle id="XMLID_518_" opacity="3.000000e-002" fill="#1899D4" cx="340.1" cy="261.9" r="1.7"/>
		<circle id="XMLID_515_" opacity="3.000000e-002" fill="#1899D4" cx="359.3" cy="261.9" r="1.7"/>
		<circle id="XMLID_514_" opacity="3.000000e-002" fill="#1899D4" cx="397.7" cy="261.9" r="1.7"/>
		<circle id="XMLID_503_" opacity="3.000000e-002" fill="#1899D4" cx="340.1" cy="278.2" r="1.7"/>
		<circle id="XMLID_502_" opacity="3.000000e-002" fill="#1899D4" cx="359.3" cy="278.2" r="1.7"/>
		<circle id="XMLID_501_" opacity="3.000000e-002" fill="#1899D4" cx="397.7" cy="278.2" r="1.7"/>
		<circle id="XMLID_494_" opacity="3.000000e-002" fill="#1899D4" cx="340.1" cy="294.6" r="1.7"/>
		<circle id="XMLID_491_" opacity="3.000000e-002" fill="#1899D4" cx="359.3" cy="294.6" r="1.7"/>
		<circle id="XMLID_490_" opacity="3.000000e-002" fill="#1899D4" cx="397.7" cy="294.6" r="1.7"/>
		<circle id="XMLID_489_" opacity="3.000000e-002" fill="#1899D4" cx="340.1" cy="311" r="1.7"/>
		<circle id="XMLID_488_" opacity="3.000000e-002" fill="#1899D4" cx="359.3" cy="311" r="1.7"/>
		<circle id="XMLID_486_" opacity="3.000000e-002" fill="#1899D4" cx="397.7" cy="311" r="1.7"/>
		<circle id="XMLID_485_" opacity="3.000000e-002" fill="#1899D4" cx="340.1" cy="327.3" r="1.7"/>
		<circle id="XMLID_484_" opacity="3.000000e-002" fill="#1899D4" cx="359.3" cy="327.3" r="1.7"/>
		<circle id="XMLID_483_" opacity="3.000000e-002" fill="#1899D4" cx="397.7" cy="327.3" r="1.7"/>
		<circle id="XMLID_481_" opacity="3.000000e-002" fill="#1899D4" cx="301.7" cy="343.7" r="1.7"/>
		<circle id="XMLID_479_" opacity="3.000000e-002" fill="#1899D4" cx="320.9" cy="343.7" r="1.7"/>
		<circle id="XMLID_478_" opacity="3.000000e-002" fill="#1899D4" cx="340.1" cy="343.7" r="1.7"/>
		<circle id="XMLID_476_" opacity="3.000000e-002" fill="#1899D4" cx="359.3" cy="343.7" r="1.7"/>
		<circle id="XMLID_474_" opacity="3.000000e-002" fill="#1899D4" cx="378.5" cy="343.7" r="1.7"/>
		<circle id="XMLID_473_" opacity="3.000000e-002" fill="#1899D4" cx="397.7" cy="343.7" r="1.7"/>
		<circle id="XMLID_472_" opacity="3.000000e-002" fill="#1899D4" cx="397.7" cy="180.1" r="1.7"/>
		<circle id="XMLID_470_" opacity="3.000000e-002" fill="#1899D4" cx="416.9" cy="180.1" r="1.7"/>
		<circle id="XMLID_469_" opacity="3.000000e-002" fill="#1899D4" cx="436.1" cy="180.1" r="1.7"/>
		<circle id="XMLID_468_" opacity="3.000000e-002" fill="#1899D4" cx="455.3" cy="180.1" r="1.7"/>
		<circle id="XMLID_466_" opacity="3.000000e-002" fill="#1899D4" cx="474.5" cy="180.1" r="1.7"/>
		<circle id="XMLID_465_" opacity="3.000000e-002" fill="#1899D4" cx="397.7" cy="196.4" r="1.7"/>
		<circle id="XMLID_464_" opacity="3.000000e-002" fill="#1899D4" cx="416.9" cy="196.4" r="1.7"/>
		<circle id="XMLID_463_" opacity="3.000000e-002" fill="#1899D4" cx="436.1" cy="196.4" r="1.7"/>
		<circle id="XMLID_451_" opacity="3.000000e-002" fill="#1899D4" cx="455.3" cy="196.4" r="1.7"/>
		<circle id="XMLID_450_" opacity="3.000000e-002" fill="#1899D4" cx="474.5" cy="196.4" r="1.7"/>
		<circle id="XMLID_449_" opacity="3.000000e-002" fill="#1899D4" cx="397.7" cy="212.8" r="1.7"/>
		<circle id="XMLID_448_" opacity="3.000000e-002" fill="#1899D4" cx="416.9" cy="212.8" r="1.7"/>
		<circle id="XMLID_447_" opacity="3.000000e-002" fill="#1899D4" cx="474.5" cy="212.8" r="1.7"/>
		<circle id="XMLID_436_" opacity="3.000000e-002" fill="#1899D4" cx="397.7" cy="229.1" r="1.7"/>
		<circle id="XMLID_435_" opacity="3.000000e-002" fill="#1899D4" cx="416.9" cy="229.1" r="1.7"/>
		<circle id="XMLID_434_" opacity="3.000000e-002" fill="#1899D4" cx="474.5" cy="229.1" r="1.7"/>
		<circle id="XMLID_433_" opacity="3.000000e-002" fill="#1899D4" cx="397.7" cy="245.5" r="1.7"/>
		<circle id="XMLID_429_" opacity="3.000000e-002" fill="#1899D4" cx="416.9" cy="245.5" r="1.7"/>
		<circle id="XMLID_423_" opacity="3.000000e-002" fill="#1899D4" cx="474.5" cy="245.5" r="1.7"/>
		<circle id="XMLID_422_" opacity="3.000000e-002" fill="#1899D4" cx="397.7" cy="261.9" r="1.7"/>
		<circle id="XMLID_421_" opacity="3.000000e-002" fill="#1899D4" cx="416.9" cy="261.9" r="1.7"/>
		<circle id="XMLID_420_" opacity="3.000000e-002" fill="#1899D4" cx="474.5" cy="261.9" r="1.7"/>
		<circle id="XMLID_416_" opacity="3.000000e-002" fill="#1899D4" cx="320.9" cy="98.2" r="1.7"/>
		<circle id="XMLID_412_" opacity="3.000000e-002" fill="#1899D4" cx="301.7" cy="114.6" r="1.7"/>
		<circle id="XMLID_403_" opacity="3.000000e-002" fill="#1899D4" cx="320.9" cy="114.6" r="1.7"/>
		<circle id="XMLID_399_" opacity="3.000000e-002" fill="#1899D4" cx="340.1" cy="114.6" r="1.7"/>
		<circle id="XMLID_397_" opacity="3.000000e-002" fill="#1899D4" cx="359.3" cy="114.6" r="1.7"/>
		<circle id="XMLID_396_" opacity="3.000000e-002" fill="#1899D4" cx="301.7" cy="131" r="1.7"/>
		<circle id="XMLID_395_" opacity="3.000000e-002" fill="#1899D4" cx="320.9" cy="131" r="1.7"/>
		<circle id="XMLID_394_" opacity="3.000000e-002" fill="#1899D4" cx="340.1" cy="131" r="1.7"/>
		<circle id="XMLID_393_" opacity="3.000000e-002" fill="#1899D4" cx="359.3" cy="131" r="1.7"/>
		<circle id="XMLID_390_" opacity="3.000000e-002" fill="#1899D4" cx="378.5" cy="131" r="1.7"/>
		<circle id="XMLID_389_" opacity="3.000000e-002" fill="#1899D4" cx="397.7" cy="131" r="1.7"/>
		<circle id="XMLID_387_" opacity="3.000000e-002" fill="#1899D4" cx="320.9" cy="147.3" r="1.7"/>
		<circle id="XMLID_386_" opacity="3.000000e-002" fill="#1899D4" cx="340.1" cy="147.3" r="1.7"/>
		<circle id="XMLID_385_" opacity="3.000000e-002" fill="#1899D4" cx="359.3" cy="147.3" r="1.7"/>
		<circle id="XMLID_383_" opacity="3.000000e-002" fill="#1899D4" cx="378.5" cy="147.3" r="1.7"/>
		<circle id="XMLID_382_" opacity="3.000000e-002" fill="#1899D4" cx="397.7" cy="147.3" r="1.7"/>
		<circle id="XMLID_381_" opacity="3.000000e-002" fill="#1899D4" cx="320.9" cy="163.7" r="1.7"/>
		<circle id="XMLID_380_" opacity="3.000000e-002" fill="#1899D4" cx="340.1" cy="163.7" r="1.7"/>
		<circle id="XMLID_377_" opacity="3.000000e-002" fill="#1899D4" cx="359.3" cy="163.7" r="1.7"/>
		<circle id="XMLID_376_" opacity="3.000000e-002" fill="#1899D4" cx="397.7" cy="163.7" r="1.7"/>
		<circle id="XMLID_359_" opacity="3.000000e-002" fill="#1899D4" cx="320.9" cy="180.1" r="1.7"/>
		<circle id="XMLID_358_" opacity="3.000000e-002" fill="#1899D4" cx="340.1" cy="180.1" r="1.7"/>
		<circle id="XMLID_318_" opacity="3.000000e-002" fill="#1899D4" cx="359.3" cy="180.1" r="1.7"/>
		<circle id="XMLID_293_" opacity="3.000000e-002" fill="#1899D4" cx="397.7" cy="180.1" r="1.7"/>
		<circle id="XMLID_292_" opacity="3.000000e-002" fill="#1899D4" cx="474.5" cy="98.2" r="1.7"/>
		<circle id="XMLID_289_" opacity="3.000000e-002" fill="#1899D4" cx="474.5" cy="114.6" r="1.7"/>
		<circle id="XMLID_288_" opacity="3.000000e-002" fill="#1899D4" cx="397.7" cy="131" r="1.7"/>
		<circle id="XMLID_280_" opacity="3.000000e-002" fill="#1899D4" cx="416.9" cy="131" r="1.7"/>
		<circle id="XMLID_279_" opacity="3.000000e-002" fill="#1899D4" cx="436.1" cy="131" r="1.7"/>
		<circle id="XMLID_276_" opacity="3.000000e-002" fill="#1899D4" cx="455.3" cy="131" r="1.7"/>
		<circle id="XMLID_275_" opacity="3.000000e-002" fill="#1899D4" cx="474.5" cy="131" r="1.7"/>
		<circle id="XMLID_270_" opacity="3.000000e-002" fill="#1899D4" cx="397.7" cy="147.3" r="1.7"/>
		<circle id="XMLID_267_" opacity="3.000000e-002" fill="#1899D4" cx="416.9" cy="147.3" r="1.7"/>
		<circle id="XMLID_266_" opacity="3.000000e-002" fill="#1899D4" cx="436.1" cy="147.3" r="1.7"/>
		<circle id="XMLID_263_" opacity="3.000000e-002" fill="#1899D4" cx="455.3" cy="147.3" r="1.7"/>
		<circle id="XMLID_262_" opacity="3.000000e-002" fill="#1899D4" cx="474.5" cy="147.3" r="1.7"/>
		<circle id="XMLID_257_" opacity="3.000000e-002" fill="#1899D4" cx="397.7" cy="163.7" r="1.7"/>
		<circle id="XMLID_250_" opacity="3.000000e-002" fill="#1899D4" cx="416.9" cy="163.7" r="1.7"/>
		<circle id="XMLID_249_" opacity="3.000000e-002" fill="#1899D4" cx="436.1" cy="163.7" r="1.7"/>
		<circle id="XMLID_239_" opacity="3.000000e-002" fill="#1899D4" cx="455.3" cy="163.7" r="1.7"/>
		<circle id="XMLID_236_" opacity="3.000000e-002" fill="#1899D4" cx="474.5" cy="163.7" r="1.7"/>
		<circle id="XMLID_235_" opacity="3.000000e-002" fill="#1899D4" cx="397.7" cy="180.1" r="1.7"/>
		<circle id="XMLID_223_" opacity="3.000000e-002" fill="#1899D4" cx="416.9" cy="180.1" r="1.7"/>
		<circle id="XMLID_222_" opacity="3.000000e-002" fill="#1899D4" cx="436.1" cy="180.1" r="1.7"/>
		<circle id="XMLID_213_" opacity="3.000000e-002" fill="#1899D4" cx="455.3" cy="180.1" r="1.7"/>
		<circle id="XMLID_207_" opacity="3.000000e-002" fill="#1899D4" cx="474.5" cy="180.1" r="1.7"/>
		<circle id="XMLID_200_" opacity="3.000000e-002" fill="#1899D4" cx="397.7" cy="261.9" r="1.7"/>
		<circle id="XMLID_194_" opacity="3.000000e-002" fill="#1899D4" cx="416.9" cy="261.9" r="1.7"/>
		<circle id="XMLID_181_" opacity="3.000000e-002" fill="#1899D4" cx="474.5" cy="261.9" r="1.7"/>
		<circle id="XMLID_174_" opacity="3.000000e-002" fill="#1899D4" cx="397.7" cy="278.2" r="1.7"/>
		<circle id="XMLID_168_" opacity="3.000000e-002" fill="#1899D4" cx="416.9" cy="278.2" r="1.7"/>
		<circle id="XMLID_166_" opacity="3.000000e-002" fill="#1899D4" cx="474.5" cy="278.2" r="1.7"/>
		<circle id="XMLID_165_" opacity="3.000000e-002" fill="#1899D4" cx="397.7" cy="294.6" r="1.7"/>
		<circle id="XMLID_164_" opacity="3.000000e-002" fill="#1899D4" cx="416.9" cy="294.6" r="1.7"/>
		<circle id="XMLID_163_" opacity="3.000000e-002" fill="#1899D4" cx="436.1" cy="294.6" r="1.7"/>
		<circle id="XMLID_161_" opacity="3.000000e-002" fill="#1899D4" cx="455.3" cy="294.6" r="1.7"/>
		<circle id="XMLID_160_" opacity="3.000000e-002" fill="#1899D4" cx="474.5" cy="294.6" r="1.7"/>
		<circle id="XMLID_159_" opacity="3.000000e-002" fill="#1899D4" cx="397.7" cy="311" r="1.7"/>
		<circle id="XMLID_155_" opacity="3.000000e-002" fill="#1899D4" cx="416.9" cy="311" r="1.7"/>
		<circle id="XMLID_153_" opacity="3.000000e-002" fill="#1899D4" cx="436.1" cy="311" r="1.7"/>
		<circle id="XMLID_152_" opacity="3.000000e-002" fill="#1899D4" cx="455.3" cy="311" r="1.7"/>
		<circle id="XMLID_151_" opacity="3.000000e-002" fill="#1899D4" cx="474.5" cy="311" r="1.7"/>
		<circle id="XMLID_148_" opacity="3.000000e-002" fill="#1899D4" cx="397.7" cy="327.3" r="1.7"/>
		<circle id="XMLID_142_" opacity="3.000000e-002" fill="#1899D4" cx="416.9" cy="327.3" r="1.7"/>
		<circle id="XMLID_140_" opacity="3.000000e-002" fill="#1899D4" cx="436.1" cy="327.3" r="1.7"/>
		<circle id="XMLID_139_" opacity="3.000000e-002" fill="#1899D4" cx="455.3" cy="327.3" r="1.7"/>
		<circle id="XMLID_138_" opacity="3.000000e-002" fill="#1899D4" cx="474.5" cy="327.3" r="1.7"/>
		<circle id="XMLID_135_" opacity="3.000000e-002" fill="#1899D4" cx="397.7" cy="343.7" r="1.7"/>
		<circle id="XMLID_133_" opacity="3.000000e-002" fill="#1899D4" cx="416.9" cy="343.7" r="1.7"/>
		<circle id="XMLID_132_" opacity="3.000000e-002" fill="#1899D4" cx="436.1" cy="343.7" r="1.7"/>
		<circle id="XMLID_129_" opacity="3.000000e-002" fill="#1899D4" cx="455.3" cy="343.7" r="1.7"/>
		<circle id="XMLID_127_" opacity="3.000000e-002" fill="#1899D4" cx="474.5" cy="343.7" r="1.7"/>
		<circle id="XMLID_126_" opacity="3.000000e-002" fill="#1899D4" cx="301.7" cy="343.7" r="1.7"/>
		<circle id="XMLID_125_" opacity="3.000000e-002" fill="#1899D4" cx="320.9" cy="343.7" r="1.7"/>
		<circle id="XMLID_122_" opacity="3.000000e-002" fill="#1899D4" cx="340.1" cy="343.7" r="1.7"/>
		<circle id="XMLID_120_" opacity="3.000000e-002" fill="#1899D4" cx="359.3" cy="343.7" r="1.7"/>
		<circle id="XMLID_119_" opacity="3.000000e-002" fill="#1899D4" cx="378.5" cy="343.7" r="1.7"/>
		<circle id="XMLID_114_" opacity="3.000000e-002" fill="#1899D4" cx="397.7" cy="343.7" r="1.7"/>
		<circle id="XMLID_113_" opacity="3.000000e-002" fill="#1899D4" cx="320.9" cy="360.1" r="1.7"/>
		<circle id="XMLID_112_" opacity="3.000000e-002" fill="#1899D4" cx="340.1" cy="360.1" r="1.7"/>
		<circle id="XMLID_109_" opacity="3.000000e-002" fill="#1899D4" cx="359.3" cy="360.1" r="1.7"/>
		<circle id="XMLID_107_" opacity="3.000000e-002" fill="#1899D4" cx="378.5" cy="360.1" r="1.7"/>
		<circle id="XMLID_106_" opacity="3.000000e-002" fill="#1899D4" cx="397.7" cy="360.1" r="1.7"/>
		<circle id="XMLID_101_" opacity="3.000000e-002" fill="#1899D4" cx="320.9" cy="376.4" r="1.7"/>
		<circle id="XMLID_100_" opacity="3.000000e-002" fill="#1899D4" cx="340.1" cy="376.4" r="1.7"/>
		<circle id="XMLID_99_" opacity="3.000000e-002" fill="#1899D4" cx="359.3" cy="376.4" r="1.7"/>
		<circle id="XMLID_96_" opacity="3.000000e-002" fill="#1899D4" cx="378.5" cy="376.4" r="1.7"/>
		<circle id="XMLID_81_" opacity="3.000000e-002" fill="#1899D4" cx="397.7" cy="376.4" r="1.7"/>
		<circle id="XMLID_73_" opacity="3.000000e-002" fill="#1899D4" cx="320.9" cy="392.8" r="1.7"/>
		<circle id="XMLID_69_" opacity="3.000000e-002" fill="#1899D4" cx="340.1" cy="392.8" r="1.7"/>
		<circle id="XMLID_67_" opacity="3.000000e-002" fill="#1899D4" cx="359.3" cy="392.8" r="1.7"/>
		<circle id="XMLID_63_" opacity="3.000000e-002" fill="#1899D4" cx="340.1" cy="409.1" r="1.7"/>
		<circle id="XMLID_61_" opacity="3.000000e-002" fill="#1899D4" cx="397.7" cy="343.7" r="1.7"/>
		<circle id="XMLID_60_" opacity="3.000000e-002" fill="#1899D4" cx="416.9" cy="343.7" r="1.7"/>
		<circle id="XMLID_59_" opacity="3.000000e-002" fill="#1899D4" cx="436.1" cy="343.7" r="1.7"/>
		<circle id="XMLID_54_" opacity="3.000000e-002" fill="#1899D4" cx="455.3" cy="343.7" r="1.7"/>
		<circle id="XMLID_53_" opacity="3.000000e-002" fill="#1899D4" cx="474.5" cy="343.7" r="1.7"/>
		<circle id="XMLID_50_" opacity="3.000000e-002" fill="#1899D4" cx="397.7" cy="360.1" r="1.7"/>
		<circle id="XMLID_48_" opacity="3.000000e-002" fill="#1899D4" cx="416.9" cy="360.1" r="1.7"/>
		<circle id="XMLID_46_" opacity="3.000000e-002" fill="#1899D4" cx="436.1" cy="360.1" r="1.7"/>
		<circle id="XMLID_40_" opacity="3.000000e-002" fill="#1899D4" cx="455.3" cy="360.1" r="1.7"/>
		<circle id="XMLID_35_" opacity="3.000000e-002" fill="#1899D4" cx="474.5" cy="360.1" r="1.7"/>
		<circle id="XMLID_34_" opacity="3.000000e-002" fill="#1899D4" cx="397.7" cy="376.4" r="1.7"/>
		<circle id="XMLID_33_" opacity="3.000000e-002" fill="#1899D4" cx="416.9" cy="376.4" r="1.7"/>
		<circle id="XMLID_28_" opacity="3.000000e-002" fill="#1899D4" cx="436.1" cy="376.4" r="1.7"/>
		<circle id="XMLID_26_" opacity="3.000000e-002" fill="#1899D4" cx="455.3" cy="376.4" r="1.7"/>
		<circle id="XMLID_24_" opacity="3.000000e-002" fill="#1899D4" cx="474.5" cy="376.4" r="1.7"/>
		<circle id="XMLID_22_" opacity="3.000000e-002" fill="#1899D4" cx="436.1" cy="392.8" r="1.7"/>
		<circle id="XMLID_21_" opacity="3.000000e-002" fill="#1899D4" cx="455.3" cy="392.8" r="1.7"/>
		<circle id="XMLID_20_" opacity="3.000000e-002" fill="#1899D4" cx="474.5" cy="392.8" r="1.7"/>
		<circle id="XMLID_15_" opacity="3.000000e-002" fill="#1899D4" cx="436.1" cy="409.1" r="1.7"/>
		<circle id="XMLID_11_" opacity="3.000000e-002" fill="#1899D4" cx="455.3" cy="409.1" r="1.7"/>
		<circle id="XMLID_9_" opacity="3.000000e-002" fill="#1899D4" cx="474.5" cy="409.1" r="1.7"/>
		<circle id="XMLID_8_" opacity="3.000000e-002" fill="#1899D4" cx="436.1" cy="425.5" r="1.7"/>
	</g>
</g>
<circle id="XMLID_2_" opacity="7.000000e-002" fill="none" stroke="#1899D4" stroke-width="3" stroke-miterlimit="10" cx="267.5" cy="256.2" r="293.8"/>
</svg>
